<svg xmlns="http://www.w3.org/2000/svg" viewBox="0 0 24 24" enable-background="new 0 0 24 24" style=""><style type="text/css">.st0{display:none;fill:none;stroke:#000000;stroke-linecap:round;stroke-linejoin:round;} .st1{fill:none;stroke:#000000;stroke-linecap:round;stroke-linejoin:round;} .st2{display:none;} .st3{display:inline;fill:none;stroke:#000000;stroke-linecap:round;stroke-linejoin:round;}</style><path class="st1 PrJzMHem_0" d="M1.4000000000000004,12A10.6,10.6 0,1,1 22.6,12A10.6,10.6 0,1,1 1.4000000000000004,12"></path><g id="mail" class="st2"><path d="M6.7 6.7h10.6c.7 0 1.3.6 1.3 1.3v8c0 .7-.6 1.3-1.3 1.3H6.7c-.7 0-1.3-.6-1.3-1.3V8c0-.7.6-1.3 1.3-1.3zM18.6 8.1L12 12.7 5.4 8.1" class="st3 PrJzMHem_1"></path></g><path d="M10.3 16.8c-3.2 1-3.2-1.6-4.4-1.9m8.8 3.8v-2.5c0-.6-.2-1.2-.6-1.7 2-.2 4.1-1 4.1-4.4 0-.9-.3-1.7-1-2.4.3-.8.3-1.6-.1-2.4 0 0-.7-.2-2.5.9-1.5-.4-3-.4-4.4 0-1.7-1.1-2.4-.9-2.4-.9-.4.8-.4 1.7-.1 2.4-.6.6-1 1.5-1 2.4 0 3.4 2.1 4.2 4.1 4.4-.4.4-.6 1-.6 1.6v2.5" class="st1 PrJzMHem_2"></path><style data-made-with="vivus-instant">.PrJzMHem_0{stroke-dasharray:67 69;stroke-dashoffset:68;animation:PrJzMHem_draw 2000ms ease-out 0ms forwards;}.PrJzMHem_1{stroke-dasharray:62 64;stroke-dashoffset:63;animation:PrJzMHem_draw 2000ms ease-out 0ms forwards;}.PrJzMHem_2{stroke-dasharray:48 50;stroke-dashoffset:49;animation:PrJzMHem_draw 2000ms ease-out 0ms forwards;}@keyframes PrJzMHem_draw{100%{stroke-dashoffset:0;}}@keyframes PrJzMHem_fade{0%{stroke-opacity:1;}93.54838709677419%{stroke-opacity:1;}100%{stroke-opacity:0;}}</style></svg>