<?xml version="1.0" encoding="utf-8"?>
<!-- Generator: Adobe Illustrator 24.1.0, SVG Export Plug-In . SVG Version: 6.00 Build 0)  -->
<svg version="1.1" id="Layer_4" xmlns="http://www.w3.org/2000/svg" xmlns:xlink="http://www.w3.org/1999/xlink" x="0px" y="0px"
	 viewBox="0 0 2639.18 2640.19" style="enable-background:new 0 0 2639.18 2640.19;" xml:space="preserve">
<style type="text/css">
	.st0{fill:#CE6C87;}
	.st1{fill:#160506;}
	.st2{fill:#FFFFFF;}
	.st3{display:none;fill:#CE6C87;}
</style>
<g id="T8UPzn.tif">
	<g>
		<path class="st0" d="M1247.19,15.6c47.97,0,95.93,0,143.9,0c1.55,0.52,3.07,1.38,4.65,1.52c30.05,2.77,60.27,4.29,90.13,8.45
			c37.79,5.26,75.45,11.83,112.87,19.32c52.21,10.46,103.35,25.23,153.34,43.52c35.27,12.9,70.41,26.45,104.66,41.81
			c75.16,33.71,146.52,74.31,213.93,121.84c49.82,35.13,97.02,73.44,141.57,114.98c30.42,28.37,59.17,58.4,86.71,89.62
			c35.03,39.72,67.43,81.44,97.48,125.01c46.81,67.88,86.3,139.88,119.44,215.33c32.86,74.79,58.32,152.1,76.41,231.78
			c8.46,37.27,15.38,74.82,20.43,112.74c4.69,35.23,9.03,70.46,9.68,106.05c0.13,7.19,1.18,14.36,1.81,21.55
			c0,14.66,0,29.32,0,43.98c-12.7,1.55-21.3-5.67-20.04-17.64c0.9-8.6,1.43-17.1,0.16-25.66c-0.59-3.94-1.3-7.87-1.77-11.82
			c-4.17-35.28-14.63-68.24-36.63-96.66c-16.87-21.8-34.14-43.3-51.67-64.57c-6.55-7.94-14.3-14.99-24.3-18.62
			c-3.44-1.25-7.69-4.61-10.77,0.06c-2.86,4.33,0.97,7.25,3.62,10.14c20.14,22.01,36.43,46.44,47.84,74.15
			c11.59,28.15,18.74,57.47,23.9,87.31c3,17.33,5.29,34.8,7.45,52.27c2.39,19.43,4.97,38.87,6.17,58.39
			c1.43,23.2,1.96,46.48,2.02,69.72c0.06,22.56-0.2,45.18-1.7,67.68c-1.65,24.65-8.77,48.32-16.01,71.86
			c-4.07,13.21-8.11,26.43-12.16,39.65c3.24-0.69,5.3-1.94,6.39-3.77c6.12-10.25,12.56-20.38,17.82-31.07
			c5.26-10.7,9.97-21.78,13.65-33.11c7.05-21.75,14.31-43.54,19.46-65.78c7.44-32.14,7.85-65.24,10.12-98.04
			c0.94-13.66,2.83-16.05,16.45-16.5c0,4,0,8,0,12c-0.53,1.83-1.53,3.66-1.53,5.49c-0.08,23.95-0.92,47.85-4.15,71.61
			c-4.88,35.85-8.88,71.87-15.08,107.5c-11.12,63.98-28.21,126.49-49.16,187.98c-23.36,68.56-52.66,134.49-86.98,198.15
			c-36.08,66.94-78.08,130.09-125.42,189.61c-40.84,51.36-85,99.72-133.28,144.19c-38.19,35.18-78.18,68.18-120.15,98.82
			c-73.94,53.98-152.83,99.44-236.26,136.88c-76.66,34.41-155.98,61.39-238.06,79.57c-37.93,8.4-76.22,15.58-114.67,21.1
			c-35.09,5.04-70.62,7.09-105.95,10.46c-7.47,0.71-14.94,1.43-22.42,2.15c-34.64,0-69.28,0-103.93,0
			c-1.79-0.57-3.56-1.52-5.39-1.66c-26.79-2.05-53.61-3.79-80.38-6.01c-38.78-3.21-77.11-9.67-115.25-17.09
			c-58.17-11.33-115.22-26.89-171.28-46.22c-45.97-15.85-91.02-33.92-134.87-54.88c-59.24-28.32-116.2-60.63-170.69-97.39
			c-56.95-38.41-110.46-81.1-160.78-127.74c-33.2-30.77-64.42-63.54-94.12-97.74c-40.86-47.06-78.02-96.87-111.97-149.12
			c-36.9-56.79-68.49-116.43-96.26-178.12c-20.37-45.25-37.88-91.64-52.18-139.13c-10.16-33.74-19.48-67.79-27.55-102.09
			c-10.35-44-17.94-88.58-22.91-133.56c-3.82-34.63-8.07-69.2-7.65-104.17c0.38-31.64,0.3-63.3,0.01-94.94
			c-0.23-24.62,0.67-49.13,3.81-73.56c4.1-31.93,7.25-64.01,12.16-95.81c9.33-60.58,23.63-120.06,42.17-178.49
			c21.78-68.64,48.83-135.08,81.39-199.39c33.63-66.43,72.68-129.4,117.04-189.07c44.34-59.65,92.91-115.64,147.55-166.17
			c19.52-18.05,39.02-36.18,59.33-53.31c88.52-74.64,185.42-136.16,290.45-184.96c76.57-35.58,155.79-63.44,237.77-83.51
			c77.29-18.93,155.58-31.26,235.1-35.35C1244.2,17.04,1245.69,16.12,1247.19,15.6z M1626.95,2336.76
			c-2.39,0.97-5.07,1.53-7.13,2.97c-6.25,4.39-12.15,9.27-18.38,13.69c-5.13,3.64-10.11,8.14-15.88,10.06
			c-15.02,4.99-27.48,14.46-40.99,22.01c-17.09,9.55-33.17,20.89-50.33,30.29c-18.28,10.02-37.36,18.5-57.58,24.12
			c-12.11,3.37-23.96,8-36.26,10.32c-18.56,3.51-37.41,5.48-56.13,8.14c-14.79,2.1-29.53,4.6-44.36,6.32
			c-30.66,3.55-61-1.72-91.33-4.62c-21.38-2.05-42.67-5.76-63.75-9.99c-28.63-5.75-57.13-12.42-84.01-24.31
			c-16.02-7.08-32.73-12.33-47.86-21.79c-21.14-13.21-43.2-24.74-58.31-45.74c-4.8-6.68-12.79-9.49-21.27-8.9
			c-7.04,0.49-9.83,5.48-6.78,11.76c1.45,2.98,3.22,5.83,5.09,8.57c19.07,27.92,42,52.27,67.88,73.96
			c24.93,20.89,49.65,41.97,76.92,59.91c24.94,16.41,51.12,29.51,80.53,35.56c2.91,0.6,5.76,1.56,8.6,2.46
			c20.01,6.3,40.65,9.74,61.45,11.15c16.41,1.11,32.99-0.14,49.49-0.39c5.65-0.09,11.37,0.16,16.95-0.57
			c17.43-2.28,34.82-4.85,52.2-7.51c9.5-1.46,19.04-2.93,28.39-5.14c10-2.36,19.68-6.1,29.7-8.33c15.36-3.42,29.64-9.61,43.57-16.46
			c17.97-8.83,33.81-21.03,48.75-34.24c18.88-16.7,37.41-33.81,55.83-51.01c7.52-7.02,14.36-14.77,21.5-22.2
			c6.03-6.27,12.17-12.11,21.46-13.49c5.89-0.87,9.89-4.6,12.42-10.34c5.61-12.75,11.81-25.24,17.54-37.94
			c1.17-2.6,1.34-5.66,1.97-8.51c0.38-0.22,0.76-0.44,1.14-0.66c-0.21-0.01-0.53-0.1-0.62,0
			C1627.15,2336.16,1627.07,2336.48,1626.95,2336.76z M1770.57,1749.2c-7.53-7.32-16.02-7.1-25.59-4.46
			c-7.27,2.01-15.06,2.4-22.66,2.94c-11.26,0.81-22.65,0.36-33.81,1.8c-28.67,3.7-57.37,6.37-86.26,7.93
			c-22.66,1.23-45.13,1.87-67.51-2.18c-9.43-1.71-18.72-4.19-28.05-6.4c-17.09-4.05-34.1-8.41-51.26-12.1
			c-6.06-1.31-12.58-2.05-18.68-1.33c-16.55,1.94-32.54,6.58-47.6,13.71c-14.85,7.03-30.15,12.03-46.56,13.3
			c-19.36,1.5-37.78-1.05-54.19-12.59c-2.94-2.07-6.44-3.48-9.86-4.7c-10.39-3.7-20.88-5.5-32.19-4.78
			c-18.21,1.15-36.52,0.57-54.78,0.94c-15.27,0.31-30.68,2.49-45.77,1.06c-21.12-2.01-41.85,0.18-62.63,2.24
			c-27.64,2.74-55.07,2.75-82.36-2.76c-31.23-6.31-62.55-12.23-93.59-19.35c-20.38-4.67-40.66-10.4-59.28-20.26
			c-19.66-10.41-38.79-21.81-58.32-32.47c-14.9-8.13-29.26-16.92-41.86-28.45c-2.89-2.64-6.51-4.61-10.03-6.42
			c-11.51-5.93-19.7-4.41-28.3,5.3c-2.17,2.45-4.2,5.3-5.32,8.33c-4.47,12.11-8.59,24.36-12.79,36.57
			c-4.31,12.55-4.65,25.17-2.06,38.25c2.73,13.8,8.18,26.45,13.07,39.5c9.04,24.11,23,44.81,38.93,64.52
			c14.2,17.57,27.65,35.83,42.9,52.43c15,16.34,31.36,31.54,48.01,46.23c20.91,18.45,43,35.46,67.32,49.37
			c12.81,7.33,23.26,16.48,29.75,30.71c8.62,18.9,23.9,33.24,38.4,47.75c7.7,7.71,16.63,14.16,24.71,21.5
			c28.58,25.96,57.99,50.7,91.71,70.03c24.76,14.19,49.08,29.07,74.99,41.21c29.77,13.95,61.07,19.99,93.66,20.42
			c27.93,0.36,55.78-0.57,83.58-3.81c21.79-2.54,43.41-5.57,64.2-12.85c25.47-8.93,50.02-19.68,71.76-36.08
			c24.63-18.58,49.29-37.09,72-58.09c16.81-15.55,34.3-30.35,51.37-45.61c3.24-2.9,7.4-5.6,6.69-11.82
			c-11.5,2.23-22.49,4.79-32.51,9.92c-21.58,11.05-42.89,22.65-64.3,34.03c-11.45,6.08-22.72,12.78-35.86,14.5
			c-14.52,1.9-28.84,4.32-42.58,9.74c-7.99,3.15-16.29,5.55-24.51,8.12c-23.93,7.49-48.51,11.3-73.52,11.6
			c-16.25,0.2-32.54-0.53-48.76-1.59c-14.9-0.98-29.76-2.73-44.58-4.59c-12.49-1.57-24.98-3.42-37.34-5.83
			c-15.3-2.98-30.59-5.82-44.76-13.19c-16.77-8.71-34.05-16.44-51.19-24.44c-6.58-3.07-14.06-4.72-19.85-8.82
			c-7.66-5.43-15.53-10.01-24.14-13.63c-3.38-1.42-7.1-3.25-8.38-8.91c3.82,0.43,6.69,0.58,9.5,1.09
			c25.47,4.63,50.73,10.08,76.97,9.47c10.09-0.24,20.3,1.71,30.62,1.18c8.22-0.42,16.53,1.18,24.79,1.06
			c19.25-0.29,38.51-1.79,57.74-1.47c21.36,0.35,42.55-0.42,63.54-4.32c15.27-2.83,30.48-6.09,45.59-9.67
			c19.35-4.58,38.6-9.55,57.84-14.57c18.59-4.85,37.14-9.86,55.65-15.02c9.9-2.76,19.65-6.03,29.5-8.98c4.76-1.43,9.64-2.48,14.37-4
			c18.26-5.87,36.6-11.53,54.69-17.92c10.82-3.82,21.23-8.81,31.79-13.35c6.41-2.75,12.72-5.72,19.12-8.48
			c19.14-8.26,38.58-15.86,57.38-24.83c26.92-12.85,53.34-26.74,80.01-40.09c21.09-10.56,42.12-21.13,61.71-34.47
			c16.2-11.03,32.66-21.82,49.75-31.38c26.71-14.95,53.05-30.35,77.46-48.9c2.75-2.09,6.55-3.02,10.02-3.86
			c3.05-0.74,5.52,0.92,5.13,4.27c-0.49,4.22-1.13,8.61-2.8,12.46c-2.49,5.76-5.72,11.24-8.98,16.63
			c-9.11,15.07-17.74,30.5-27.78,44.94c-15.34,22.09-31.87,43.35-47.58,65.19c-16.71,23.21-33.08,46.66-49.55,70.03
			c-13.59,19.29-26.87,38.8-40.75,57.88c-11.32,15.56-22.93,30.94-35.1,45.84c-17.06,20.87-35.88,40.03-57.5,56.34
			c-3.04,2.29-5.53,5.94-6.96,9.49c-0.88,2.19,0.17,5.66,1.37,8.05c1.49,2.97,4.42,2.36,6.96,0.92c3.15-1.8,6.56-3.3,9.31-5.59
			c7.09-5.88,13.9-12.11,20.79-18.23c12.42-11.02,24.95-21.92,37.18-33.14c6.98-6.4,13.64-12.62,23.51-14.81
			c5.46-1.21,11.61-4.03,15.18-8.11c7.63-8.72,14.42-18.34,20.38-28.29c10.27-17.15,21.56-33.47,34.22-48.94
			c7.98-9.76,15.25-20.13,22.42-30.51c14.54-21.06,28.28-42.7,43.33-63.39c14.34-19.72,28-39.68,36.27-62.81
			c7.49-20.95,15.26-41.82,22.06-62.99c4.44-13.82,2.64-16.26-10.65-21.66c-0.54-0.22-0.86-0.97-2.3-2.67
			c1.71-4.06,3.1-9.18,5.83-13.44c4.29-6.7,10.01-12.49,14.2-19.24c9.96-16.03,19.37-32.39,28.78-48.24
			c-7.43-10.38-9.61-13.04-2.06-25.12c15.08-24.12,12.51-31.67-0.79-47.62c-7.11-8.52-12.78-9.5-22.99-5.41
			c-4.35,1.74-6.07,4.5-5.24,9.27c2.06,11.76,3.77,23.58,5.75,35.36c0.88,5.24,2.13,10.08,6.41,14.18
			c4.65,4.45,4.41,11.4,0.04,15.13c-2.39,2.03-5.78,3.05-8.87,4.07c-17.33,5.71-34.73,11.17-52.04,16.92
			c-14.47,4.81-28.78,10.13-43.29,14.82c-27,8.72-54.98,12.66-83.02,15.91c-7.97,0.92-13.77,3.01-16.31,11
			C1784.99,1744.92,1776.91,1741.74,1770.57,1749.2z M1434.41,728.87c4.27,3.65,6.54,6.84,9.58,7.96
			c12.85,4.74,26.1,7.55,39.94,5.25c14.67-2.43,26.52-10.32,37.3-19.91c19.43-17.27,36.48-36.83,53.32-56.56
			c3.37-3.95,6.7-9.13,12.88-6.4c6.25,2.76,3.85,8.84,2.9,13.32c-4.6,21.59-11.77,42.29-24.37,60.65
			c-5.9,8.6-13.67,15.63-23.3,19.71c-17.24,7.3-35.17,12.06-54.15,11.49c-4.75-0.14-8.34,1.41-9.92,6.05
			c5.06,7.44,12.83,13.21,22.97,17.03c19.03,7.16,38.85,9.47,58.89,7.37c18.23-1.91,35.5-8.08,47.66-22.4
			c12.5-14.73,22.23-31.35,25.55-51.07c1.37-8.15,3.86-16.15,6.4-24.04c2.51-7.81,6.93-9.83,14.64-7.14
			c4.07,1.42,8.03,3.24,11.88,5.2c8.01,4.09,9.15,9.7,3.59,16.8c-3.02,3.86-6.11,7.67-8.97,11.25c4.02,7.86,10.38,11.58,16.44,15.65
			c9.49,6.37,19.7,7.99,30.34,3.81c9.26-3.64,18.39-7.68,27.32-12.07c14.6-7.18,28.96-14.85,43.47-22.19
			c21.43-10.85,44.71-14.84,68.22-16.8c16.87-1.41,33.93-0.61,50.9-0.96c5.29-0.11,10.58-1.19,15.84-1.04
			c9.27,0.25,18.52,1.11,27.79,1.7c11.62,0.74,23.03,1.98,33.76,7.36c5.87,2.94,12.4,4.71,18.77,6.52
			c23.05,6.55,45.89,13.58,67.11,25.06c5.54,3,11.47,5.29,17.3,7.71c3.48,1.44,7.07,2.3,9.44-1.9c-0.18-0.78-0.15-1.54-0.5-2.03
			c-12.64-17.89-24.19-36.51-39.31-52.68c-7.36-7.88-14.74-15.25-24.05-20.57c-10.37-5.92-20.75-11.85-31.35-17.33
			c-7.07-3.65-14.29-7.32-21.86-9.6c-18.75-5.66-37.57-11.28-56.67-15.5c-18.92-4.18-38.18-5.32-56.88,2.11
			c-3.68,1.46-7.34,2.98-11.07,4.31c-23.51,8.4-45.99,18.96-66.61,33.08c-5.63,3.86-10.08,9.47-15.01,14.34
			c-5.17,5.11-9.67,11.14-15.54,15.23c-8.12,5.67-17.24,9.9-25.91,14.78c-7.67,4.31-15.79,7.07-24.67,6.95
			c-3.85-0.05-8.31,0.81-10.43-3.83c-1.81-3.96-0.08-7.98,4.66-11.9c2.04-1.69,4.13-3.35,6.01-5.22
			c11.2-11.17,22.94-21.71,34.74-32.24c14.88-13.28,29.69-26.52,45.65-38.49c10.43-7.82,21.24-14.99,33.89-18.48
			c19.18-5.3,38.31-11.08,57.82-14.77c16.88-3.19,34.22-2.9,51.48-0.97c20.61,2.31,40.56,7.33,59.18,16.14
			c22.01,10.42,42.05,24.17,59.9,40.94c7.98,7.5,16.24,14.72,24.3,22.14c9.5,8.76,18.86,17.68,28.4,26.39
			c9.3,8.48,18.24,16.84,32.04,18.54c18.37,2.26,36.62,5.9,54.7,9.97c13.09,2.95,25.62,2.45,38.35-1.23
			c8.97-2.59,18.36-4.95,27.51-2.72c6.86,1.67,13.17,0.69,19.65-0.31c3.54-0.54,6.81-2.69,10.35-3.35
			c12.36-2.33,23.32-7.84,33.43-14.91c9.62-6.72,19.31-7.94,30.11-3.41c14.08,5.91,28.28,11.53,42.49,17.14
			c9.2,3.63,18.61,6.77,27.72,10.61c3.65,1.54,6.74,4.37,10.09,6.61c-0.09-3.7-0.74-6.51-2.45-8.32
			c-5.15-5.42-10.5-10.69-16.16-15.57c-8.03-6.94-16.42-13.47-24.62-20.21c-7.51-6.17-15.67-11.05-25.12-13.72
			c-13.16-3.72-15.57-8.11-11.86-21.07c0.46-1.6,1.01-3.17,1.61-4.72c3.01-7.86,2.33-10.27-4.66-14.69
			c-2.46-1.56-5.2-2.67-7.31-3.73c-5.41,1.53-7.77,5.07-9.1,9.37c-1.46,4.73-2.79,9.51-3.9,14.33c-2.19,9.51-6.76,13.15-16.7,13.41
			c-25.1,0.67-49.5,4.44-72.23,16.03c-8.12,4.14-18.16,2.77-24.02-3.59c-5.12-5.56-10.14-11.58-13.6-18.23
			c-6.09-11.73-10.77-24.19-16.37-36.19c-8.98-19.24-15.2-39.89-28.3-57.06c-6.25-8.19-13.05-15.95-19.35-24.1
			c-24.02-31.09-55.66-50.89-92.69-62.63c-29.43-9.33-59.28-16.77-89.74-22.19c-25.99-4.62-51.98-6.65-78.28-5.68
			c-8.31,0.31-16.63,0.65-24.94,0.75c-3.71,0.05-7.56-0.3-8.68-4.95c-1.14-4.7,0.14-8.69,4.27-11.28c4.5-2.82,8.99-5.93,13.91-7.77
			c17.36-6.5,34.61-13.51,52.43-18.47c32.5-9.06,65.84-12.81,99.6-10.61c10.56,0.69,21.24,2.03,31.48,4.63
			c23.53,5.96,46.39,14.06,68.59,24c8.35,3.74,16.96,7.19,28.14,7.24c-3.59-3.97-5.94-7.18-8.86-9.71
			c-15.09-13.07-30.41-25.83-48.53-34.69c-7.77-3.8-15.38-7.91-23.07-11.87c-21.24-10.93-43.85-18.07-67.58-19.1
			c-21.49-0.93-43.1,0.78-64.65,1.67c-25.24,1.04-50.22,4.53-74.85,10.05c-14.51,3.26-29.28,5.9-42.64,13.13
			c-15.49,8.38-31.51,15.85-46.54,24.97c-17.62,10.7-34.42,22.7-48.88,37.68c-9.89,10.25-20.3,20.02-30.13,30.32
			c-10.53,11.03-20.65,22.44-30.97,33.66c-2.24,2.43-4.32,5.18-7.01,6.95c-1.62,1.06-4.85,1.39-6.34,0.44
			c-1.51-0.96-2.73-4.08-2.37-5.93c1.11-5.83,2.69-11.63,4.68-17.23c6.02-16.95,17.07-29.99,32.55-38.91
			c15.59-8.99,27.04-21.09,33.21-38.26c1.62-4.5,5.08-8.47,8.2-12.26c7.79-9.48,17.84-15.72,29.35-19.85
			c3.53-1.27,6.75-3.4,10.12-5.14c-0.15-0.85-0.3-1.7-0.45-2.55c-3.05-0.24-6.36-1.36-9.1-0.54c-8.23,2.44-16.81,4.61-24.24,8.71
			c-35.97,19.84-68.42,44.8-99.89,71.01c-8.12,6.77-16.41,13.62-21.23,23.55c-4.79,9.87-9.8,19.64-14.8,29.42
			c-9.53,18.64-19.07,37.28-28.69,55.88c-15.57,30.12-30.96,60.25-39.21,93.52c-2.7,10.87-7.32,21.36-11.94,31.64
			c-2.97,6.61-8.24,12.19-11.21,18.8c-4.35,9.68-11.37,15.22-21.45,17.5c-6.75,1.53-13.25,4.22-20.53,2.38
			C1441.41,725.75,1438.85,727.5,1434.41,728.87z M1112,1210.61c0.75-0.36,1.51-0.73,2.26-1.09c0-1.9,0.54-4.02-0.1-5.67
			c-1.9-4.87-5.12-9.37-6.28-14.37c-3.47-14.96-13.22-25.76-22.94-36.64c-4.99-5.58-11.27-8.76-18.76-10.29
			c-13.34-2.72-26.47-1.38-39.58,0.96c-24.54,4.38-43.79,16.27-56.19,38.69c-5.45,9.85-12.28,18.98-18.84,28.18
			c-11.56,16.24-24.4,31.66-34.83,48.58c-10.77,17.48-19.32,36.33-28.79,54.61c-1.68,3.23-2.7,6.92-4.87,9.75
			c-1.39,1.81-5.07,4-6.43,3.34c-8.01-3.89-13.29,0.99-19.01,4.9c-20.82,14.24-41.37,28.91-62.61,42.5
			c-10.79,6.91-21.95,13.64-34.86,16.53c-17.15,3.84-34.28,7.84-51.31,12.17c-37.42,9.52-75.16,16.66-113.94,17.41
			c-11.27,0.22-22.56,1.03-33.78,2.17c-18.21,1.85-35.96,6.03-53.35,11.75c-21.69,7.14-43.55,13.84-65,21.67
			c-17.44,6.38-34.13,14.81-51.59,21.15c-26.64,9.69-50.09,24.82-71.57,42.59c-19.17,15.85-36.79,33.69-54.28,51.44
			c-9.07,9.21-16.51,20.16-20.39,32.81c-4.16,13.6-7.96,27.33-11.41,41.12c-4.42,17.68-8.72,35.41-12.36,53.26
			c-2.98,14.6-6.27,29.22-5.69,44.34c0.27,6.93,2.14,13.01,6.98,18.12c2.61,2.75,5.28,5.45,9.41,4.05c3.74-1.27,5.31-4.19,6.27-8.17
			c2.93-12.08,3.56-24.28,3.15-36.59c-0.36-10.61,2.61-20.36,7.03-29.8c9.06-19.36,20.54-37.2,33.13-54.44
			c19.4-26.56,41.46-50.4,69.98-67.2c28.89-17.01,58.23-33.27,87.71-49.24c14.56-7.89,29.62-14.93,46.57-16.74
			c14.45-1.55,28.82-3.84,43.23-5.75c3.43-0.45,6.81-0.25,8.71,3.27c2.12,3.92-0.09,7.09-2.31,10.03c-0.96,1.27-2.59,2-3.83,3.08
			c-15.49,13.56-30.58,27.5-42.34,44.6c-7.71,11.22-15.62,22.32-23.01,33.75c-9.08,14.05-15.42,29.4-19.71,45.56
			c-4.26,16.03-8.16,32.17-12.63,48.15c-2.5,8.94-6.06,17.58-8.7,26.49c-2.39,8.03-3.32,15.85,1.56,23.88
			c2.81,4.62,3.29,10.65,4.8,16.06c1.79,6.38,3.14,12.93,5.47,19.1c1.97,5.22,7.72,8.52,11.58,7.84c4.34-0.76,8.64-6.16,9.18-11.84
			c0.25-2.64-0.32-5.41,0.21-7.97c1.06-5.08,0.34-11.05,5.21-14.59c7.12-5.18,7.71-12.61,8-20.4c0.27-6.96,0.31-14.02,1.56-20.84
			c4.9-26.82,16.01-51.27,29.5-74.72c13.59-23.61,27.23-47.2,41.06-70.68c3-5.09,6.28-10.27,10.45-14.36
			c7.32-7.18,15.24-13.8,23.28-20.2c8.03-6.4,16.58-12.15,24.76-18.37c3.61-2.75,5.73-6.05,4.15-11.22
			c-1.62-5.29,1.38-8.94,6.15-11.07c2.42-1.08,4.9-2.07,7.44-2.78c10.2-2.86,20.44-5.61,30.67-8.38
			c19.19-5.21,38.43-10.28,57.57-15.66c10.84-3.05,22.13-5.36,32.18-10.17c16.83-8.05,34.17-14.46,51.71-20.62
			c15.88-5.58,30-14.08,40.5-27.83c4.02-5.27,8.67-10.09,13.23-14.93c12.6-13.36,25-26.8,29.53-45.41c0.88-3.6,3.11-5.59,7.08-5.81
			c3.68-0.2,5.49,1.72,6.76,4.68c2.88,6.72,5.33,13.66,8.72,20.11c7.09,13.49,14.03,27.14,22.26,39.94
			c6.32,9.82,19.5,12.39,29.35,7.58c8.52-4.16,10.43-9.99,5.17-17.68c-2.79-4.07-6.03-8.11-9.88-11.13
			c-11.92-9.34-16.76-21.77-17.65-36.38c-1.63-26.63,4.84-50.6,22.05-71.47c18.39-22.3,36.39-44.93,54.68-67.32
			c5.24-6.42,10.27-13.23,16.49-18.59c11.87-10.2,26.25-16.31,46.85-5.23c9.63,5.18,19.09,10.74,28.24,16.72
			c3.76,2.46,6.59,6.4,9.67,9.82C1107.31,1204.56,1109.6,1207.64,1112,1210.61z M995.61,690.19c7.15,0.37,11.74,0.73,16.33,0.82
			c6.3,0.12,12.7,0.74,18.88-0.14c7.9-1.12,15.45-3.55,20.6-10.7c4.77-6.62,3.5-11.67-4.33-13.96c-2.17-0.64-4.6-0.34-6.9-0.57
			c-12.39-1.21-24.04-3.7-33.66-12.9c-8.86-8.48-18.22-16.65-28.34-23.52c-12.03-8.17-24.74-15.53-37.82-21.87
			c-9.76-4.73-17.82,0.75-19.09,11.16c-0.94,7.75-3.13,9.6-10.4,7.14c-5.93-2.01-11.44-5.27-17.19-7.86
			c-25.41-11.47-50.62-23.5-77.37-31.64c-9.78-2.98-19.84-6.1-29.93-6.79c-16.47-1.12-33.08-0.45-49.63-0.27
			c-29.27,0.31-56.09,9.19-81.32,23.63c-42.5,24.33-81.94,53.06-119.81,83.98c-14.26,11.64-29.7,21.26-46.24,29.2
			c-11.56,5.54-23.58,8.96-36.61,7.76c-3.3-0.3-6.69-0.37-9.98,0.01c-8.05,0.93-12.51-3.48-15.29-10.12
			c-1.12-2.67-1.34-5.75-1.79-8.66c-1.56-9.96-6.57-15.31-16.54-17.43c-4.21-0.89-8.5-1.48-12.67-2.53
			c-13.23-3.33-26.5-6.78-37.47-15.44c-11.73-9.27-23.55-18.47-31.63-31.51c-4.2-6.78-8.82-13.31-13.62-19.67
			c-2.18-2.9-3.94-7.23-9.88-5.87c0,3.02-0.33,6.01,0.06,8.9c1.82,13.49,4.22,26.86,9.38,39.58c8.36,20.62,21.33,36.65,43.09,44.25
			c9.78,3.42,19.67,5.71,30.12,6.08c10,0.35,18.69,2.83,22.44,14.33c2.07,6.36,8.03,10.31,14.39,13.06
			c12.54,5.44,25.43,9.56,39.05,11.15c4.24,0.5,7.84,1.92,8.49,6.85c0.58,4.41-0.94,8.12-5.02,9.91
			c-6.93,3.04-13.98,7.61-21.15,7.97c-19.19,0.97-38.6,1.86-57.63-2.15c-6.52-1.38-10.92,0.47-14.39,5.57
			c1.07,6.02,4.91,9.75,9.78,12.14c8.61,4.23,17.4,8.14,26.28,11.77c3.96,1.62,7.35,3.03,6.54,8.44
			c-22.33,10.25-43.65,22.38-62.76,38.11c-2.51,2.06-4.54,4.71-6.79,7.09c0.47,0.55,0.94,1.1,1.4,1.65
			c8.85-4.02,17.57-8.36,26.58-11.98c16.06-6.45,32.74-10.77,49.97-12.7c13.52-1.52,27.08-2.67,40.6-4.18
			c2.63-0.29,5.15-1.5,9.93-2.96c-4.31-2.83-6.35-4.36-8.57-5.58c-4.66-2.55-9.59-4.66-14.1-7.45c-5.34-3.31-6.07-7.54-2.2-12.53
			c1.5-1.94,3.98-3.21,6.17-4.53c13.39-8.05,26.94-15.85,40.19-24.12c4.03-2.52,8.7-5.07,9.63-10.88c-1.22-1.27-2.24-2.61-3.52-3.62
			c-1.56-1.23-3.45-2.05-4.98-3.3c-4.28-3.47-5.22-8.83-2.15-13.28c1.3-1.88,3.17-3.42,4.96-4.9c26.12-21.58,52.31-43.08,78.4-64.68
			c8.93-7.4,16.99-16.07,26.64-22.32c13.88-9,28.72-16.57,43.38-24.32c30.53-16.15,63.37-23.55,97.69-24.09
			c28-0.45,55.41,3.91,82.6,10.76c22.9,5.77,42.52,16.83,59.81,32.38c12.78,11.49,24.63,24.05,37.77,35.11
			c10.64,8.96,18.17,20.17,26.29,31.03c4.49,6.01,2.07,10.9-5.46,11.5c-1.93,0.15-3.95-0.29-5.89-0.65
			c-8.41-1.55-13.91-7.24-19.27-13.34c-14.71-16.71-29.09-33.79-48.09-46.04c-7.54-4.86-14.91-9.98-22.38-14.94
			c-21.8-14.48-45.92-22.51-71.92-23.67c-15.53-0.69-31.2,0.09-46.71,1.4c-11.52,0.97-23.41,2.36-34.17,6.25
			c-15.15,5.49-29.88,12.32-43.16,22.05c-28.71,21.04-57.86,41.47-86.81,62.17c-4.16,2.98-7.52,6.53-7.86,11.95
			c6.84,6.15,6.98,6.59,14.85,4.01c11.04-3.62,21.91-7.77,32.72-12.03c33.3-13.14,68.41-16,103.57-17.86
			c21.92-1.16,43.93-0.79,65.9-0.71c12.95,0.05,26.02,0.57,38.26,5.44c10.18,4.05,20.05,8.91,30.12,13.25
			c6.39,2.76,12.79,5.56,19.37,7.78c22.64,7.64,45.37,15.02,68.06,22.52c13.53,4.47,27.13,8.78,40.56,13.56
			c12.44,4.42,22.79,0.35,32.48-7.07c11.61-8.89,11.14-15.65-1.53-23.38c-0.57-0.35-1.17-0.64-1.73-1
			c-7.11-4.52-8.75-8.34-5.35-15.76c1.72-3.74,1.62-6.71,0.41-10.41C996.98,700.16,996.66,695.98,995.61,690.19z M1551.45,1431.07
			c0,0.09,0,0.19,0,0.28c7.66,0,15.31,0.05,22.97-0.01c7.66-0.06,15.33,0.06,22.96-0.47c4.92-0.34,9.94-1.2,14.62-2.72
			c19.21-6.22,27.01-27.69,19.34-43.32c-7-14.27-16.57-22.54-33.13-22.21c-18.26,0.37-36.57,0.79-54.42-4.8
			c-3.09-0.97-7.2,0.28-10.55,1.38c-14.63,4.81-27.52,12.96-40.49,21.11c-14.32,9.01-28.67,18.35-44.03,25.27
			c-26.27,11.83-52.96,22.9-80.8,30.73c-16.7,4.7-33.66,7.8-51.1,6.98c-24.29-1.15-48.17-5.33-71.59-11.58
			c-32.85-8.77-33.08-9.78-46.52-41.5c-3.72-8.78-7.94-18.23-14.54-24.7c-10.19-9.97-16.42-21.42-20.85-34.51
			c-5.21-15.42-10.51-30.83-16.46-45.97c-2.51-6.39-6.03-12.71-10.41-17.97c-7.54-9.06-15.93-10.49-26.91-5.95
			c-5.2,2.15-10.18,4.85-15.4,6.97c-13.18,5.38-26.46,10.51-39.64,15.87c-4.27,1.74-8.51,3.64-12.5,5.93
			c-11.98,6.91-21.59,16.79-29.86,27.49c-12.37,16-23.56,32.92-34.96,49.65c-3.96,5.81-3.41,12.06,1.17,17.55
			c2.54,3.04,5.07,6.36,8.3,8.52c26.4,17.68,54.83,29.76,87.25,29.65c30.58-0.11,58.94,6.51,85.17,23.24
			c10.99,7.01,24.01,11.51,36.69,15.01c21.74,5.99,43.82,10.97,65.99,15.13c22.8,4.28,45.6,9.19,69.03,9.16
			c7.64-0.01,15.37-0.32,22.88,0.77c6.9,1,13.23,0.44,19.46-2.29c10.6-4.65,21.15-9.43,31.73-14.12
			c20.88-9.24,42.09-17.81,62.54-27.92c14.12-6.98,28.54-10.66,44.1-10.65C1524.82,1431.08,1538.13,1431.07,1551.45,1431.07z
			 M533.3,409.43c18.21-4.81,35.29-8.95,52.15-13.86c20.75-6.05,41.81-7.74,63.13-5.29c16.46,1.89,32.82,4.63,49.18,7.26
			c9.8,1.58,19.77,2.84,29.22,5.72c13.95,4.25,27.95,8.85,41.1,15.05c18.57,8.76,37.56,16.99,54.21,29.35
			c13.58,10.08,27.03,20.34,40.47,30.62c20.56,15.74,41.29,31.27,61.51,47.43c26.46,21.16,53.19,42.07,78.5,64.56
			c21.29,18.92,40.89,39.77,60.9,60.1c17.55,17.83,36.96,33.47,57.02,48.18c26.9,19.71,58.07,23.16,90.29,20.31
			c4.88-0.43,9.81-1.95,14.39-3.77c16.13-6.44,31.06-15.15,45.12-25.28c11.34-8.17,18.98-19.46,24.64-32.03
			c3.7-8.21,2.03-15.18-4.02-20.99c-4.09-3.93-7.96-4.8-12.51-1.65c-5.14,3.55-10.37,7.29-14.51,11.9
			c-17.21,19.11-39.18,26.22-63.75,23.52c-17.91-1.97-34.5-10.06-49.49-19.87c-11-7.19-20.94-16.33-30.26-25.69
			c-20.6-20.68-40.16-42.39-60.8-63.02c-20.2-20.19-40.91-39.9-61.95-59.22c-19.63-18.02-41.19-33.69-63.78-47.76
			c-23.35-14.55-47.25-28.22-70.88-42.32c-12.26-7.32-24.24-15.17-38.03-19.48c-10.11-3.16-20.25-6.24-30.39-9.31
			c-17.78-5.38-35.39-11.41-53.39-15.89c-23.28-5.79-47.11-6.05-71.02-4.91c-26.71,1.27-52.76,4.9-77.43,16.1
			c-14.75,6.7-30,12.25-44.88,18.68C542.72,400.13,536.88,402.15,533.3,409.43z M1275.49,1011.24c3.18,2.06,6.23,4.55,9.69,6.14
			c4.8,2.21,9.97,3.59,14.87,5.58c15.08,6.12,30.31,11.91,45.1,18.66c21.56,9.84,38.59,25.28,53.71,43.52
			c17.85,21.53,31.78,44.85,39.83,71.7c1.39,4.64,3.76,9.45,6.98,12.99c7.28,8.01,8.14,16.64,3.68,25.76
			c-4.35,8.91-9.27,17.6-14.57,25.98c-5.67,8.98-13.06,16.97-17.95,26.32c-7.66,14.64-17.57,27.07-29.43,38.48
			c-12.47,11.99-26.8,20.75-42.31,27.66c-16.94,7.54-34.45,13.81-51.38,21.39c-20.14,9.02-40.56,12.18-62.08,6.13
			c-3.83-1.08-7.79-1.83-11.74-2.29c-6.6-0.77-11.73,2.08-15.16,7.6c-3.17,5.12-0.41,9.71,2.33,13.88c1.79,2.73,4.14,5.31,6.76,7.24
			c6.41,4.7,12.92,9.37,19.78,13.37c22.12,12.9,46.2,20.39,71.5,23.14c15.46,1.68,31.49,3.43,46.49-1.93
			c12.39-4.43,24.35-10.46,35.79-17.02c18.58-10.64,34.28-24.96,48.32-41.13c8.16-9.39,13.59-20.06,18.51-31.56
			c10.05-23.47,16.25-47.68,18.34-72.96c0.74-8.89,1-18.2-0.8-26.84c-7.13-34.13-13.28-68.39-17.07-103.07
			c-1.21-11.05-4.64-21.29-12.02-30.06c-10.68-12.7-20.36-26.3-31.68-38.39c-12.48-13.32-26.24-25.54-43.9-31.96
			c-26.89-9.78-54.6-9.47-82.52-6.42C1279.96,1003.69,1277.63,1006.43,1275.49,1011.24z M1423.71,2570.42
			c2.69,0.86,3.92,1.65,5.07,1.55c11.22-0.98,22.47-1.79,33.62-3.32c8.2-1.12,16.36-2.88,24.36-5.01
			c12.79-3.4,25.69-6.64,38.07-11.22c15.51-5.74,30.5-12.86,45.78-19.22c13.16-5.47,26.5-10.51,39.62-16.08
			c18.9-8.03,37.71-16.28,56.49-24.59c16.65-7.37,33.31-14.72,49.76-22.51c14.69-6.96,28.77-15.32,43.73-21.6
			c17.13-7.19,31.92-17.71,46.46-28.81c15.81-12.08,31.3-24.58,47.27-36.44c20.78-15.44,38.79-33.55,52.13-55.68
			c10.25-17.01,19.07-34.9,28.06-52.64c2.03-4,2.84-8.98,2.92-13.53c0.16-8.7-6.71-12.28-14.02-7.6c-2.76,1.77-5.32,4-7.54,6.42
			c-9.2,10.02-17.21,21.4-27.53,30.07c-23.91,20.09-48.29,39.75-73.61,58.02c-38.02,27.42-77.02,53.49-115.59,80.15
			c-14.49,10.02-29.37,19.53-43.33,30.23c-23.04,17.67-48.19,31.4-74.81,42.66c-11.92,5.04-23.89,9.96-35.91,14.76
			c-17.5,7-35.01,13.98-52.61,20.73c-16.99,6.52-34.19,12.49-51.09,19.21C1434.36,2558.61,1428.24,2562.61,1423.71,2570.42z
			 M2332.16,1753.89c5.84-2.78,8.08-6.57,7.89-11.66c-0.19-4.95-0.56-9.91-1.14-14.84c-2.26-19.35-11.37-36.04-21.27-52.2
			c-20.84-34.02-42.87-67.2-68.26-98.14c-10.57-12.88-22.7-23.45-36.94-31.27c-18.92-10.38-36.84-22.23-54.86-34
			c-18.78-12.27-39.09-21.32-60.27-28.47c-21.07-7.11-42.57-13.09-63.22-21.24c-32.98-13-67.17-17.74-102.23-18.62
			c-18.23-0.46-36.47-0.92-54.67-2.06c-17.08-1.08-33.02-6.59-48.55-13.76c-15.87-7.33-29.55-17.73-43.27-28.27
			c-8.59-6.6-17.78-12.43-26.44-18.43c-6.45,6.11-7.03,10.09-3.19,17.46c3.99,7.64,10.39,12.93,17.64,17.19
			c12.33,7.23,24.72,14.37,37.21,21.32c32.48,18.08,65.04,36.19,101.67,44.61c20.9,4.8,42.15,8.1,63.2,12.25
			c16.14,3.18,32.27,6.44,48.33,10.04c13.58,3.05,27.37,5.66,40.46,10.21c20.07,6.96,39.68,15.26,59.37,23.28
			c25.25,10.28,48.99,23.63,72.23,37.67c27.27,16.47,48.59,40.08,70.52,62.71c11.3,11.66,21.4,24.57,31.3,37.48
			c10.8,14.08,19.36,29.25,21.33,47.64c0.83,7.76,4.31,15.32,7.18,22.74C2327.38,1748.63,2330.13,1751.14,2332.16,1753.89z
			 M1774.45,2462.18c12.66,2.03,24.4-0.83,35.78-5.95c5.73-2.58,11.18-6.19,17.16-7.74c15.44-4,28.8-12.04,41.97-20.39
			c21.33-13.53,42.27-27.66,63.51-41.34c37.37-24.07,75.08-47.62,112.12-72.19c11.08-7.35,20.59-17.14,30.45-26.22
			c5.6-5.15,10.37-11.19,15.64-16.71c17.65-18.46,35.4-36.83,53.03-55.31c10.54-11.05,20.05-23.28,31.59-33.15
			c18.64-15.94,34.11-34.37,48.5-54c5.25-7.17,11.41-13.8,17.85-19.94c14.04-13.4,24.45-29.71,36.62-44.59
			c0.62-0.76,1.18-1.66,1.46-2.58c1.25-4.15,1.12-7.9-4.35-10.75c-3.04,2.18-6.6,4.44-9.85,7.1c-13.62,11.15-25.36,24.19-37.6,36.77
			c-15.26,15.68-31.59,30.34-47.69,45.18c-15.36,14.16-30.29,28.93-46.74,41.73c-23.08,17.96-47.42,34.29-71.15,51.41
			c-12.92,9.32-26.27,18.15-38.4,28.41c-21.36,18.08-38.66,40.11-57.07,61.05c-8.75,9.95-17.59,19.7-28.77,27.31
			c-24.72,16.83-48.82,34.57-73.45,51.54c-10.83,7.46-21.64,15.75-33.72,20.36c-12.14,4.63-23.6,10.44-35.24,15.93
			c-6.51,3.07-12.2,7.92-18.16,12.11C1773.87,2453.06,1773.18,2457.09,1774.45,2462.18z M447.35,2145.79
			c-6.5,5.44-7.45,8.81-2.57,16.03c6.12,9.05,12.41,18.17,19.88,26.07c13.45,14.23,27.79,27.62,41.84,41.27
			c8.82,8.57,17.66,17.13,26.74,25.42c11.02,10.06,22.27,19.86,33.47,29.72c19.41,17.08,38.38,34.71,58.42,51.03
			c22.17,18.04,44.95,35.39,68.18,52.05c18.07,12.96,37,24.78,55.97,36.39c15.26,9.34,31.14,17.67,46.79,26.36
			c18.58,10.31,36.82,21.35,55.93,30.58c28.05,13.54,56.53,26.28,85.25,38.33c15.46,6.48,30.08,15.63,47.79,16.28
			c6.92,0.25,12.32-0.39,16.24-6.17c-2.79-10.86-9.92-16.63-22.23-20.22c-9.82-2.86-19.72-6.13-28.79-10.78
			c-16.82-8.63-33.09-18.34-49.51-27.73c-24.45-13.98-48.78-28.2-73.3-42.07c-8.1-4.58-16.83-8.04-24.92-12.62
			c-24.21-13.7-48.26-27.7-72.36-41.61c-2.58-1.49-5.14-3.04-7.53-4.81c-9.07-6.69-17.88-13.75-27.14-20.16
			c-25.69-17.79-52.55-33.99-75.13-55.99c-4.51-4.4-9.41-8.44-14.41-12.28c-41.94-32.22-83.42-64.99-123.33-99.74
			c-8.41-7.32-16-14.94-21.8-24.38C457.59,2151.45,453.12,2147.76,447.35,2145.79z M1807.89,832.83c2.84,2.91,5.1,6.25,8.22,8.23
			c7.28,4.61,14.73,9.09,22.55,12.68c19.5,8.94,40.44,13.34,61.51,15.46c30.33,3.05,60.75,3.69,91.33,0.41
			c19.29-2.06,36.81-7.55,53.98-15.86c6.49-3.14,13.62-5.4,20.7-6.76c11.7-2.25,23.56-3.85,35.42-4.98
			c19.45-1.85,38.93-3.9,58.44-4.32c12.8-0.27,25.76,1.34,37.37,8.39c8.22,4.99,16.96,9.12,25.51,13.56
			c15.03,7.8,29.92,15.91,45.19,23.23c21.52,10.31,43.75,19.19,64.89,30.19c22.9,11.91,43.14,27.45,56.55,50.44
			c3.67,6.29,7.97,12.39,12.91,17.71c2.45,2.63,5.78,8.46,10.38,4.65c3.73-3.08-0.19-7.49-2.05-10.7
			c-7.3-12.62-14.8-25.13-22.56-37.47c-8.93-14.19-19.96-26.44-34.02-35.85c-9.39-6.29-18.45-13.07-27.85-19.35
			c-9.36-6.25-18.52-13-28.54-17.99c-14.76-7.36-27.87-16.69-39.45-28.26c-7.91-7.9-16.96-14.13-27.63-17.17
			c-19.44-5.53-39.04-10.53-58.66-15.37c-7.38-1.82-15.06-3.7-22.55-3.52c-12.53,0.29-25.02,2.35-37.55,3.39
			c-26.23,2.19-50.49,11.06-73.8,22.46c-11.56,5.65-23.54,9.04-35.99,10.91c-20.61,3.08-41.34,5.37-61.99,8.18
			c-27.05,3.69-53.59,2.82-79.52-6.98c-10.53-3.98-21.47-6.98-32.4-9.72C1821.58,826.73,1814.51,826.15,1807.89,832.83z
			 M1362.86,789.61c-5.9,6.01-13.92,6.85-22.5,5.97c-10.58-1.09-21.17-2.54-31.78-2.69c-8.46-0.11-17.3,0.26-25.33,2.62
			c-14.97,4.39-26.15,15.35-38.04,24.92c-8.02,6.45-13.03,14.96-17.81,23.78c-2.37,4.38-2.16,8.07,1.25,11.81
			c3.33,3.65,6.71,2.94,10.83,1.47c9.97-3.56,20.04-6.86,30.19-9.84c13.99-4.1,28.04-8.03,42.18-11.57c8-2,16.18-3.52,24.37-4.3
			c2.67-0.26,6.56,1.77,8.28,4c4.69,6.1-0.31,25.84-7.19,29.71c-1.89,1.07-4.36,1.17-6.59,1.57c-3.25,0.58-6.79,0.41-9.76,1.64
			c-14.39,5.96-28.92,11.69-42.81,18.69c-8.39,4.23-16.76,9.7-18.43,20.37c3.14,4.19,7.14,5.89,11.64,5.05
			c10.38-1.92,20.66-4.34,31-6.49c8.76-1.82,17.48-4.05,26.33-5.16c7.85-0.99,11.35,2.9,12.74,10.56
			c2.11,11.68,4.41,23.35,7.37,34.83c5.41,20.99,19.68,35.7,35.78,49.04c4.54,3.76,9.54,4.13,14.98,3.84
			c8.85-0.47,10.49-2.4,6.59-10.15c-6.47-12.86-10.63-26.43-13.96-40.31c-2.38-9.9-6.19-19.6-3.61-30.24
			c0.63-2.61-0.73-5.82-1.56-8.64c-0.84-2.86-2.76-5.49-3.17-8.37c-2.15-15.13-4.24-30.28-5.79-45.48
			c-0.7-6.79,4.24-10.3,11.07-8.69c2.25,0.53,4.51,1.27,6.57,2.3c11.58,5.8,23.11,11.71,34.64,17.59c2.76,1.41,5.51,2.86,8.26,4.29
			c0.64-0.63,1.28-1.27,1.92-1.9c-1.73-3.34-3.42-6.7-5.2-10.01c-9.04-16.79-23.48-28.75-37.32-41.14
			C1387.03,808.85,1375.29,799.84,1362.86,789.61z M1215.95,2412.96c1.12,6.39,6.18,8.34,10.79,9.41
			c11.57,2.67,22.72,7.5,35.02,6.71c7.86-0.5,15.79-0.71,23.65-0.29c24.69,1.3,48.92-1.51,72.95-6.97
			c5.46-1.24,11.26-1.07,16.65-2.5c15.03-3.98,30.07-8.02,44.84-12.84c23.71-7.73,45.83-18.8,65.58-34.18
			c14.54-11.32,25.57-25.95,37.45-39.86c9.96-11.67,15.32-24.39,15.67-39.55c0.18-7.56-2.78-12.76-9.31-16.05
			c-6.53-3.29-10.3,1.67-13.6,5.19c-11.01,11.75-23.81,21.13-36.88,30.34c-19.74,13.91-37.37,30.83-60.17,40.3
			c-19.24,7.99-37.78,17.35-58.79,20.81c-26.21,4.31-52.08,10.34-74.6,25.86c-2.15,1.48-5.66,1.37-8.53,1.34
			c-15.33-0.19-30.57,0.44-45.5,4.24C1225.5,2406.36,1219.61,2407.77,1215.95,2412.96z M636.97,1839.48
			c-5.53,1.82-11.44,2.91-16.5,5.6c-10.71,5.71-16.62,19.97-11.69,29.28c3.66,6.92,8.84,13.23,14.22,19
			c11.32,12.15,22.39,24.35,31.61,38.34c21.59,32.74,43.47,65.31,66.13,97.32c10.52,14.86,22.84,28.5,34.87,42.23
			c10.27,11.72,21.18,22.9,32.05,34.08c6.93,7.13,14.24,13.9,21.49,20.71c2.86,2.69,6.21,4.21,9.8,1.2
			c3.83-3.21,3.2-6.96,0.85-10.73c-3.69-5.92-7.02-12.11-11.2-17.66c-16.65-22.06-32.29-44.73-45.6-69.03
			c-18.19-33.22-42.26-62.87-58.73-97.2c-11.64-24.26-24.58-47.88-36.58-71.97C661.35,1847.96,652.64,1839.65,636.97,1839.48z
			 M2076.01,1584.49c0.09,14.76,4.31,26.6,7.51,38.61c3.68,13.82,8.35,27.54,6.87,42.06c-1.75,17.15-3.39,34.41-6.75,51.28
			c-4.68,23.43-9.38,46.74-11.13,70.66c-0.84,11.45-4.01,22.81-6.88,34.02c-3.54,13.82-8.29,27.33-11.74,41.17
			c-7.06,28.35-18,54.79-36.08,77.99c-4.01,5.14-4.03,8.59-0.34,12.36c3.42,3.48,8.03,4.1,12.5,0.14
			c4.38-3.88,8.36-8.59,11.34-13.63c10.98-18.61,21.94-37.25,32-56.36c10.06-19.09,20.46-38.22,25.97-59.25
			c10.94-41.73,22.05-83.42,27.77-126.36c2.53-19.03-0.94-36.83-9.45-53.04c-8.91-16.97-20.52-32.53-31.23-48.52
			C2083.9,1591.95,2080.3,1589.03,2076.01,1584.49z M2359.1,1867.12c2.97-3.97,6.18-7.35,8.33-11.29
			c13.66-25.02,24.33-51.26,33.06-78.43c9.95-30.98,13.63-62.8,15.42-95.01c0.58-10.5,0.43-21.07,1.48-31.51
			c1.41-14.03,0.49-27.99-2.34-41.55c-7.28-34.91-19.65-68.14-36.17-99.75c-3.37-6.44-7.67-12.42-11.88-18.38
			c-1.92-2.72-4.87-5.33-8.44-3.41c-3.72,2-2.5,5.53-1.34,8.79c1.21,3.41,2.65,6.85,3.16,10.39c3.65,25.28,7.04,50.59,10.61,75.88
			c1.67,11.82,3.62,23.6,5.36,35.41c2.13,14.42,4.89,28.8,6.04,43.31c1.13,14.22,0.58,28.58,0.76,42.87
			c0.28,22.59-0.08,45.18-4.48,67.41c-2.63,13.31-6.03,26.51-9.87,39.53c-4.4,14.93-9.43,29.69-14.67,44.34
			C2352.37,1860.65,2352.47,1864,2359.1,1867.12z M1649.93,1432.72c10.7,10.55,22.44,12.66,32.81,5.78
			c15.56-10.33,26.35-24.63,29.56-43.26c1.9-11.04,1.41-22.47,2.34-33.69c1.61-19.34-3.36-36.84-13.99-52.9
			c-7.52-11.36-14.77-22.92-22.56-34.09c-9.11-13.07-17.55-26.9-28.41-38.38c-9.35-9.88-16.46-20.65-22.76-32.4
			c-4.05-7.56-7.61-15.51-14.58-21.19c-7.2-5.87-13.91-12.36-21.18-18.15c-6.06-4.83-13-8.29-21.06-7.46
			c-6.59,0.68-13.14,1.91-19.65,3.15c-15.09,2.87-20.82,16.37-29.58,26.4c-0.2,0.22-0.19,0.63-0.26,0.95
			c-1.06,4.55,2.3,7.91,6.88,6.56c2.17-0.64,4.21-1.95,6.1-3.26c11.26-7.8,23.9-11.48,37.4-11.42c11.68,0.05,22.31,2.87,27.97,15.01
			c3.22,6.91,7.14,13.5,10.93,20.12c8.07,14.12,15.49,28.71,24.66,42.08c7.27,10.58,16.59,19.79,25.31,29.33
			c14.02,15.36,25.01,32.16,25.07,53.82c0.03,8.56-1.24,17.17-2.37,25.69c-2.09,15.85-5.55,31.39-11.71,46.24
			c-2.64,6.36-6.37,11.52-12.76,14.71C1655.3,1427.74,1653.06,1430.22,1649.93,1432.72z M1399.31,1501.07
			c-3.51-5.87-7.9-6.02-12.26-6.24c-4.98-0.25-10-0.16-14.92-0.83c-4.56-0.62-8.33,0.52-12.37,2.52c-4.06,2.01-8.69,3.95-13.09,4.02
			c-12.94,0.2-25.91-0.3-38.84-0.99c-15.91-0.85-31.78-2.9-47.68-3.07c-12.19-0.14-23.54-2.48-35.05-6.16
			c-10-3.19-20.55-5.26-31-6.25c-9.02-0.85-17.75-1.72-26.1-5.55c-3.66-1.68-7.81-2.3-12.55-3.63c0.54,2.53,0.59,3.54,0.97,4.41
			c0.79,1.83,1.57,3.7,2.65,5.36c9.75,14.96,21.5,27.98,37.63,36.21c11.22,5.73,22.67,11.06,34.26,16
			c15.07,6.42,30.65,10.97,47.34,9.88c6.28-0.41,12.57-0.71,18.81-1.43c13.18-1.52,26.41-2.82,39.45-5.16
			c6.4-1.15,12.95-3.54,18.51-6.9c13.24-8,26.01-16.8,38.78-25.55C1396.11,1506.16,1397.5,1503.34,1399.31,1501.07z M1099.5,324.01
			c1.86,1.97,3.17,3.97,4.99,5.2c13.61,9.21,24.84,20.93,35.08,33.59c15.79,19.51,27.78,41.3,36.72,64.68
			c7.11,18.59,13.95,37.31,19.93,56.27c2.75,8.72,3.33,18.16,4.59,27.31c0.59,4.26,0.09,8.67,0.73,12.92
			c1.66,11.07,9.62,16.09,20.09,12.76c11.5-3.66,19.44-10.38,21.88-23.18c2.49-13.06,5.46-25.52,1.5-39.14
			c-6.82-23.46-20.14-42.48-37.47-58.79c-10.95-10.31-21-21.13-29.19-33.7c-4.36-6.68-8.5-13.52-13.19-19.95
			c-7.95-10.9-14.32-23.37-27.32-29.56c-8.65-4.12-17.44-7.98-26.19-11.9C1107.33,318.58,1103.32,318.52,1099.5,324.01z
			 M1897.25,232.76c0.04-0.92,0.07-1.84,0.11-2.76c-12.88-6.19-26.67-10.4-40.61-12.22c-27.16-3.55-54.49-5.42-82.03-4.62
			c-25.52,0.74-48.41,8.31-68.79,22.98c-21.85,15.74-41.57,34.1-59.9,53.82c-4.41,4.75-7.4,10.97-10.38,16.86
			c-1.73,3.41-2.85,7.64,2.67,10.92c7.86-4.97,16.22-9.74,24.03-15.28c23.31-16.55,47.28-31.84,74.37-41.64
			c16.5-5.97,32.79-12.57,50.58-13.9c7.92-0.59,15.8-1.72,23.69-2.66c20.41-2.42,40.82-4.75,61.21-7.35
			C1880.58,235.84,1888.9,234.16,1897.25,232.76z M939.7,784.2c-4.02-2.99-6.57-5.6-9.66-7.08c-13.14-6.29-26.41-12.32-39.72-18.25
			c-2.35-1.05-5.15-1.74-7.69-1.62c-16.59,0.78-33.36,0.58-49.71,3.09c-23.21,3.55-46.01,9.67-69.16,13.71
			c-17.6,3.08-35.42,5.16-53.23,6.73c-17.83,1.57-35.76,1.95-53.64,2.82c-3.44,0.17-6.62,0.54-7.39,4.69
			c5.93,5.81,8.72,7.5,16.25,8.66c14.71,2.27,29.55,3.84,44.18,6.52c22.14,4.06,44.14,3.28,66-1.16c22.14-4.5,44.33-8.5,66.93-9.24
			c25.23-0.83,50.48-1.02,75.72-1.71c4.59-0.13,9.24-1,13.68-2.19C934.5,788.57,936.36,786.5,939.7,784.2z M1355.65,406.64
			c0.12-0.44,0.24-0.88,0.37-1.32c2.65-0.17,5.43,0.12,7.93-0.58c14.65-4.1,29.41-7.93,43.8-12.85
			c10.97-3.74,21.77-8.51,30.23-16.83c2.65-2.61,4.81-6.33,5.76-9.92c1.6-6.04-3.99-11.35-8.98-8.51
			c-8.51,4.85-17.83,4.82-26.95,6.13c-18.47,2.64-37.02,4.17-55.68,2.44c-13.08-1.22-25.18-5.56-36.47-12.26
			c-6.83-4.05-13.72-7.99-20.57-12c-11.84-6.94-23.12-14.34-29.3-27.49c-2.23-4.74-5.42-9.2-8.98-13.05
			c-1.58-1.71-5.14-1.6-7.79-2.31c-0.47,2.46-1.96,5.25-1.26,7.31c6.29,18.65,14.28,36.26,27.12,51.74
			c15.49,18.67,35.17,31.34,56.17,42.2C1338.52,403.2,1347.41,404.29,1355.65,406.64z M2481.13,872.88
			c8.19-9.83,8.54-13.23,2.34-21.64c-2.36-3.2-5-6.23-7.82-9.03c-27.88-27.65-59.81-49.81-95.27-66.25
			c-17.95-8.32-37.42-13.49-57.81-12.95c-8.64,0.23-17.42,0.72-25.92-0.44c-16.55-2.24-32.35-0.08-47.77,5.77
			c-8.95,3.4-18.04,4.12-27.39,2.54c-3.6-0.61-7.17-1.44-10.8-1.8c-1.62-0.16-3.33,0.57-5,0.89c12.49,8.45,24.34,17.29,39.36,18.82
			c10.88,1.11,21.82,1.86,32.75,2.04c8.93,0.15,17.87-1.15,26.81-1.15c9.6,0,19.2,0.76,28.79,1.22c2.65,0.13,5.34,0.15,7.95,0.55
			c25.3,3.93,49.94,10.65,74.25,18.49c11.15,3.6,21.53,9.12,29.25,18.32c9.82,11.69,19.3,23.66,28.92,35.52
			C2476.2,866.75,2478.6,869.74,2481.13,872.88z M2083.87,784.51c-4.13-1.18-6.52-2.56-8.83-2.42c-13.83,0.85-27.62,2.62-41.45,2.92
			c-8.83,0.19-18.07-0.36-26.46-2.83c-14.83-4.38-29.1-10.61-43.69-15.82c-14.36-5.12-28.7-10.36-43.29-14.74
			c-16.84-5.06-33.98-8.78-51.78-8.8c-16.26-0.02-32.6-1.97-48.74-0.82c-13.89,0.99-28.71-0.38-41.2,8.63
			c-7.74,5.58-15.97,10.5-23.71,16.08c-1.8,1.3-2.52,4.11-4.73,7.94c6.36,0,10.82,0.32,15.23-0.06c18.48-1.56,36.91-3.89,55.41-4.84
			c18.58-0.96,37.24-1.12,55.85-0.64c12.21,0.31,24.43,1.97,36.53,3.78c16.33,2.44,32.52,5.85,48.84,8.4
			c17.96,2.8,36.09,4.62,53.99,7.75c16.41,2.87,32.78,3.78,49.25,1.72C2070.77,790.05,2077.05,790.65,2083.87,784.51z
			 M1316.77,219.12c0.26,0.03,0.51,0.05,0.77,0.08c0,4.32-0.22,8.66,0.05,12.96c0.36,5.69,1.55,11.1,5.73,15.52
			c4.33,4.57,7.48,5.48,11.7,0.87c4.18-4.57,7.67-10.06,10.34-15.68c7.88-16.59,17.15-32.27,27.71-47.29
			c4.75-6.76,8.47-14.3,12.13-21.74c3.9-7.94,4.99-16.52,3.67-25.31c-2.02-13.45-4.02-26.91-6.29-40.32
			c-0.66-3.92-1.98-8.46-6.95-8.36c-4.28,0.09-5.58,4.13-6.46,7.81c-0.15,0.65-0.21,1.32-0.36,1.97
			c-2.62,11.31-5.01,22.68-7.93,33.91c-3.01,11.57-8.87,21.37-18.83,28.54c-4.3,3.09-8.16,6.83-12.03,10.47
			c-5.22,4.91-9.04,10.89-10.13,17.97C1318.44,199.96,1317.78,209.57,1316.77,219.12z M1240.32,769.44
			c5.32,7.79,6.55,8.42,13.76,5.3c12.47-5.38,25.36-7.46,38.74-7.04c13.91,0.44,27.89,0.56,41.69,2.1
			c10.71,1.2,21.74,2.85,29.34,9.67c6.88-0.7,12.71-1.42,18.56-1.85c10.44-0.77,15.29-8.53,10.88-18.09
			c-1.36-2.94-3.13-6.17-5.63-8.03c-13.75-10.22-26.88-21.74-44.96-23.88c-2.95-0.35-5.85-1.12-8.79-1.57
			c-19.65-2.98-38.24-1.5-54.53,11.74c-9.49,7.71-19.67,14.58-29.32,22.1C1246.53,762.65,1243.6,766.19,1240.32,769.44z
			 M71.82,1525.39c1.09-2.65,2.47-4.63,2.64-6.7c0.72-8.92,1.68-17.88,1.44-26.79c-0.67-25.17-2.5-50.33-0.43-75.51
			c1.54-18.85,2.14-37.9,5.39-56.47c5.21-29.7,12.11-59.11,18.59-88.59c6.74-30.69,17.37-59.89,33.08-87.29
			c9.92-17.3,18.63-35.25,33.63-49.04c2.12-1.95,3.5-4.84,4.78-7.51c1.49-3.11,0.9-5.84-3.73-7.57c-2.65,2.06-6.19,4.03-8.72,6.9
			c-20.54,23.35-37.14,49.46-50.15,77.55c-8.07,17.41-14.21,35.87-19.6,54.33c-4.17,14.27-5.78,29.28-8.59,43.95
			c-6.51,33.96-10.8,68.24-13.99,102.65c-1.56,16.82-2.48,33.7-3.62,50.56c-1.27,18.97,1.19,37.73,3.44,56.49
			C66.53,1516.93,67.42,1521.39,71.82,1525.39z M257.97,1489.06c-10.29,4.38-17.23,11.64-23.59,19.81
			c-17.9,22.99-30.82,48.83-42.99,75.05c-3.9,8.39-7.44,17.21-9.32,26.22c-3.04,14.55-5.17,29.36-6.56,44.16
			c-1.18,12.53-1.56,25.25-0.89,37.8c1.36,25.43,9.99,49.3,17.49,73.36c0.43,1.39,1.25,2.66,1.88,3.98
			c1.55-1.73,1.78-3.19,1.66-4.63c-1.48-18.13-3.1-36.26-4.51-54.4c-1.16-14.87-2.72-29.75-2.89-44.65
			c-0.11-10.19,1.43-20.33,5.03-30.25c2.65-7.33,3.72-15.52,3.93-23.37c0.28-10.48,2.25-20.34,5.77-30.16
			c5.66-15.8,16.21-28.35,27.45-39.99c13.88-14.36,19.36-33.06,28.63-49.78C259.25,1491.86,258.67,1491.04,257.97,1489.06z
			 M624.6,1555.39c-5.73,1-13.85,1.44-21.29,3.92c-11.34,3.78-19.41,19.04-16.23,29.53c3.83,12.63,5.54,25.9,8.4,38.84
			c1,4.51,2.24,9.08,4.21,13.23c1.34,2.83,3.9,5.22,6.33,7.35c2.87,2.52,6.55,2.49,8.88-0.43c2.57-3.23,4.77-7.04,6.02-10.95
			c0.97-3.02,0.16-6.59,0.25-9.91c0.29-10.59,4.43-19.36,13.09-25.54c7.74-5.52,11.91-12.5,12.87-22.18
			C648.44,1566.08,639.96,1555.55,624.6,1555.39z M585.38,1669.37c-1.5,4.28-3.67,7.79-3.82,11.38
			c-0.93,22.39-4.38,44.66-2.41,67.21c1.39,15.93,10.6,26.47,21.81,36.09c0.35,0.3,1.24-0.05,0.42,0.01
			c8.29-8.5,15.78-16.19,23.86-24.49c-4.53-14.31-8.98-29.23-14.01-43.95c-3.42-10.01-7.21-19.95-11.7-29.52
			C596.8,1680.26,593.89,1674.01,585.38,1669.37z M1142.05,94.73c8.64,10.54,16.26,20.11,24.18,29.42
			c11.2,13.16,22.03,26.33,26.5,43.75c2.44,9.5,9.91,15.59,18.95,19.15c7.65,3.02,14.18-1.91,13.64-10.1
			c-0.17-2.61-0.93-5.23-1.74-7.74c-4.14-12.89-8.22-25.8-12.7-38.57c-1.04-2.96-3.03-6.28-5.56-7.92
			c-16.68-10.78-32.78-22.71-52.31-28.24C1149.97,93.6,1147.01,91.95,1142.05,94.73z M440.26,1794.5c-1.05,0.14-2.1,0.29-3.14,0.43
			c-1.39,4.65-2.07,9.67-4.31,13.86c-3.98,7.45-3.07,14.55-0.97,22.16c3.53,12.81,6.47,25.78,9.85,38.63
			c3.66,13.89,9.38,26.97,16.88,39.19c2.32,3.78,5.8,6.84,8.52,9.97c6.69-3.1,6.68-7.93,6-12.53c-1.95-13.12-4.31-26.18-6.42-39.27
			c-1.69-10.46-4.78-20.98-4.53-31.41C462.57,1816.91,450.84,1806.27,440.26,1794.5z M1320.45,1567.56
			c-2.61-5.37-6.55-7.04-11.1-6.62c-7.56,0.7-15.24,1.27-22.54,3.15c-8.93,2.3-17.47,2.26-26.38,0.16
			c-19.36-4.57-38.83-8.69-58.26-12.98c-0.32-0.07-0.71-0.22-0.98-0.11c-2.35,0.94-5.64,1.32-6.74,3.07c-1,1.6-0.45,5.38,0.87,6.98
			c3.34,4.04,7.15,7.9,11.42,10.93c11.94,8.48,25.62,12.19,40.05,13.82c16.5,1.87,32.92,3.95,49.36-0.43
			C1306.57,1582.76,1314.93,1577.43,1320.45,1567.56z M1449.72,98.01c-10.56,10.77-12.76,23.58-18.35,34.5
			c-5.9,11.53-11.18,23.37-17.24,34.81c-5.88,11.09-12.42,21.84-18.67,32.73c3.73,5.88,8.57,5.87,14.02,3.47
			c10.59-4.66,18.25-13.08,26.63-20.6c11.02-9.88,16.45-22.48,16.94-36.95c0.43-12.61-0.21-25.27-0.64-37.9
			C1452.33,105.51,1451.1,102.99,1449.72,98.01z M1248.27,110.85c-1.47,1.6-2.62,2.26-2.71,3.04c-2.12,18.52-3.99,37.13-1.57,55.7
			c1.77,13.56,11.11,22,23.41,29.97c1.35-3.9,3.04-6.7,3.19-9.59c0.41-7.64-0.06-15.32,0.21-22.98c0.44-12.6-3.43-24.35-7.56-35.85
			C1260.5,123.49,1255.38,116.76,1248.27,110.85z M768.8,253.51c-0.16,0.69-0.32,1.38-0.48,2.07c2.25,1.12,4.39,2.55,6.75,3.31
			c22.21,7.14,43.18,16.7,62.31,30.24c4.82,3.41,10.49,5.61,15.7,8.49c3.98,2.2,7.14,0.95,9.5-2.35c2.25-3.14,0.28-5.89-2.04-7.8
			c-3.54-2.92-7.23-5.86-11.31-7.88c-8.59-4.26-18.32-6.71-26.06-12.09c-15.17-10.55-32.61-11.37-49.66-14.32
			C772.01,252.91,770.37,253.38,768.8,253.51z M1472.12,142.83c5.08-1.42,8.1-4.95,10.45-9.65c7.71-15.44,15.72-30.72,23.49-46.12
			c1.22-2.41,1.77-5.16,3.4-10.04c-4.55,2.51-6.9,3.55-8.98,4.99c-17.48,12.11-23.73,31.35-31.11,49.77
			C1467.93,135.37,1468.28,139.74,1472.12,142.83z"/>
		<path class="st1" d="M2624.2,1361.08c-13.62,0.45-15.51,2.84-16.45,16.5c-2.26,32.8-2.67,65.89-10.12,98.04
			c-5.15,22.24-12.41,44.03-19.46,65.78c-3.67,11.33-8.39,22.41-13.65,33.11c-5.26,10.7-11.7,20.82-17.82,31.07
			c-1.09,1.83-3.15,3.08-6.39,3.77c4.05-13.22,8.1-26.44,12.16-39.65c7.24-23.53,14.36-47.2,16.01-71.86
			c1.5-22.5,1.76-45.11,1.7-67.68c-0.07-23.25-0.59-46.53-2.02-69.72c-1.21-19.52-3.78-38.96-6.17-58.39
			c-2.15-17.47-4.45-34.93-7.45-52.27c-5.16-29.84-12.31-59.16-23.9-87.31c-11.41-27.71-27.7-52.14-47.84-74.15
			c-2.65-2.9-6.48-5.81-3.62-10.14c3.08-4.67,7.32-1.31,10.77-0.06c9.99,3.63,17.75,10.68,24.3,18.62
			c17.53,21.27,34.8,42.77,51.67,64.57c21.99,28.42,32.46,61.39,36.63,96.66c0.47,3.96,1.18,7.88,1.77,11.82
			c1.27,8.56,0.74,17.06-0.16,25.66c-1.26,11.97,7.34,19.19,20.04,17.64C2624.2,1329.09,2624.2,1345.09,2624.2,1361.08z"/>
		<path class="st1" d="M1792.66,1745.57c2.55-7.99,8.35-10.08,16.31-11c28.04-3.25,56.02-7.19,83.02-15.91
			c14.51-4.69,28.82-10.01,43.29-14.82c17.31-5.75,34.72-11.22,52.04-16.92c3.09-1.02,6.48-2.03,8.87-4.07
			c4.37-3.72,4.61-10.67-0.04-15.13c-4.28-4.1-5.53-8.94-6.41-14.18c-1.99-11.78-3.69-23.6-5.75-35.36
			c-0.84-4.77,0.89-7.53,5.24-9.27c10.2-4.09,15.88-3.11,22.99,5.41c13.3,15.95,15.87,23.5,0.79,47.62
			c-7.55,12.08-5.37,14.74,2.06,25.12c-9.41,15.85-18.82,32.21-28.78,48.24c-4.19,6.75-9.91,12.55-14.2,19.24
			c-2.73,4.26-4.12,9.38-5.83,13.44c1.43,1.7,1.76,2.45,2.3,2.67c13.29,5.4,15.09,7.84,10.65,21.66
			c-6.8,21.18-14.58,42.04-22.06,62.99c-8.27,23.14-21.92,43.09-36.27,62.81c-15.05,20.69-28.79,42.33-43.33,63.39
			c-7.17,10.38-14.44,20.75-22.42,30.51c-12.65,15.48-23.95,31.79-34.22,48.94c-5.96,9.96-12.76,19.58-20.38,28.29
			c-3.57,4.08-9.72,6.9-15.18,8.11c-9.88,2.19-16.54,8.42-23.51,14.81c-12.24,11.22-24.76,22.12-37.18,33.14
			c-6.9,6.12-13.7,12.35-20.79,18.23c-2.75,2.29-6.16,3.79-9.31,5.59c-2.54,1.45-5.47,2.05-6.96-0.92c-1.2-2.39-2.25-5.86-1.37-8.05
			c1.43-3.55,3.92-7.2,6.96-9.49c21.62-16.31,40.44-35.47,57.5-56.34c12.17-14.9,23.78-30.28,35.1-45.84
			c13.88-19.08,27.16-38.59,40.75-57.88c16.47-23.38,32.84-46.83,49.55-70.03c15.72-21.83,32.24-43.1,47.58-65.19
			c10.03-14.44,18.66-29.87,27.78-44.94c3.26-5.39,6.5-10.87,8.98-16.63c1.66-3.85,2.31-8.24,2.8-12.46c0.39-3.35-2.07-5-5.13-4.27
			c-3.47,0.84-7.27,1.77-10.02,3.86c-24.42,18.55-50.76,33.95-77.46,48.9c-17.09,9.57-33.55,20.35-49.75,31.38
			c-19.58,13.34-40.61,23.92-61.71,34.47c-26.68,13.35-53.1,27.24-80.01,40.09c-18.79,8.97-38.24,16.57-57.38,24.83
			c-6.4,2.76-12.72,5.73-19.12,8.48c-10.56,4.54-20.97,9.53-31.79,13.35c-18.08,6.39-36.42,12.05-54.69,17.92
			c-4.73,1.52-9.61,2.58-14.37,4c-9.84,2.95-19.6,6.22-29.5,8.98c-18.51,5.16-37.06,10.17-55.65,15.02
			c-19.24,5.02-38.49,9.99-57.84,14.57c-15.11,3.58-30.32,6.84-45.59,9.67c-20.98,3.89-42.18,4.67-63.54,4.32
			c-19.23-0.31-38.49,1.18-57.74,1.47c-8.26,0.12-16.57-1.48-24.79-1.06c-10.32,0.53-20.54-1.41-30.62-1.18
			c-26.24,0.61-51.51-4.84-76.97-9.47c-2.8-0.51-5.67-0.66-9.5-1.09c1.28,5.66,5,7.49,8.38,8.91c8.61,3.62,16.48,8.2,24.14,13.63
			c5.79,4.1,13.27,5.75,19.85,8.82c17.13,8,34.42,15.72,51.19,24.44c14.17,7.36,29.46,10.21,44.76,13.19
			c12.36,2.41,24.84,4.26,37.34,5.83c14.82,1.86,29.68,3.61,44.58,4.59c16.22,1.07,32.52,1.79,48.76,1.59
			c25-0.3,49.59-4.1,73.52-11.6c8.21-2.57,16.51-4.97,24.51-8.12c13.74-5.42,28.06-7.84,42.58-9.74
			c13.14-1.72,24.41-8.42,35.86-14.5c21.42-11.38,42.72-22.97,64.3-34.03c10.02-5.13,21.01-7.69,32.51-9.92
			c0.7,6.22-3.45,8.92-6.69,11.82c-17.07,15.27-34.56,30.07-51.37,45.61c-22.71,21.01-47.37,39.51-72,58.09
			c-21.74,16.4-46.29,27.16-71.76,36.08c-20.79,7.29-42.41,10.32-64.2,12.85c-27.8,3.24-55.65,4.17-83.58,3.81
			c-32.6-0.43-63.9-6.47-93.66-20.42c-25.91-12.14-50.23-27.02-74.99-41.21c-33.72-19.33-63.13-44.07-91.71-70.03
			c-8.08-7.34-17.02-13.8-24.71-21.5c-14.5-14.52-29.78-28.86-38.4-47.75c-6.49-14.23-16.94-23.38-29.75-30.71
			c-24.32-13.91-46.42-30.92-67.32-49.37c-16.65-14.69-33.01-29.89-48.01-46.23c-15.25-16.61-28.7-34.86-42.9-52.43
			c-15.93-19.71-29.89-40.41-38.93-64.52c-4.9-13.05-10.34-25.7-13.07-39.5c-2.59-13.08-2.25-25.7,2.06-38.25
			c4.2-12.21,8.32-24.46,12.79-36.57c1.12-3.03,3.15-5.89,5.32-8.33c8.6-9.71,16.79-11.23,28.3-5.3c3.52,1.81,7.14,3.78,10.03,6.42
			c12.59,11.53,26.95,20.32,41.86,28.45c19.53,10.65,38.66,22.06,58.32,32.47c18.62,9.86,38.91,15.59,59.28,20.26
			c31.04,7.11,62.36,13.04,93.59,19.35c27.29,5.51,54.72,5.5,82.36,2.76c20.78-2.06,41.51-4.25,62.63-2.24
			c15.08,1.44,30.5-0.75,45.77-1.06c18.26-0.37,36.57,0.21,54.78-0.94c11.31-0.72,21.8,1.08,32.19,4.78
			c3.42,1.22,6.92,2.63,9.86,4.7c16.41,11.54,34.83,14.09,54.19,12.59c16.41-1.27,31.71-6.27,46.56-13.3
			c15.06-7.14,31.05-11.77,47.6-13.71c6.11-0.72,12.62,0.02,18.68,1.33c17.16,3.7,34.18,8.06,51.26,12.1
			c9.33,2.21,18.62,4.69,28.05,6.4c22.37,4.05,44.85,3.41,67.51,2.18c28.88-1.57,57.59-4.23,86.26-7.93
			c11.16-1.44,22.55-0.99,33.81-1.8c7.6-0.55,15.38-0.94,22.66-2.94c9.57-2.64,18.06-2.86,25.59,4.46
			c-0.11,4.83,2.59,7.97,6.41,10.29c4.04,2.45,9.62,1.57,13.46-2.2C1793.83,1753.98,1797.13,1750.46,1792.66,1745.57z
			 M1283.29,1999.62c0.56,0.06,1.12,0.12,1.68,0.18c3.55,0.06,7.09,0.13,10.64,0.19c4.35,0.07,8.7,0.14,13.05,0.21
			c11.26-0.84,22.5-2.16,33.77-2.37c10.89-0.2,21.31-6.98,32.52-2.2c0.82,0.35,1.97-0.16,2.97-0.14
			c15.17,0.27,29.68-3.12,44.06-7.56c13.65-4.22,27.23-8.76,41.1-12.1c24.21-5.84,48.73-10.39,72.88-16.45
			c11.19-2.81,21.96-7.52,32.63-12.07c14.37-6.12,28.53-12.75,42.64-19.45c24.32-11.54,48.64-23.07,72.7-35.14
			c5.8-2.91,10.8-7.62,15.7-12.01c2.64-2.36,4.97-5.68,2.67-9.76c-2.52-4.47-6.25-6.77-11.52-6.18c-6.2,0.7-11.54,3.31-15.82,7.75
			c-3.23,3.35-6.24,6.94-9.02,10.66c-5.43,7.26-12.67,10.56-21.56,10.42c-6.65-0.1-13.3-0.45-19.95-0.7
			c-7.8-0.29-14.32,2.12-19.23,8.51c-2.42,3.15-5.12,6.14-8.03,8.86c-7.03,6.57-14.27,7.56-22.91,3.39c-2.7-1.3-5.21-3-7.95-4.17
			c-9.24-3.96-15.7-2.79-22.44,4.79c-4.4,4.95-8.26,10.43-12.01,15.91c-8.92,13.05-12.97,14.32-25.49,4.66
			c-14.58-11.24-23.47-9.02-33.14,6.84c-1.04,1.7-1.69,3.65-2.83,5.26c-2.11,2.98-4.17,6.07-6.74,8.62
			c-6.05,6.02-11.29,6.22-17.22,0c-3.11-3.26-5.26-7.6-7.26-11.73c-3.79-7.81-9.45-12.58-18.33-13.41
			c-19.69-1.86-38.19,14.07-39.54,33.78c-0.28,4.16-1.19,8.82-3.43,12.16c-3.15,4.71-6.44,10.81-13.53,10.08
			c-5.77-0.6-8.27-6.03-8.51-16.08c-0.51-21.87-13.8-33.5-35.11-29.3c-19.18,3.79-28.56,8.81-30.48,29.55
			c-0.53,5.73-4.06,8.71-8.39,11.64c-9.91-3.38-14.13-10.83-14.66-20.51c-0.5-8.99-5.24-14.61-12.56-19.01
			c-10.07-6.06-21.03-5.66-32.02-4.87c-12.71,0.91-20.3,7.96-24.8,19.88c-2.5,6.61-3.17,14.67-10.56,19.01
			c-1.06,0.62-1.08,5.2,0.04,6.84c1.55,2.27,4.42,4.16,7.1,5.01c6,1.89,12.17,3.71,18.4,4.36
			C1236.27,1995.45,1259.79,1997.45,1283.29,1999.62z M1176.79,1962.22c1.63-6.97-0.94-12.51-5.01-17.64
			c-6.46-8.14-15.49-12.39-24.54-16.65c-10.36-4.88-14.12-4.38-22.37,3.29c-4.87,4.53-9.34,9.52-14.43,13.77
			c-9.03,7.52-14.53,6.13-18.65-5.04c-3.02-8.16-8.26-14.25-14.72-19.68c-4.93-4.14-10.51-5.55-16.69-4.42
			c-4.24,0.77-8.58,1.56-12.55,3.15c-6.97,2.8-13.69,6.94-14.08,15.2c-0.4,8.48,6.06,13.18,13.2,15.67
			c8.43,2.94,17.15,5.32,25.93,6.93c13.43,2.46,26.67,5.08,39.44,10.29c10.41,4.24,21.32,7.45,32.24,10.19
			c8.34,2.09,17.01,2.97,25.58,3.98c8.76,1.03,11.65-2.72,8.9-10.74C1178.11,1967.8,1177.53,1964.99,1176.79,1962.22z
			 M1245.69,1861.47c5.25-1.34,12.4-2.75,19.26-5.03c4.97-1.66,8.12-5.6,9-11.03c2.37-14.55-7.9-28.77-22.69-31.18
			c-9.17-1.49-18.34-3.39-27.58-3.94c-9.86-0.59-19.84-0.35-29.68,0.52c-8.4,0.74-13.74,6.59-16.29,14.26
			c-2.59,7.8,0.7,14.22,6.52,19.59c6.82,6.29,15.12,9.9,23.93,11.59C1219.88,1858.51,1231.81,1859.6,1245.69,1861.47z
			 M1350.94,1819.11c-1.31,0-3.64-0.09-5.96,0.02c-8.28,0.39-16.6,0.46-24.82,1.38c-9.15,1.02-14.86,6.9-17.93,15.25
			c-3.11,8.44,2.3,13.86,7.61,18.98c5.48,5.28,12.31,7.74,19.86,7.97c4.64,0.14,9.29,0,13.93-0.15
			c16.53-0.55,32.12-4.34,46.16-13.46c4.84-3.15,9.95-6.78,8.38-13.26c-2.63-10.83-10.26-19.76-23.4-18.45
			C1367.17,1818.13,1359.55,1818.5,1350.94,1819.11z M1448.36,1849.73c14.69-2.39,29.48-4.31,44.04-7.32
			c13.24-2.73,19.31-11.91,18.28-25.42c-0.69-9.11-6.13-14.86-15.16-15.07c-6.93-0.16-14.02-0.22-20.79,1.03
			c-12.68,2.34-25.39,4.96-37.68,8.78c-12.26,3.81-19.51,14.37-8.29,26.42c2.03,2.18,3.86,4.55,5.99,6.63
			C1438.49,1848.44,1442.93,1850.29,1448.36,1849.73z M1149.92,1819.88c0.34-7.9-4.97-15.63-15.32-19.26
			c-13-4.56-26.6-5.64-40.26-5.28c-7.24,0.19-11.28,5.04-11.68,12.24c-0.34,6.16,2.48,10.88,6.33,15.18
			c10.56,11.8,24.8,17.5,38.97,23.2c4.76,1.91,8.97,0.29,12.83-3.03C1147.42,1837.23,1149,1829.57,1149.92,1819.88z
			 M1569.79,1831.76c6.43,0.64,12.34-2.26,17.66-6.46c11.03-8.7,15.52-21.17,18.89-34.1c1.17-4.5-2.57-9.26-7.47-10.06
			c-2.56-0.42-5.28,0.04-7.91,0.24c-15.85,1.23-30.06,8.05-44.61,13.49c-8.5,3.18-10.75,9.98-7.56,18.59
			C1543.04,1824.95,1553.91,1831.49,1569.79,1831.76z M1668.43,1765.56c-7.34,1.12-16.24,2.16-24.99,3.91
			c-7.3,1.46-11.51,7.72-11.41,15.16c0.2,14.31,9.87,20.82,21.17,26c5.29,2.43,10.3,1.73,14.99-1.69
			c9.02-6.57,14.41-15.37,16.26-26.34C1686.33,1771.52,1681.15,1765.45,1668.43,1765.56z M857.78,1759.45
			c5.93-0.71,11.89-1.23,17.78-2.18c4.26-0.68,8.01-3.34,8.08-7.58c0.05-2.64-2.58-5.87-4.86-7.85c-2.69-2.34-6.15-4-9.53-5.3
			c-9.92-3.82-19.92-7.43-29.97-10.89c-3.11-1.07-6.45-1.75-9.74-2.03c-4.32-0.36-7.52,1.77-9.99,5.39
			c-2.6,3.81-0.89,6.84,1.03,10.1C828.93,1753.32,840.72,1760.99,857.78,1759.45z M1010.91,1918.53
			c0.09-12.33-10.16-24.44-24.02-28.38c-9.94-2.83-17.7,0.87-21.83,10.39c-2.68,6.18,0.08,13.04,8.36,17.92
			c7.1,4.19,14.65,7.73,22.25,10.96C1003.59,1932.79,1010.85,1927.36,1010.91,1918.53z M1016.17,1781.2
			c-5.7-0.33-9.15,1.44-11.62,5.72c-2.48,4.31-0.24,7.88,2.21,10.87c5,6.13,10.38,11.96,15.83,17.7c4.45,4.69,10,5.04,15.48,2.22
			c3.75-1.93,7.51-4.25,10.51-7.17c7.8-7.59,6.99-14.56-2.36-20.07C1037,1785.06,1026.99,1781.7,1016.17,1781.2z M954.69,1791.5
			c6.57,0.34,13.39-4,15.45-10.08c2.11-6.23-1.71-10.57-6.1-13.36c-7.2-4.57-14.87-8.59-22.78-11.74c-3.7-1.47-8.62-1.16-12.66-0.23
			c-8.3,1.93-10.76,8.55-6.41,15.98C929.44,1784.43,940.01,1791.41,954.69,1791.5z M1733.21,1786.09c1.77-0.85,5.78-1.94,8.66-4.36
			c3.76-3.15,6.98-7.12,9.78-11.19c2.38-3.45,5.29-7.56,2.26-11.91c-2.94-4.22-7.23-6.81-12.71-6.11c-4.92,0.63-9.9,1.17-14.69,2.38
			c-7.85,1.98-13.42,8.5-12.93,14.36C1714.21,1776.84,1723.51,1785.76,1733.21,1786.09z M916.68,1867.1
			c-2.37,0.15-4.39,0.07-6.32,0.46c-3.82,0.77-6.86,2.84-7.77,6.78c-0.92,4,2.04,6.27,4.99,7.67c3.83,1.81,7.94,3.3,12.09,4.11
			c4.14,0.81,10.45-3.98,11.33-7.8c0.79-3.43-2.26-7.9-6.98-9.62C921.59,1867.82,918.91,1867.57,916.68,1867.1z M757.53,1699.27
			c-1.22,0.86-4.67,2.07-5.58,4.31c-0.83,2.06,0.29,5.97,1.95,7.76c2.86,3.07,6.53,5.96,10.42,7.32c2.52,0.88,6.24-0.68,9-2.02
			c1.12-0.54,1.81-3.51,1.52-5.17C773.87,1706.06,764.68,1699.15,757.53,1699.27z M866.6,1849.11c-2.84-2.23-5.89-5.19-9.48-7.15
			c-1.34-0.73-4.54,0.31-5.83,1.6c-1.37,1.38-2.67,5.18-1.95,5.9c3.08,3.11,6.59,6.72,10.56,7.77
			C863.62,1858.22,865.9,1854.23,866.6,1849.11z"/>
		<path class="st1" d="M1434.41,728.87c4.44-1.37,7-3.12,8.99-2.61c7.27,1.84,13.78-0.86,20.53-2.38
			c10.08-2.28,17.1-7.82,21.45-17.5c2.97-6.61,8.24-12.19,11.21-18.8c4.62-10.27,9.24-20.76,11.94-31.64
			c8.25-33.27,23.64-63.4,39.21-93.52c9.61-18.6,19.16-37.23,28.69-55.88c5-9.77,10.01-19.54,14.8-29.42
			c4.82-9.93,13.11-16.79,21.23-23.55c31.47-26.22,63.92-51.17,99.89-71.01c7.43-4.1,16.01-6.27,24.24-8.71
			c2.74-0.81,6.05,0.31,9.1,0.54c0.15,0.85,0.3,1.7,0.45,2.55c-3.36,1.74-6.58,3.87-10.12,5.14c-11.51,4.13-21.56,10.37-29.35,19.85
			c-3.12,3.8-6.58,7.76-8.2,12.26c-6.17,17.17-17.62,29.27-33.21,38.26c-15.48,8.92-26.53,21.96-32.55,38.91
			c-1.99,5.6-3.57,11.4-4.68,17.23c-0.35,1.85,0.87,4.97,2.37,5.93c1.49,0.95,4.72,0.62,6.34-0.44c2.7-1.77,4.78-4.52,7.01-6.95
			c10.33-11.22,20.45-22.63,30.97-33.66c9.84-10.31,20.24-20.07,30.13-30.32c14.45-14.98,31.26-26.98,48.88-37.68
			c15.03-9.13,31.05-16.6,46.54-24.97c13.36-7.23,28.13-9.87,42.64-13.13c24.63-5.53,49.61-9.01,74.85-10.05
			c21.54-0.89,43.16-2.6,64.65-1.67c23.73,1.02,46.34,8.16,67.58,19.1c7.69,3.96,15.3,8.07,23.07,11.87
			c18.12,8.86,33.44,21.62,48.53,34.69c2.93,2.54,5.28,5.74,8.86,9.71c-11.19-0.06-19.79-3.51-28.14-7.24
			c-22.2-9.94-45.06-18.04-68.59-24c-10.23-2.59-20.92-3.94-31.48-4.63c-33.77-2.2-67.1,1.55-99.6,10.61
			c-17.81,4.96-35.07,11.98-52.43,18.47c-4.92,1.84-9.41,4.95-13.91,7.77c-4.13,2.59-5.41,6.58-4.27,11.28
			c1.13,4.64,4.98,4.99,8.68,4.95c8.32-0.1,16.63-0.44,24.94-0.75c26.3-0.97,52.29,1.06,78.28,5.68
			c30.46,5.42,60.31,12.86,89.74,22.19c37.03,11.74,68.67,31.54,92.69,62.63c6.3,8.15,13.1,15.92,19.35,24.1
			c13.1,17.17,19.32,37.81,28.3,57.06c5.6,12,10.28,24.46,16.37,36.19c3.45,6.65,8.48,12.67,13.6,18.23
			c5.85,6.36,15.9,7.73,24.02,3.59c22.73-11.59,47.13-15.36,72.23-16.03c9.94-0.26,14.51-3.9,16.7-13.41
			c1.11-4.82,2.44-9.6,3.9-14.33c1.33-4.3,3.69-7.84,9.1-9.37c2.1,1.06,4.85,2.17,7.31,3.73c6.99,4.42,7.67,6.83,4.66,14.69
			c-0.59,1.55-1.15,3.12-1.61,4.72c-3.71,12.96-1.31,17.35,11.86,21.07c9.45,2.67,17.61,7.55,25.12,13.72
			c8.2,6.74,16.59,13.27,24.62,20.21c5.65,4.89,11.01,10.15,16.16,15.57c1.71,1.8,2.36,4.62,2.45,8.32
			c-3.35-2.24-6.45-5.07-10.09-6.61c-9.11-3.84-18.51-6.98-27.72-10.61c-14.21-5.6-28.41-11.23-42.49-17.14
			c-10.79-4.53-20.49-3.31-30.11,3.41c-10.12,7.07-21.08,12.58-33.43,14.91c-3.54,0.67-6.81,2.81-10.35,3.35
			c-6.47,1-12.79,1.98-19.65,0.31c-9.16-2.23-18.54,0.13-27.51,2.72c-12.73,3.68-25.25,4.17-38.35,1.23
			c-18.07-4.07-36.33-7.72-54.7-9.97c-13.8-1.7-22.74-10.05-32.04-18.54c-9.55-8.71-18.9-17.63-28.4-26.39
			c-8.06-7.43-16.31-14.64-24.3-22.14c-17.85-16.77-37.88-30.52-59.9-40.94c-18.61-8.81-38.56-13.82-59.18-16.14
			c-17.25-1.94-34.6-2.23-51.48,0.97c-19.51,3.69-38.64,9.47-57.82,14.77c-12.65,3.5-23.46,10.66-33.89,18.48
			c-15.96,11.97-30.77,25.21-45.65,38.49c-11.8,10.54-23.54,21.08-34.74,32.24c-1.87,1.87-3.96,3.53-6.01,5.22
			c-4.74,3.92-6.47,7.95-4.66,11.9c2.12,4.64,6.57,3.77,10.43,3.83c8.88,0.12,17-2.64,24.67-6.95c8.67-4.88,17.8-9.1,25.91-14.78
			c5.86-4.1,10.37-10.13,15.54-15.23c4.93-4.87,9.38-10.48,15.01-14.34c20.62-14.12,43.1-24.68,66.61-33.08
			c3.73-1.33,7.39-2.84,11.07-4.31c18.71-7.44,37.96-6.3,56.88-2.11c19.1,4.22,37.93,9.84,56.67,15.5c7.57,2.28,14.8,5.95,21.86,9.6
			c10.6,5.48,20.98,11.4,31.35,17.33c9.31,5.32,16.68,12.69,24.05,20.57c15.12,16.17,26.67,34.79,39.31,52.68
			c0.35,0.49,0.32,1.25,0.5,2.03c-2.37,4.2-5.96,3.35-9.44,1.9c-5.83-2.42-11.77-4.71-17.3-7.71
			c-21.22-11.48-44.06-18.52-67.11-25.06c-6.37-1.81-12.9-3.57-18.77-6.52c-10.73-5.38-22.14-6.62-33.76-7.36
			c-9.26-0.59-18.52-1.45-27.79-1.7c-5.27-0.14-10.55,0.93-15.84,1.04c-16.97,0.35-34.02-0.45-50.9,0.96
			c-23.51,1.96-46.79,5.95-68.22,16.8c-14.52,7.35-28.87,15.02-43.47,22.19c-8.93,4.39-18.06,8.43-27.32,12.07
			c-10.64,4.18-20.85,2.56-30.34-3.81c-6.06-4.07-12.42-7.79-16.44-15.65c2.85-3.58,5.94-7.39,8.97-11.25
			c5.56-7.1,4.41-12.71-3.59-16.8c-3.85-1.96-7.81-3.78-11.88-5.2c-7.71-2.68-12.12-0.67-14.64,7.14
			c-2.54,7.89-5.03,15.89-6.4,24.04c-3.32,19.72-13.05,36.34-25.55,51.07c-12.16,14.32-29.43,20.5-47.66,22.4
			c-20.03,2.09-39.85-0.22-58.89-7.37c-10.14-3.81-17.91-9.58-22.97-17.03c1.58-4.64,5.17-6.2,9.92-6.05
			c18.98,0.57,36.91-4.2,54.15-11.49c9.63-4.07,17.4-11.11,23.3-19.71c12.6-18.36,19.77-39.06,24.37-60.65
			c0.95-4.48,3.35-10.56-2.9-13.32c-6.19-2.73-9.51,2.45-12.88,6.4c-16.84,19.73-33.9,39.28-53.32,56.56
			c-10.78,9.59-22.62,17.48-37.3,19.91c-13.84,2.29-27.09-0.51-39.94-5.25C1440.96,735.72,1438.69,732.52,1434.41,728.87z
			 M1904.61,466.43c-25.43,0.42-42.79,2.94-62.09,10.75c-31.4,12.7-62.76,25.62-93.49,39.85c-20.3,9.4-37.71,23.6-52.79,40.26
			c-22.78,25.18-33.9,55.98-41.7,88.3c-0.46,1.92-0.65,3.95-0.67,5.93c-0.04,3.94,2.19,6.74,5.91,6.69
			c12.22-0.18,24.79,0.14,35.77-6.24c15.33-8.91,27.89-21.38,40.73-33.45c10.44-9.81,21.71-18.55,34.73-24.73
			c25.62-12.15,52.48-20.81,79.88-27.85c13.29-3.42,27.01-5.23,40.52-2.3c24.66,5.35,49.28,11.05,73.62,17.66
			c21.68,5.88,41.3,16.81,59.5,29.7c18.98,13.44,36.87,28.43,55.5,42.39c7.15,5.35,14.84,10.05,22.64,14.43
			c5.76,3.23,11.92,5.93,18.17,8.05c12.23,4.14,24.38,9.01,37.82,7.32c8.57-1.08,11.43-6.25,7.48-13.71
			c-4.51-8.51-9.28-16.93-13.16-25.73c-9.53-21.58-18.15-43.57-27.99-65c-21.9-47.7-58.79-78.32-109.24-91.77
			c-24.35-6.49-49.3-10.88-74.11-15.53C1927.62,468.8,1913.34,467.57,1904.61,466.43z"/>
		<path class="st1" d="M1112,1210.61c-2.4-2.97-4.69-6.05-7.24-8.89c-3.08-3.43-5.91-7.36-9.67-9.82
			c-9.15-5.98-18.61-11.54-28.24-16.72c-20.6-11.08-34.98-4.97-46.85,5.23c-6.23,5.35-11.25,12.17-16.49,18.59
			c-18.29,22.39-36.29,45.02-54.68,67.32c-17.21,20.87-23.68,44.84-22.05,71.47c0.89,14.62,5.73,27.04,17.65,36.38
			c3.85,3.02,7.09,7.05,9.88,11.13c5.26,7.69,3.35,13.51-5.17,17.68c-9.85,4.81-23.03,2.24-29.35-7.58
			c-8.23-12.79-15.17-26.44-22.26-39.94c-3.39-6.45-5.84-13.4-8.72-20.11c-1.27-2.97-3.08-4.89-6.76-4.68
			c-3.97,0.22-6.2,2.21-7.08,5.81c-4.52,18.61-16.93,32.05-29.53,45.41c-4.56,4.84-9.21,9.66-13.23,14.93
			c-10.49,13.75-24.61,22.25-40.5,27.83c-17.54,6.16-34.88,12.57-51.71,20.62c-10.05,4.81-21.34,7.12-32.18,10.17
			c-19.15,5.38-38.38,10.45-57.57,15.66c-10.23,2.78-20.46,5.52-30.67,8.38c-2.54,0.71-5.03,1.7-7.44,2.78
			c-4.78,2.13-7.77,5.78-6.15,11.07c1.58,5.17-0.53,8.48-4.15,11.22c-8.18,6.22-16.73,11.97-24.76,18.37
			c-8.03,6.4-15.95,13.02-23.28,20.2c-4.17,4.09-7.45,9.27-10.45,14.36c-13.82,23.48-27.47,47.06-41.06,70.68
			c-13.49,23.45-24.61,47.91-29.5,74.72c-1.24,6.82-1.29,13.88-1.56,20.84c-0.3,7.79-0.88,15.22-8,20.4
			c-4.87,3.55-4.15,9.51-5.21,14.59c-0.53,2.56,0.04,5.33-0.21,7.97c-0.55,5.69-4.84,11.08-9.18,11.84
			c-3.86,0.68-9.61-2.62-11.58-7.84c-2.33-6.17-3.68-12.72-5.47-19.1c-1.51-5.4-2-11.44-4.8-16.06c-4.88-8.03-3.95-15.85-1.56-23.88
			c2.65-8.91,6.21-17.55,8.7-26.49c4.46-15.98,8.36-32.11,12.63-48.15c4.3-16.16,10.63-31.5,19.71-45.56
			c7.39-11.43,15.3-22.53,23.01-33.75c11.76-17.1,26.85-31.04,42.34-44.6c1.24-1.08,2.87-1.82,3.83-3.08
			c2.22-2.94,4.43-6.11,2.31-10.03c-1.9-3.52-5.28-3.72-8.71-3.27c-14.41,1.91-28.78,4.21-43.23,5.75
			c-16.95,1.81-32.01,8.85-46.57,16.74c-29.48,15.97-58.82,32.23-87.71,49.24c-28.52,16.79-50.57,40.63-69.98,67.2
			c-12.6,17.24-24.07,35.08-33.13,54.44c-4.42,9.45-7.39,19.2-7.03,29.8c0.41,12.31-0.22,24.51-3.15,36.59
			c-0.97,3.98-2.53,6.91-6.27,8.17c-4.14,1.4-6.81-1.3-9.41-4.05c-4.84-5.11-6.72-11.19-6.98-18.12
			c-0.58-15.12,2.71-29.74,5.69-44.34c3.64-17.85,7.93-35.58,12.36-53.26c3.45-13.8,7.25-27.52,11.41-41.12
			c3.87-12.65,11.31-23.6,20.39-32.81c17.49-17.76,35.11-35.59,54.28-51.44c21.48-17.76,44.93-32.9,71.57-42.59
			c17.45-6.35,34.14-14.78,51.59-21.15c21.44-7.84,43.3-14.53,65-21.67c17.38-5.72,35.14-9.9,53.35-11.75
			c11.22-1.14,22.51-1.95,33.78-2.17c38.77-0.74,76.51-7.89,113.94-17.41c17.03-4.33,34.16-8.33,51.31-12.17
			c12.91-2.89,24.07-9.63,34.86-16.53c21.24-13.59,41.79-28.26,62.61-42.5c5.72-3.91,11-8.79,19.01-4.9
			c1.36,0.66,5.04-1.53,6.43-3.34c2.17-2.83,3.19-6.51,4.87-9.75c9.48-18.27,18.02-37.13,28.79-54.61
			c10.43-16.92,23.27-32.35,34.83-48.58c6.55-9.21,13.39-18.33,18.84-28.18c12.4-22.42,31.65-34.31,56.19-38.69
			c13.12-2.34,26.24-3.68,39.58-0.96c7.49,1.53,13.77,4.71,18.76,10.29c9.72,10.88,19.47,21.68,22.94,36.64
			c1.16,5,4.38,9.49,6.28,14.37c0.64,1.65,0.1,3.77,0.1,5.67C1113.51,1209.89,1112.75,1210.25,1112,1210.61z"/>
		<path class="st1" d="M995.61,690.19c1.06,5.78,1.38,9.97,2.65,13.83c1.22,3.7,1.31,6.66-0.41,10.41
			c-3.41,7.42-1.76,11.23,5.35,15.76c0.56,0.36,1.16,0.65,1.73,1c12.67,7.72,13.14,14.48,1.53,23.38
			c-9.69,7.42-20.03,11.5-32.48,7.07c-13.43-4.77-27.02-9.08-40.56-13.56c-22.69-7.5-45.42-14.88-68.06-22.52
			c-6.58-2.22-12.98-5.02-19.37-7.78c-10.07-4.35-19.93-9.2-30.12-13.25c-12.24-4.87-25.3-5.39-38.26-5.44
			c-21.97-0.08-43.98-0.46-65.9,0.71c-35.16,1.86-70.27,4.72-103.57,17.86c-10.81,4.27-21.68,8.41-32.72,12.03
			c-7.87,2.58-8.01,2.15-14.85-4.01c0.34-5.42,3.69-8.98,7.86-11.95c28.96-20.7,58.11-41.13,86.81-62.17
			c13.28-9.74,28.02-16.57,43.16-22.05c10.75-3.89,22.65-5.28,34.17-6.25c15.51-1.31,31.19-2.1,46.71-1.4
			c26,1.16,50.11,9.19,71.92,23.67c7.47,4.96,14.84,10.08,22.38,14.94c19,12.25,33.38,29.32,48.09,46.04
			c5.36,6.1,10.86,11.78,19.27,13.34c1.94,0.36,3.95,0.81,5.89,0.65c7.54-0.6,9.95-5.49,5.46-11.5
			c-8.12-10.87-15.65-22.08-26.29-31.03c-13.13-11.06-24.98-23.62-37.77-35.11c-17.3-15.54-36.91-26.61-59.81-32.38
			c-27.2-6.85-54.61-11.21-82.6-10.76c-34.33,0.55-67.17,7.95-97.69,24.09c-14.66,7.75-29.5,15.32-43.38,24.32
			c-9.65,6.26-17.71,14.93-26.64,22.32c-26.1,21.61-52.28,43.11-78.4,64.68c-1.79,1.48-3.66,3.02-4.96,4.9
			c-3.08,4.45-2.13,9.81,2.15,13.28c1.54,1.25,3.43,2.06,4.98,3.3c1.28,1.01,2.3,2.35,3.52,3.62c-0.93,5.81-5.6,8.36-9.63,10.88
			c-13.25,8.27-26.8,16.07-40.19,24.12c-2.19,1.32-4.66,2.58-6.17,4.53c-3.87,4.99-3.14,9.23,2.2,12.53
			c4.51,2.79,9.43,4.9,14.1,7.45c2.22,1.21,4.26,2.75,8.57,5.58c-4.78,1.46-7.31,2.66-9.93,2.96c-13.52,1.51-27.08,2.66-40.6,4.18
			c-17.22,1.93-33.91,6.25-49.97,12.7c-9.01,3.62-17.73,7.96-26.58,11.98c-0.47-0.55-0.94-1.1-1.4-1.65
			c2.25-2.38,4.28-5.02,6.79-7.09c19.1-15.73,40.43-27.86,62.76-38.11c0.81-5.41-2.58-6.82-6.54-8.44
			c-8.88-3.63-17.67-7.55-26.28-11.77c-4.87-2.39-8.71-6.13-9.78-12.14c3.47-5.1,7.87-6.95,14.39-5.57
			c19.03,4.01,38.44,3.12,57.63,2.15c7.18-0.36,14.22-4.93,21.15-7.97c4.08-1.79,5.6-5.5,5.02-9.91c-0.65-4.93-4.25-6.35-8.49-6.85
			c-13.63-1.6-26.51-5.71-39.05-11.15c-6.36-2.76-12.32-6.71-14.39-13.06c-3.75-11.5-12.43-13.98-22.44-14.33
			c-10.44-0.37-20.34-2.66-30.12-6.08c-21.75-7.6-34.73-23.63-43.09-44.25c-5.16-12.72-7.56-26.09-9.38-39.58
			c-0.39-2.89-0.06-5.88-0.06-8.9c5.94-1.36,7.7,2.98,9.88,5.87c4.8,6.36,9.43,12.9,13.62,19.67c8.08,13.04,19.9,22.24,31.63,31.51
			c10.97,8.66,24.24,12.11,37.47,15.44c4.17,1.05,8.46,1.64,12.67,2.53c9.97,2.11,14.99,7.46,16.54,17.43
			c0.46,2.92,0.68,5.99,1.79,8.66c2.78,6.64,7.24,11.04,15.29,10.12c3.29-0.38,6.68-0.31,9.98-0.01c13.03,1.2,25.05-2.22,36.61-7.76
			c16.54-7.93,31.97-17.55,46.24-29.2c37.87-30.92,77.3-59.64,119.81-83.98c25.22-14.44,52.04-23.31,81.32-23.63
			c16.55-0.18,33.16-0.85,49.63,0.27c10.09,0.69,20.15,3.81,29.93,6.79c26.75,8.14,51.96,20.17,77.37,31.64
			c5.75,2.59,11.25,5.85,17.19,7.86c7.27,2.47,9.46,0.62,10.4-7.14c1.27-10.41,9.33-15.88,19.09-11.16
			c13.08,6.34,25.8,13.7,37.82,21.87c10.12,6.87,19.48,15.04,28.34,23.52c9.62,9.2,21.27,11.69,33.66,12.9
			c2.3,0.22,4.73-0.07,6.9,0.57c7.83,2.29,9.1,7.34,4.33,13.96c-5.15,7.15-12.71,9.58-20.6,10.7c-6.18,0.88-12.58,0.26-18.88,0.14
			C1007.35,690.93,1002.76,690.57,995.61,690.19z"/>
		<path class="st1" d="M1551.45,1431.07c-13.31,0-26.63,0.01-39.94,0c-15.56-0.01-29.97,3.67-44.1,10.65
			c-20.45,10.11-41.66,18.67-62.54,27.92c-10.59,4.69-21.13,9.47-31.73,14.12c-6.23,2.74-12.57,3.29-19.46,2.29
			c-7.51-1.09-15.24-0.78-22.88-0.77c-23.42,0.04-46.22-4.88-69.03-9.16c-22.17-4.16-44.25-9.14-65.99-15.13
			c-12.69-3.5-25.71-8-36.69-15.01c-26.24-16.73-54.6-23.35-85.17-23.24c-32.42,0.12-60.85-11.97-87.25-29.65
			c-3.23-2.16-5.76-5.48-8.3-8.52c-4.58-5.49-5.13-11.73-1.17-17.55c11.39-16.73,22.59-33.65,34.96-49.65
			c8.27-10.7,17.88-20.58,29.86-27.49c3.98-2.3,8.23-4.2,12.5-5.93c13.18-5.37,26.46-10.5,39.64-15.87
			c5.21-2.13,10.19-4.82,15.4-6.97c10.98-4.54,19.38-3.11,26.91,5.95c4.38,5.26,7.9,11.58,10.41,17.97
			c5.95,15.14,11.25,30.55,16.46,45.97c4.42,13.09,10.66,24.54,20.85,34.51c6.61,6.47,10.82,15.92,14.54,24.7
			c13.45,31.72,13.67,32.73,46.52,41.5c23.41,6.25,47.3,10.43,71.59,11.58c17.44,0.83,34.4-2.28,51.1-6.98
			c27.84-7.83,54.53-18.9,80.8-30.73c15.36-6.92,29.71-16.26,44.03-25.27c12.97-8.16,25.86-16.3,40.49-21.11
			c3.35-1.1,7.46-2.34,10.55-1.38c17.85,5.59,36.16,5.17,54.42,4.8c16.56-0.33,26.13,7.93,33.13,22.21
			c7.67,15.63-0.13,37.1-19.34,43.32c-4.69,1.52-9.7,2.38-14.62,2.72c-7.63,0.53-15.3,0.41-22.96,0.47
			c-7.66,0.06-15.31,0.01-22.97,0.01C1551.45,1431.26,1551.45,1431.17,1551.45,1431.07z"/>
		<path class="st1" d="M1626.81,2336.6c-0.63,2.85-0.8,5.9-1.97,8.51c-5.73,12.7-11.93,25.19-17.54,37.94
			c-2.53,5.74-6.53,9.47-12.42,10.34c-9.29,1.38-15.43,7.21-21.46,13.49c-7.14,7.43-13.98,15.18-21.5,22.2
			c-18.42,17.21-36.95,34.31-55.83,51.01c-14.93,13.21-30.78,25.42-48.75,34.24c-13.94,6.85-28.22,13.04-43.57,16.46
			c-10.02,2.23-19.7,5.97-29.7,8.33c-9.35,2.21-18.88,3.68-28.39,5.14c-17.37,2.66-34.77,5.23-52.2,7.51
			c-5.58,0.73-11.29,0.48-16.95,0.57c-16.5,0.25-33.07,1.5-49.49,0.39c-20.79-1.4-41.43-4.85-61.45-11.15
			c-2.84-0.9-5.69-1.86-8.6-2.46c-29.41-6.06-55.59-19.15-80.53-35.56c-27.27-17.95-51.99-39.02-76.92-59.91
			c-25.88-21.69-48.81-46.04-67.88-73.96c-1.87-2.74-3.65-5.59-5.09-8.57c-3.05-6.29-0.26-11.27,6.78-11.76
			c8.48-0.59,16.47,2.22,21.27,8.9c15.11,21,37.17,32.53,58.31,45.74c15.13,9.46,31.85,14.7,47.86,21.79
			c26.88,11.89,55.38,18.56,84.01,24.31c21.08,4.24,42.37,7.95,63.75,9.99c30.34,2.9,60.67,8.17,91.33,4.62
			c14.83-1.72,29.57-4.21,44.36-6.32c18.72-2.66,37.57-4.63,56.13-8.14c12.3-2.32,24.14-6.95,36.26-10.32
			c20.21-5.63,39.3-14.1,57.58-24.12c17.16-9.41,33.24-20.75,50.33-30.29c13.51-7.55,25.97-17.02,40.99-22.01
			c5.78-1.92,10.76-6.43,15.88-10.06c6.23-4.42,12.14-9.29,18.38-13.69c2.06-1.45,4.73-2.01,7.13-2.97L1626.81,2336.6z"/>
		<path class="st1" d="M533.3,409.43c3.58-7.28,9.42-9.3,14.71-11.58c14.88-6.42,30.14-11.98,44.88-18.68
			c24.67-11.21,50.71-14.84,77.43-16.1c23.91-1.14,47.74-0.88,71.02,4.91c18,4.48,35.61,10.52,53.39,15.89
			c10.14,3.07,20.28,6.15,30.39,9.31c13.79,4.31,25.77,12.16,38.03,19.48c23.63,14.1,47.53,27.78,70.88,42.32
			c22.59,14.07,44.15,29.74,63.78,47.76c21.04,19.32,41.75,39.02,61.95,59.22c20.64,20.63,40.2,42.35,60.8,63.02
			c9.32,9.36,19.26,18.49,30.26,25.69c14.99,9.81,31.58,17.9,49.49,19.87c24.58,2.7,46.54-4.41,63.75-23.52
			c4.14-4.6,9.37-8.35,14.51-11.9c4.55-3.14,8.42-2.28,12.51,1.65c6.06,5.81,7.72,12.78,4.02,20.99
			c-5.66,12.57-13.3,23.86-24.64,32.03c-14.06,10.13-28.99,18.84-45.12,25.28c-4.58,1.83-9.51,3.34-14.39,3.77
			c-32.22,2.85-63.39-0.6-90.29-20.31c-20.06-14.7-39.47-30.35-57.02-48.18c-20.01-20.33-39.61-41.18-60.9-60.1
			c-25.31-22.49-52.04-43.4-78.5-64.56c-20.22-16.17-40.95-31.69-61.51-47.43c-13.43-10.28-26.88-20.54-40.47-30.62
			c-16.65-12.36-35.64-20.59-54.21-29.35c-13.15-6.2-27.15-10.8-41.1-15.05c-9.44-2.88-19.41-4.14-29.22-5.72
			c-16.36-2.63-32.73-5.37-49.18-7.26c-21.32-2.45-42.38-0.76-63.13,5.29C568.59,400.48,551.51,404.62,533.3,409.43z"/>
		<path class="st1" d="M1275.49,1011.24c2.14-4.81,4.46-7.55,9.08-8.06c27.92-3.05,55.63-3.36,82.52,6.42
			c17.66,6.42,31.42,18.64,43.9,31.96c11.32,12.08,21,25.69,31.68,38.39c7.38,8.77,10.81,19.01,12.02,30.06
			c3.79,34.68,9.94,68.93,17.07,103.07c1.81,8.64,1.54,17.95,0.8,26.84c-2.09,25.27-8.29,49.48-18.34,72.96
			c-4.92,11.49-10.35,22.16-18.51,31.56c-14.04,16.16-29.74,30.49-48.32,41.13c-11.44,6.55-23.41,12.59-35.79,17.02
			c-15,5.36-31.03,3.61-46.49,1.93c-25.31-2.75-49.38-10.24-71.5-23.14c-6.86-4-13.36-8.67-19.78-13.37
			c-2.63-1.93-4.97-4.51-6.76-7.24c-2.74-4.17-5.5-8.76-2.33-13.88c3.43-5.52,8.55-8.37,15.16-7.6c3.95,0.46,7.91,1.21,11.74,2.29
			c21.52,6.06,41.94,2.9,62.08-6.13c16.92-7.58,34.43-13.85,51.38-21.39c15.52-6.91,29.85-15.67,42.31-27.66
			c11.87-11.41,21.77-23.84,29.43-38.48c4.89-9.34,12.28-17.34,17.95-26.32c5.3-8.38,10.22-17.07,14.57-25.98
			c4.46-9.12,3.59-17.76-3.68-25.76c-3.22-3.55-5.59-8.35-6.98-12.99c-8.05-26.85-21.98-50.17-39.83-71.7
			c-15.12-18.24-32.15-33.68-53.71-43.52c-14.79-6.75-30.03-12.54-45.1-18.66c-4.91-1.99-10.07-3.38-14.87-5.58
			C1281.72,1015.79,1278.67,1013.3,1275.49,1011.24z"/>
		<path class="st1" d="M1423.71,2570.42c4.53-7.81,10.65-11.82,17.3-14.46c16.9-6.72,34.1-12.69,51.09-19.21
			c17.6-6.75,35.11-13.73,52.61-20.73c12.02-4.81,23.99-9.72,35.91-14.76c26.62-11.26,51.76-24.99,74.81-42.66
			c13.96-10.71,28.84-20.22,43.33-30.23c38.57-26.66,77.57-52.73,115.59-80.15c25.32-18.26,49.69-37.93,73.61-58.02
			c10.31-8.66,18.33-20.05,27.53-30.07c2.22-2.42,4.79-4.65,7.54-6.42c7.31-4.68,14.18-1.09,14.02,7.6
			c-0.08,4.55-0.89,9.53-2.92,13.53c-8.99,17.74-17.81,35.63-28.06,52.64c-13.34,22.14-31.35,40.24-52.13,55.68
			c-15.97,11.86-31.46,24.36-47.27,36.44c-14.54,11.11-29.33,21.62-46.46,28.81c-14.96,6.28-29.03,14.64-43.73,21.6
			c-16.45,7.79-33.11,15.14-49.76,22.51c-18.78,8.31-37.59,16.57-56.49,24.59c-13.12,5.57-26.46,10.61-39.62,16.08
			c-15.29,6.35-30.28,13.48-45.78,19.22c-12.38,4.58-25.28,7.82-38.07,11.22c-8,2.13-16.16,3.88-24.36,5.01
			c-11.15,1.53-22.4,2.33-33.62,3.32C1427.63,2572.08,1426.4,2571.28,1423.71,2570.42z"/>
		<path class="st1" d="M2332.16,1753.89c-2.03-2.75-4.78-5.26-5.98-8.36c-2.87-7.42-6.34-14.98-7.18-22.74
			c-1.98-18.39-10.53-33.56-21.33-47.64c-9.9-12.91-20-25.82-31.3-37.48c-21.92-22.63-43.25-46.24-70.52-62.71
			c-23.25-14.04-46.98-27.39-72.23-37.67c-19.69-8.02-39.31-16.32-59.37-23.28c-13.09-4.54-26.89-7.16-40.46-10.21
			c-16.05-3.6-32.18-6.86-48.33-10.04c-21.06-4.15-42.3-7.45-63.2-12.25c-36.63-8.42-69.19-26.53-101.67-44.61
			c-12.49-6.95-24.88-14.09-37.21-21.32c-7.25-4.25-13.65-9.55-17.64-17.19c-3.84-7.37-3.26-11.35,3.19-17.46
			c8.67,6,17.85,11.83,26.44,18.43c13.72,10.54,27.4,20.94,43.27,28.27c15.53,7.17,31.47,12.69,48.55,13.76
			c18.19,1.15,36.44,1.61,54.67,2.06c35.06,0.88,69.25,5.61,102.23,18.62c20.65,8.14,42.15,14.13,63.22,21.24
			c21.18,7.15,41.49,16.2,60.27,28.47c18.01,11.77,35.94,23.62,54.86,34c14.24,7.81,26.37,18.38,36.94,31.27
			c25.39,30.94,47.42,64.12,68.26,98.14c9.9,16.17,19.01,32.85,21.27,52.2c0.58,4.92,0.95,9.88,1.14,14.84
			C2340.24,1747.32,2338,1751.11,2332.16,1753.89z"/>
		<path class="st1" d="M1774.45,2462.18c-1.27-5.09-0.58-9.12,3.48-11.97c5.96-4.19,11.65-9.03,18.16-12.11
			c11.63-5.49,23.09-11.3,35.24-15.93c12.08-4.61,22.89-12.9,33.72-20.36c24.63-16.97,48.73-34.71,73.45-51.54
			c11.18-7.61,20.03-17.36,28.77-27.31c18.41-20.94,35.71-42.98,57.07-61.05c12.13-10.26,25.48-19.1,38.4-28.41
			c23.73-17.12,48.07-33.45,71.15-51.41c16.45-12.8,31.38-27.57,46.74-41.73c16.1-14.84,32.43-29.5,47.69-45.18
			c12.24-12.58,23.99-25.62,37.6-36.77c3.25-2.66,6.81-4.92,9.85-7.1c5.47,2.85,5.6,6.6,4.35,10.75c-0.28,0.93-0.84,1.83-1.46,2.58
			c-12.17,14.89-22.58,31.19-36.62,44.59c-6.44,6.15-12.6,12.77-17.85,19.94c-14.39,19.64-29.86,38.06-48.5,54
			c-11.54,9.87-21.05,22.1-31.59,33.15c-17.63,18.48-35.38,36.85-53.03,55.31c-5.27,5.52-10.05,11.55-15.64,16.71
			c-9.86,9.08-19.37,18.87-30.45,26.22c-37.04,24.57-74.75,48.12-112.12,72.19c-21.24,13.68-42.18,27.81-63.51,41.34
			c-13.17,8.36-26.53,16.4-41.97,20.39c-5.99,1.55-11.43,5.16-17.16,7.74C1798.85,2461.35,1787.11,2464.22,1774.45,2462.18z"/>
		<path class="st1" d="M447.35,2145.79c5.77,1.97,10.24,5.66,13.5,10.95c5.8,9.44,13.39,17.06,21.8,24.38
			c39.91,34.75,81.39,67.53,123.33,99.74c5,3.84,9.9,7.89,14.41,12.28c22.58,22,49.43,38.19,75.13,55.99
			c9.26,6.41,18.06,13.48,27.14,20.16c2.39,1.76,4.95,3.32,7.53,4.81c24.1,13.91,48.15,27.91,72.36,41.61
			c8.09,4.58,16.82,8.04,24.92,12.62c24.52,13.87,48.84,28.08,73.3,42.07c16.42,9.39,32.69,19.1,49.51,27.73
			c9.06,4.65,18.96,7.92,28.79,10.78c12.31,3.58,19.44,9.35,22.23,20.22c-3.91,5.78-9.31,6.42-16.24,6.17
			c-17.71-0.64-32.33-9.8-47.79-16.28c-28.73-12.05-57.2-24.78-85.25-38.33c-19.11-9.23-37.35-20.27-55.93-30.58
			c-15.66-8.69-31.53-17.02-46.79-26.36c-18.98-11.62-37.91-23.43-55.97-36.39c-23.23-16.66-46.01-34.01-68.18-52.05
			c-20.04-16.31-39.01-33.94-58.42-51.03c-11.2-9.86-22.45-19.66-33.47-29.72c-9.08-8.29-17.92-16.85-26.74-25.42
			c-14.05-13.65-28.39-27.04-41.84-41.27c-7.47-7.9-13.76-17.02-19.88-26.07C439.9,2154.61,440.84,2151.24,447.35,2145.79z"/>
		<path class="st1" d="M1807.89,832.83c6.62-6.68,13.69-6.09,20.38-4.42c10.93,2.74,21.87,5.74,32.4,9.72
			c25.94,9.8,52.47,10.67,79.52,6.98c20.65-2.81,41.38-5.1,61.99-8.18c12.45-1.86,24.43-5.25,35.99-10.91
			c23.31-11.4,47.58-20.27,73.8-22.46c12.53-1.04,25.01-3.11,37.55-3.39c7.5-0.17,15.17,1.71,22.55,3.52
			c19.63,4.83,39.22,9.83,58.66,15.37c10.68,3.04,19.73,9.27,27.63,17.17c11.58,11.57,24.69,20.9,39.45,28.26
			c10.02,4.99,19.18,11.74,28.54,17.99c9.4,6.28,18.46,13.06,27.85,19.35c14.06,9.41,25.1,21.66,34.02,35.85
			c7.76,12.34,15.26,24.86,22.56,37.47c1.86,3.2,5.77,7.62,2.05,10.7c-4.6,3.81-7.93-2.02-10.38-4.65
			c-4.94-5.32-9.24-11.41-12.91-17.71c-13.42-22.99-33.65-38.53-56.55-50.44c-21.14-11-43.38-19.88-64.89-30.19
			c-15.27-7.31-30.15-15.43-45.19-23.23c-8.55-4.44-17.29-8.57-25.51-13.56c-11.61-7.04-24.57-8.66-37.37-8.39
			c-19.5,0.42-38.99,2.47-58.44,4.32c-11.86,1.13-23.72,2.73-35.42,4.98c-7.09,1.36-14.22,3.62-20.7,6.76
			c-17.17,8.31-34.69,13.8-53.98,15.86c-30.59,3.27-61,2.63-91.33-0.41c-21.07-2.12-42.01-6.52-61.51-15.46
			c-7.82-3.58-15.27-8.07-22.55-12.68C1812.99,839.08,1810.73,835.74,1807.89,832.83z"/>
		<path class="st1" d="M1362.86,789.61c12.43,10.22,24.18,19.23,35.18,29.08c13.84,12.38,28.28,24.35,37.32,41.14
			c1.78,3.31,3.47,6.67,5.2,10.01c-0.64,0.63-1.28,1.27-1.92,1.9c-2.75-1.43-5.5-2.88-8.26-4.29
			c-11.54-5.88-23.06-11.79-34.64-17.59c-2.06-1.03-4.32-1.77-6.57-2.3c-6.83-1.61-11.77,1.91-11.07,8.69
			c1.56,15.2,3.64,30.35,5.79,45.48c0.41,2.88,2.32,5.51,3.17,8.37c0.83,2.82,2.2,6.03,1.56,8.64c-2.58,10.64,1.23,20.34,3.61,30.24
			c3.33,13.88,7.5,27.46,13.96,40.31c3.9,7.75,2.26,9.68-6.59,10.15c-5.44,0.29-10.45-0.09-14.98-3.84
			c-16.1-13.34-30.37-28.05-35.78-49.04c-2.96-11.48-5.26-23.16-7.37-34.83c-1.38-7.66-4.89-11.54-12.74-10.56
			c-8.85,1.11-17.57,3.34-26.33,5.16c-10.34,2.15-20.62,4.57-31,6.49c-4.5,0.83-8.5-0.86-11.64-5.05
			c1.67-10.67,10.04-16.14,18.43-20.37c13.88-7,28.42-12.73,42.81-18.69c2.97-1.23,6.5-1.06,9.76-1.64c2.23-0.4,4.7-0.51,6.59-1.57
			c6.88-3.87,11.88-23.61,7.19-29.71c-1.71-2.23-5.61-4.26-8.28-4c-8.19,0.78-16.38,2.3-24.37,4.3
			c-14.14,3.54-28.19,7.48-42.18,11.57c-10.16,2.97-20.23,6.28-30.19,9.84c-4.12,1.47-7.5,2.18-10.83-1.47
			c-3.41-3.74-3.62-7.43-1.25-11.81c4.77-8.82,9.79-17.33,17.81-23.78c11.9-9.57,23.08-20.52,38.04-24.92
			c8.03-2.36,16.87-2.73,25.33-2.62c10.6,0.14,21.2,1.59,31.78,2.69C1348.94,796.47,1356.95,795.63,1362.86,789.61z"/>
		<path class="st1" d="M1215.95,2412.96c3.66-5.19,9.55-6.6,15.25-8.05c14.93-3.8,30.17-4.42,45.5-4.24
			c2.87,0.04,6.38,0.14,8.53-1.34c22.51-15.51,48.39-21.54,74.6-25.86c21.01-3.46,39.55-12.82,58.79-20.81
			c22.8-9.47,40.43-26.39,60.17-40.3c13.07-9.21,25.87-18.58,36.88-30.34c3.3-3.52,7.07-8.49,13.6-5.19
			c6.52,3.29,9.48,8.49,9.31,16.05c-0.35,15.16-5.71,27.88-15.67,39.55c-11.88,13.91-22.91,28.53-37.45,39.86
			c-19.75,15.38-41.87,26.45-65.58,34.18c-14.77,4.82-29.81,8.86-44.84,12.84c-5.39,1.43-11.19,1.26-16.65,2.5
			c-24.03,5.45-48.27,8.27-72.95,6.97c-7.86-0.41-15.79-0.21-23.65,0.29c-12.3,0.79-23.45-4.05-35.02-6.71
			C1222.13,2421.31,1217.07,2419.36,1215.95,2412.96z"/>
		<path class="st1" d="M636.97,1839.48c15.67,0.17,24.38,8.47,30.71,21.18c12,24.09,24.94,47.71,36.58,71.97
			c16.47,34.33,40.54,63.98,58.73,97.2c13.31,24.31,28.95,46.97,45.6,69.03c4.19,5.55,7.51,11.74,11.2,17.66
			c2.35,3.76,2.98,7.52-0.85,10.73c-3.59,3-6.94,1.49-9.8-1.2c-7.25-6.81-14.56-13.58-21.49-20.71
			c-10.87-11.19-21.78-22.36-32.05-34.08c-12.03-13.73-24.35-27.37-34.87-42.23c-22.66-32.01-44.54-64.57-66.13-97.32
			c-9.22-13.99-20.28-26.18-31.61-38.34c-5.38-5.77-10.55-12.08-14.22-19c-4.93-9.32,0.98-23.58,11.69-29.28
			C625.53,1842.39,631.44,1841.3,636.97,1839.48z"/>
		<path class="st1" d="M2076.01,1584.49c4.29,4.55,7.89,7.46,10.35,11.13c10.71,15.99,22.32,31.56,31.23,48.52
			c8.51,16.22,11.98,34.01,9.45,53.04c-5.71,42.94-16.83,84.63-27.77,126.36c-5.51,21.02-15.92,40.15-25.97,59.25
			c-10.06,19.11-21.02,37.75-32,56.36c-2.97,5.04-6.95,9.75-11.34,13.63c-4.47,3.96-9.08,3.34-12.5-0.14
			c-3.7-3.76-3.67-7.21,0.34-12.36c18.08-23.2,29.01-49.65,36.08-77.99c3.45-13.84,8.21-27.35,11.74-41.17
			c2.87-11.21,6.05-22.57,6.88-34.02c1.75-23.92,6.45-47.23,11.13-70.66c3.37-16.87,5-34.13,6.75-51.28
			c1.48-14.52-3.18-28.24-6.87-42.06C2080.32,1611.09,2076.1,1599.25,2076.01,1584.49z"/>
		<path class="st1" d="M2359.1,1867.12c-6.62-3.12-6.73-6.47-4.96-11.39c5.25-14.66,10.28-29.41,14.67-44.34
			c3.84-13.02,7.24-26.22,9.87-39.53c4.4-22.23,4.76-44.82,4.48-67.41c-0.18-14.3,0.37-28.65-0.76-42.87
			c-1.15-14.51-3.92-28.89-6.04-43.31c-1.74-11.81-3.69-23.59-5.36-35.41c-3.58-25.29-6.96-50.6-10.61-75.88
			c-0.51-3.54-1.95-6.98-3.16-10.39c-1.16-3.26-2.38-6.79,1.34-8.79c3.58-1.92,6.52,0.69,8.44,3.41c4.2,5.96,8.51,11.94,11.88,18.38
			c16.52,31.61,28.89,64.83,36.17,99.75c2.83,13.57,3.75,27.52,2.34,41.55c-1.05,10.45-0.89,21.01-1.48,31.51
			c-1.79,32.21-5.48,64.03-15.42,95.01c-8.73,27.17-19.4,53.41-33.06,78.43C2365.27,1859.77,2362.06,1863.14,2359.1,1867.12z"/>
		<path class="st1" d="M1649.93,1432.72c3.13-2.5,5.37-4.99,8.16-6.37c6.4-3.18,10.12-8.34,12.76-14.71
			c6.16-14.85,9.62-30.38,11.71-46.24c1.13-8.53,2.4-17.13,2.37-25.69c-0.06-21.66-11.05-38.46-25.07-53.82
			c-8.71-9.54-18.04-18.75-25.31-29.33c-9.18-13.37-16.59-27.96-24.66-42.08c-3.79-6.63-7.71-13.22-10.93-20.12
			c-5.66-12.14-16.29-14.96-27.97-15.01c-13.5-0.06-26.14,3.63-37.4,11.42c-1.89,1.31-3.93,2.62-6.1,3.26
			c-4.58,1.35-7.94-2.01-6.88-6.56c0.08-0.32,0.07-0.73,0.26-0.95c8.76-10.04,14.49-23.53,29.58-26.4
			c6.52-1.24,13.06-2.48,19.65-3.15c8.06-0.83,15,2.63,21.06,7.46c7.27,5.79,13.98,12.27,21.18,18.15
			c6.97,5.68,10.53,13.64,14.58,21.19c6.29,11.75,13.41,22.51,22.76,32.4c10.86,11.48,19.3,25.31,28.41,38.38
			c7.79,11.17,15.04,22.73,22.56,34.09c10.63,16.06,15.61,33.56,13.99,52.9c-0.94,11.23-0.45,22.66-2.34,33.69
			c-3.2,18.63-14,32.93-29.56,43.26C1672.37,1445.39,1660.62,1443.27,1649.93,1432.72z"/>
		<path class="st1" d="M1399.31,1501.07c-1.81,2.26-3.2,5.08-5.46,6.63c-12.78,8.74-25.54,17.55-38.78,25.55
			c-5.56,3.36-12.11,5.75-18.51,6.9c-13.04,2.34-26.27,3.63-39.45,5.16c-6.24,0.72-12.54,1.02-18.81,1.43
			c-16.68,1.09-32.27-3.46-47.34-9.88c-11.59-4.94-23.04-10.27-34.26-16c-16.12-8.23-27.87-21.25-37.63-36.21
			c-1.08-1.66-1.87-3.53-2.65-5.36c-0.38-0.87-0.43-1.88-0.97-4.41c4.74,1.33,8.89,1.96,12.55,3.63c8.35,3.83,17.07,4.69,26.1,5.55
			c10.46,0.99,21,3.06,31,6.25c11.52,3.68,22.86,6.02,35.05,6.16c15.9,0.18,31.77,2.22,47.68,3.07c12.93,0.69,25.9,1.19,38.84,0.99
			c4.41-0.07,9.03-2.01,13.09-4.02c4.04-2,7.81-3.14,12.37-2.52c4.92,0.66,9.94,0.57,14.92,0.83
			C1391.41,1495.06,1395.8,1495.2,1399.31,1501.07z"/>
		<path class="st1" d="M1099.5,324.01c3.82-5.49,7.83-5.43,12.15-3.5c8.75,3.91,17.53,7.77,26.19,11.9
			c13,6.19,19.37,18.67,27.32,29.56c4.69,6.44,8.83,13.27,13.19,19.95c8.2,12.57,18.25,23.4,29.19,33.7
			c17.33,16.32,30.65,35.34,37.47,58.79c3.96,13.62,0.99,26.08-1.5,39.14c-2.44,12.8-10.37,19.52-21.88,23.18
			c-10.48,3.34-18.43-1.69-20.09-12.76c-0.64-4.25-0.14-8.66-0.73-12.92c-1.26-9.15-1.84-18.59-4.59-27.31
			c-5.99-18.97-12.83-37.69-19.93-56.27c-8.94-23.38-20.93-45.16-36.72-64.68c-10.24-12.67-21.47-24.38-35.08-33.59
			C1102.67,327.98,1101.36,325.98,1099.5,324.01z"/>
		<path class="st1" d="M1897.25,232.76c-8.35,1.4-16.67,3.08-25.06,4.15c-20.38,2.6-40.8,4.93-61.21,7.35
			c-7.89,0.93-15.77,2.07-23.69,2.66c-17.8,1.32-34.08,7.93-50.58,13.9c-27.09,9.8-51.06,25.08-74.37,41.64
			c-7.81,5.54-16.17,10.31-24.03,15.28c-5.52-3.28-4.39-7.51-2.67-10.92c2.98-5.88,5.96-12.11,10.38-16.86
			c18.33-19.72,38.05-38.08,59.9-53.82c20.37-14.68,43.27-22.25,68.79-22.98c27.54-0.8,54.87,1.07,82.03,4.62
			c13.94,1.82,27.74,6.03,40.61,12.22C1897.32,230.91,1897.29,231.84,1897.25,232.76z"/>
		<path class="st1" d="M939.7,784.2c-3.34,2.31-5.19,4.37-7.44,4.97c-4.45,1.19-9.1,2.06-13.68,2.19
			c-25.24,0.69-50.49,0.88-75.72,1.71c-22.6,0.74-44.79,4.74-66.93,9.24c-21.86,4.44-43.86,5.23-66,1.16
			c-14.63-2.68-29.47-4.25-44.18-6.52c-7.54-1.16-10.32-2.85-16.25-8.66c0.77-4.15,3.95-4.53,7.39-4.69
			c17.89-0.86,35.82-1.25,53.64-2.82c17.81-1.56,35.63-3.65,53.23-6.73c23.15-4.05,45.95-10.16,69.16-13.71
			c16.35-2.5,33.12-2.31,49.71-3.09c2.55-0.12,5.34,0.57,7.69,1.62c13.31,5.93,26.58,11.96,39.72,18.25
			C933.13,778.6,935.68,781.2,939.7,784.2z"/>
		<path class="st1" d="M1355.65,406.64c-8.24-2.35-17.13-3.43-24.59-7.29c-20.99-10.86-40.68-23.53-56.17-42.2
			c-12.84-15.48-20.83-33.09-27.12-51.74c-0.69-2.06,0.79-4.86,1.26-7.31c2.66,0.71,6.22,0.6,7.79,2.31
			c3.55,3.85,6.75,8.31,8.98,13.05c6.18,13.14,17.46,20.55,29.3,27.49c6.85,4.01,13.74,7.95,20.57,12
			c11.29,6.7,23.39,11.04,36.47,12.26c18.65,1.74,37.21,0.2,55.68-2.44c9.11-1.3,18.43-1.28,26.95-6.13
			c4.98-2.84,10.57,2.47,8.98,8.51c-0.95,3.59-3.11,7.31-5.76,9.92c-8.47,8.32-19.27,13.08-30.23,16.83
			c-14.39,4.91-29.14,8.75-43.8,12.85c-2.5,0.7-5.28,0.41-7.93,0.58C1355.89,405.75,1355.77,406.19,1355.65,406.64z"/>
		<path class="st1" d="M2481.13,872.88c-2.53-3.14-4.94-6.13-7.35-9.11c-9.62-11.85-19.1-23.83-28.92-35.52
			c-7.72-9.2-18.11-14.72-29.25-18.32c-24.31-7.85-48.95-14.57-74.25-18.49c-2.62-0.41-5.3-0.43-7.95-0.55
			c-9.6-0.46-19.2-1.22-28.79-1.22c-8.94,0-17.88,1.29-26.81,1.15c-10.93-0.18-21.87-0.93-32.75-2.04
			c-15.02-1.53-26.87-10.37-39.36-18.82c1.67-0.32,3.38-1.05,5-0.89c3.62,0.37,7.2,1.19,10.8,1.8c9.35,1.59,18.44,0.86,27.39-2.54
			c15.42-5.85,31.22-8.01,47.77-5.77c8.51,1.15,17.28,0.67,25.92,0.44c20.39-0.55,39.86,4.62,57.81,12.95
			c35.46,16.44,67.39,38.6,95.27,66.25c2.82,2.8,5.46,5.83,7.82,9.03C2489.68,859.65,2489.33,863.05,2481.13,872.88z"/>
		<path class="st1" d="M2083.87,784.51c-6.82,6.13-13.1,5.54-18.78,6.25c-16.47,2.06-32.84,1.15-49.25-1.72
			c-17.9-3.13-36.02-4.95-53.99-7.75c-16.32-2.55-32.51-5.96-48.84-8.4c-12.1-1.81-24.33-3.46-36.53-3.78
			c-18.6-0.48-37.26-0.31-55.85,0.64c-18.5,0.95-36.93,3.29-55.41,4.84c-4.41,0.37-8.87,0.06-15.23,0.06
			c2.21-3.84,2.93-6.64,4.73-7.94c7.74-5.58,15.96-10.5,23.71-16.08c12.49-9.01,27.31-7.63,41.2-8.63
			c16.14-1.15,32.48,0.8,48.74,0.82c17.81,0.02,34.94,3.74,51.78,8.8c14.59,4.38,28.93,9.62,43.29,14.74
			c14.59,5.2,28.86,11.44,43.69,15.82c8.39,2.48,17.64,3.02,26.46,2.83c13.83-0.3,27.63-2.07,41.45-2.92
			C2077.35,781.96,2079.74,783.33,2083.87,784.51z"/>
		<path class="st1" d="M1316.77,219.12c1.01-9.55,1.67-19.15,3.13-28.63c1.09-7.07,4.91-13.06,10.13-17.97
			c3.87-3.64,7.73-7.38,12.03-10.47c9.97-7.16,15.83-16.96,18.83-28.54c2.92-11.23,5.31-22.6,7.93-33.91
			c0.15-0.65,0.2-1.32,0.36-1.97c0.88-3.69,2.17-7.72,6.46-7.81c4.96-0.1,6.29,4.44,6.95,8.36c2.26,13.41,4.27,26.87,6.29,40.32
			c1.32,8.78,0.23,17.37-3.67,25.31c-3.66,7.45-7.38,14.99-12.13,21.74c-10.55,15.03-19.83,30.71-27.71,47.29
			c-2.67,5.62-6.16,11.11-10.34,15.68c-4.22,4.61-7.37,3.7-11.7-0.87c-4.19-4.42-5.38-9.83-5.73-15.52
			c-0.27-4.31-0.05-8.64-0.05-12.96C1317.29,219.17,1317.03,219.14,1316.77,219.12z"/>
		<path class="st1" d="M1240.32,769.44c3.28-3.25,6.2-6.79,9.74-9.54c9.66-7.52,19.83-14.39,29.32-22.1
			c16.29-13.24,34.88-14.73,54.53-11.74c2.94,0.45,5.84,1.22,8.79,1.57c18.08,2.14,31.21,13.66,44.96,23.88
			c2.5,1.86,4.28,5.09,5.63,8.03c4.41,9.56-0.44,17.32-10.88,18.09c-5.85,0.43-11.68,1.16-18.56,1.85
			c-7.6-6.83-18.63-8.47-29.34-9.67c-13.8-1.55-27.78-1.66-41.69-2.1c-13.38-0.42-26.27,1.66-38.74,7.04
			C1246.87,777.85,1245.65,777.23,1240.32,769.44z"/>
		<path class="st1" d="M71.82,1525.39c-4.4-4-5.29-8.46-5.83-13.04c-2.25-18.76-4.71-37.52-3.44-56.49
			c1.13-16.86,2.06-33.74,3.62-50.56c3.19-34.41,7.48-68.68,13.99-102.65c2.81-14.67,4.43-29.68,8.59-43.95
			c5.39-18.46,11.53-36.91,19.6-54.33c13.01-28.08,29.61-54.19,50.15-77.55c2.53-2.87,6.07-4.85,8.72-6.9
			c4.63,1.73,5.22,4.46,3.73,7.57c-1.28,2.67-2.66,5.57-4.78,7.51c-14.99,13.8-23.71,31.75-33.63,49.04
			c-15.71,27.4-26.34,56.59-33.08,87.29c-6.47,29.47-13.38,58.88-18.59,88.59c-3.25,18.57-3.85,37.61-5.39,56.47
			c-2.06,25.18-0.24,50.34,0.43,75.51c0.24,8.92-0.73,17.88-1.44,26.79C74.29,1520.76,72.9,1522.73,71.82,1525.39z"/>
		<path class="st1" d="M257.97,1489.06c0.7,1.98,1.28,2.79,1.07,3.16c-9.27,16.73-14.75,35.42-28.63,49.78
			c-11.25,11.64-21.79,24.2-27.45,39.99c-3.52,9.81-5.48,19.68-5.77,30.16c-0.21,7.85-1.28,16.05-3.93,23.37
			c-3.59,9.92-5.14,20.07-5.03,30.25c0.17,14.89,1.73,29.77,2.89,44.65c1.41,18.14,3.03,36.26,4.51,54.4
			c0.12,1.44-0.11,2.9-1.66,4.63c-0.64-1.33-1.45-2.59-1.88-3.98c-7.49-24.06-16.12-47.93-17.49-73.36
			c-0.67-12.56-0.29-25.28,0.89-37.8c1.39-14.8,3.52-29.61,6.56-44.16c1.88-9.01,5.42-17.83,9.32-26.22
			c12.18-26.23,25.1-52.07,42.99-75.05C240.74,1500.7,247.68,1493.44,257.97,1489.06z"/>
		<path class="st1" d="M624.6,1555.39c15.37,0.17,23.84,10.7,22.53,23.86c-0.96,9.68-5.13,16.66-12.87,22.18
			c-8.67,6.18-12.8,14.95-13.09,25.54c-0.09,3.32,0.72,6.89-0.25,9.91c-1.25,3.91-3.45,7.72-6.02,10.95c-2.33,2.92-6,2.95-8.88,0.43
			c-2.43-2.12-4.99-4.52-6.33-7.35c-1.97-4.15-3.21-8.72-4.21-13.23c-2.86-12.94-4.57-26.21-8.4-38.84
			c-3.18-10.49,4.89-25.75,16.23-29.53C610.75,1556.83,618.87,1556.38,624.6,1555.39z"/>
		<path class="st1" d="M585.38,1669.37c8.51,4.64,11.42,10.89,14.16,16.74c4.49,9.57,8.27,19.51,11.7,29.52
			c5.03,14.72,9.48,29.64,14.01,43.95c-8.08,8.3-15.58,15.98-23.86,24.49c0.82-0.06-0.08,0.29-0.42-0.01
			c-11.22-9.62-20.43-20.16-21.81-36.09c-1.96-22.56,1.48-44.82,2.41-67.21C581.71,1677.16,583.89,1673.65,585.38,1669.37z"/>
		<path class="st1" d="M1142.05,94.73c4.95-2.78,7.92-1.12,10.95-0.26c19.53,5.53,35.63,17.46,52.31,28.24
			c2.53,1.64,4.52,4.96,5.56,7.92c4.49,12.77,8.57,25.68,12.7,38.57c0.81,2.51,1.57,5.13,1.74,7.74c0.54,8.19-5.99,13.12-13.64,10.1
			c-9.04-3.56-16.51-9.65-18.95-19.15c-4.47-17.42-15.3-30.59-26.5-43.75C1158.31,114.83,1150.69,105.26,1142.05,94.73z"/>
		<path class="st1" d="M440.26,1794.5c10.58,11.77,22.32,22.4,21.87,41.03c-0.25,10.43,2.84,20.95,4.53,31.41
			c2.11,13.1,4.48,26.15,6.42,39.27c0.68,4.59,0.7,9.42-6,12.53c-2.72-3.13-6.2-6.19-8.52-9.97c-7.5-12.22-13.21-25.3-16.88-39.19
			c-3.39-12.85-6.32-25.82-9.85-38.63c-2.1-7.6-3.01-14.71,0.97-22.16c2.24-4.19,2.93-9.21,4.31-13.86
			C438.16,1794.79,439.21,1794.64,440.26,1794.5z"/>
		<path class="st1" d="M1320.45,1567.56c-5.53,9.87-13.89,15.2-24.29,17.98c-16.45,4.39-32.86,2.3-49.36,0.43
			c-14.43-1.63-28.11-5.34-40.05-13.82c-4.27-3.03-8.08-6.89-11.42-10.93c-1.33-1.61-1.88-5.39-0.87-6.98
			c1.1-1.75,4.39-2.14,6.74-3.07c0.27-0.11,0.66,0.04,0.98,0.11c19.43,4.3,38.89,8.41,58.26,12.98c8.91,2.1,17.45,2.15,26.38-0.16
			c7.3-1.88,14.99-2.45,22.54-3.15C1313.9,1560.52,1317.84,1562.19,1320.45,1567.56z"/>
		<path class="st1" d="M1449.72,98.01c1.38,4.99,2.61,7.5,2.69,10.06c0.42,12.63,1.06,25.28,0.64,37.9
			c-0.49,14.47-5.92,27.07-16.94,36.95c-8.38,7.52-16.04,15.94-26.63,20.6c-5.45,2.4-10.28,2.42-14.02-3.47
			c6.25-10.89,12.79-21.64,18.67-32.73c6.06-11.43,11.34-23.28,17.24-34.81C1436.96,121.59,1439.16,108.78,1449.72,98.01z"/>
		<path class="st1" d="M1248.27,110.85c7.11,5.9,12.23,12.64,14.98,20.3c4.12,11.49,7.99,23.25,7.56,35.85
			c-0.26,7.65,0.2,15.34-0.21,22.98c-0.15,2.89-1.84,5.69-3.19,9.59c-12.3-7.97-21.65-16.41-23.41-29.97
			c-2.42-18.57-0.55-37.18,1.57-55.7C1245.65,113.12,1246.8,112.46,1248.27,110.85z"/>
		<path class="st1" d="M768.8,253.51c1.58-0.13,3.21-0.6,4.72-0.34c17.05,2.95,34.5,3.77,49.66,14.32
			c7.74,5.38,17.47,7.83,26.06,12.09c4.08,2.02,7.77,4.96,11.31,7.88c2.32,1.91,4.29,4.66,2.04,7.8c-2.37,3.3-5.52,4.55-9.5,2.35
			c-5.21-2.88-10.88-5.08-15.7-8.49c-19.13-13.54-40.11-23.1-62.31-30.24c-2.36-0.76-4.51-2.19-6.75-3.31
			C768.48,254.88,768.64,254.2,768.8,253.51z"/>
		<path class="st1" d="M1472.12,142.83c-3.84-3.1-4.19-7.46-2.75-11.05c7.37-18.42,13.63-37.66,31.11-49.77
			c2.08-1.44,4.43-2.48,8.98-4.99c-1.62,4.88-2.18,7.62-3.4,10.04c-7.77,15.4-15.79,30.68-23.49,46.12
			C1480.22,137.88,1477.2,141.41,1472.12,142.83z"/>
		<path class="st2" d="M1792.66,1745.57c4.46,4.89,1.16,8.41-2.22,11.72c-3.85,3.76-9.43,4.65-13.46,2.2
			c-3.82-2.32-6.52-5.47-6.41-10.29C1776.91,1741.74,1784.99,1744.92,1792.66,1745.57z"/>
		<path class="st1" d="M1626.95,2336.76c0.12-0.28,0.2-0.6,0.39-0.82c0.09-0.1,0.4-0.01,0.62,0c-0.38,0.22-0.76,0.44-1.14,0.66
			C1626.81,2336.6,1626.95,2336.76,1626.95,2336.76z"/>
		<path class="st2" d="M1295.61,1999.99c-3.55-0.06-7.09-0.13-10.63-0.19c-0.56-0.06-1.12-0.12-1.69-0.18
			c-23.5-2.17-47.02-4.17-70.49-6.64c-6.23-0.66-12.4-2.47-18.4-4.36c-2.68-0.85-5.56-2.74-7.1-5.01c-1.12-1.64-1.1-6.22-0.04-6.84
			c7.39-4.34,8.06-12.4,10.56-19.01c4.5-11.92,12.09-18.97,24.8-19.88c10.99-0.79,21.95-1.19,32.02,4.87
			c7.32,4.4,12.06,10.02,12.56,19.01c0.53,9.68,4.75,17.13,14.66,20.51c4.32-2.92,7.86-5.91,8.39-11.64
			c1.92-20.75,11.29-25.76,30.48-29.55c21.31-4.21,34.59,7.43,35.11,29.3c0.24,10.05,2.73,15.49,8.51,16.08
			c7.08,0.73,10.37-5.36,13.53-10.08c2.24-3.35,3.15-8.01,3.43-12.16c1.35-19.71,19.85-35.63,39.54-33.78
			c8.88,0.84,14.54,5.6,18.33,13.41c2,4.13,4.15,8.47,7.26,11.73c5.94,6.22,11.18,6.03,17.22,0c2.57-2.56,4.63-5.64,6.74-8.62
			c1.14-1.61,1.8-3.56,2.83-5.26c9.67-15.86,18.55-18.08,33.14-6.84c12.53,9.66,16.57,8.39,25.49-4.66
			c3.75-5.48,7.6-10.96,12.01-15.91c6.75-7.58,13.2-8.75,22.44-4.79c2.74,1.18,5.26,2.87,7.95,4.17c8.64,4.17,15.89,3.18,22.91-3.39
			c2.9-2.71,5.6-5.71,8.03-8.86c4.92-6.39,11.43-8.81,19.23-8.51c6.65,0.25,13.3,0.59,19.95,0.7c8.89,0.14,16.13-3.17,21.56-10.42
			c2.78-3.72,5.8-7.31,9.02-10.66c4.28-4.44,9.62-7.06,15.82-7.75c5.27-0.59,9,1.72,11.52,6.18c2.3,4.08-0.04,7.39-2.67,9.76
			c-4.9,4.4-9.9,9.11-15.7,12.01c-24.06,12.06-48.39,23.6-72.7,35.14c-14.11,6.7-28.27,13.33-42.64,19.45
			c-10.67,4.54-21.44,9.26-32.63,12.07c-24.15,6.06-48.67,10.61-72.88,16.45c-13.87,3.34-27.45,7.89-41.1,12.1
			c-14.37,4.44-28.89,7.84-44.06,7.56c-0.99-0.02-2.15,0.49-2.97,0.14c-11.21-4.77-21.63,2-32.52,2.2
			c-11.27,0.21-22.51,1.53-33.76,2.37C1304.32,2000.13,1299.96,2000.06,1295.61,1999.99z"/>
		<path class="st2" d="M1176.79,1962.22c0.74,2.76,1.32,5.58,2.25,8.28c2.76,8.02-0.13,11.76-8.9,10.74
			c-8.57-1-17.25-1.88-25.58-3.98c-10.92-2.74-21.83-5.95-32.24-10.19c-12.78-5.21-26.02-7.82-39.44-10.29
			c-8.78-1.61-17.5-3.98-25.93-6.93c-7.14-2.49-13.6-7.19-13.2-15.67c0.39-8.26,7.1-12.4,14.08-15.2c3.97-1.59,8.31-2.38,12.55-3.15
			c6.18-1.13,11.77,0.28,16.69,4.42c6.46,5.43,11.7,11.52,14.72,19.68c4.13,11.17,9.62,12.57,18.65,5.04
			c5.1-4.25,9.56-9.24,14.43-13.77c8.25-7.66,12-8.17,22.37-3.29c9.05,4.26,18.08,8.51,24.54,16.65
			C1175.85,1949.71,1178.43,1955.25,1176.79,1962.22z"/>
		<path class="st2" d="M1245.69,1861.47c-13.88-1.87-25.81-2.96-37.52-5.22c-8.81-1.7-17.11-5.3-23.93-11.59
			c-5.82-5.37-9.11-11.79-6.52-19.59c2.55-7.67,7.89-13.52,16.29-14.26c9.84-0.87,19.82-1.11,29.68-0.52
			c9.24,0.56,18.41,2.45,27.58,3.94c14.79,2.41,25.06,16.63,22.69,31.18c-0.88,5.43-4.03,9.37-9,11.03
			C1258.09,1858.72,1250.94,1860.14,1245.69,1861.47z"/>
		<path class="st2" d="M1350.94,1819.11c8.62-0.61,16.24-0.97,23.82-1.72c13.15-1.3,20.77,7.63,23.4,18.45
			c1.58,6.48-3.53,10.11-8.38,13.26c-14.03,9.12-29.63,12.92-46.16,13.46c-4.64,0.15-9.29,0.29-13.93,0.15
			c-7.56-0.23-14.39-2.69-19.86-7.97c-5.31-5.12-10.72-10.54-7.61-18.98c3.08-8.35,8.79-14.23,17.93-15.25
			c8.22-0.92,16.54-0.99,24.82-1.38C1347.3,1819.01,1349.62,1819.11,1350.94,1819.11z"/>
		<path class="st2" d="M1448.36,1849.73c-5.43,0.56-9.87-1.28-13.62-4.95c-2.12-2.08-3.96-4.45-5.99-6.63
			c-11.22-12.05-3.97-22.61,8.29-26.42c12.29-3.82,25-6.44,37.68-8.78c6.77-1.25,13.86-1.19,20.79-1.03
			c9.03,0.21,14.47,5.96,15.16,15.07c1.02,13.51-5.05,22.69-18.28,25.42C1477.83,1845.42,1463.05,1847.34,1448.36,1849.73z"/>
		<path class="st2" d="M1149.92,1819.88c-0.92,9.69-2.49,17.36-9.11,23.05c-3.86,3.32-8.08,4.94-12.83,3.03
			c-14.18-5.7-28.42-11.4-38.97-23.2c-3.85-4.3-6.68-9.03-6.33-15.18c0.4-7.2,4.45-12.05,11.68-12.24
			c13.66-0.35,27.26,0.73,40.26,5.28C1144.95,1804.25,1150.25,1811.98,1149.92,1819.88z"/>
		<path class="st2" d="M1569.79,1831.76c-15.89-0.27-26.75-6.81-31-18.29c-3.19-8.62-0.93-15.42,7.56-18.59
			c14.56-5.44,28.77-12.26,44.61-13.49c2.63-0.2,5.35-0.66,7.91-0.24c4.9,0.8,8.64,5.55,7.47,10.06
			c-3.37,12.93-7.86,25.4-18.89,34.1C1582.13,1829.5,1576.23,1832.4,1569.79,1831.76z"/>
		<path class="st2" d="M1668.43,1765.56c12.73-0.11,17.91,5.96,16.03,17.05c-1.86,10.97-7.25,19.77-16.26,26.34
			c-4.69,3.42-9.7,4.11-14.99,1.69c-11.3-5.18-20.98-11.69-21.17-26c-0.1-7.44,4.1-13.7,11.41-15.16
			C1652.19,1767.72,1661.09,1766.68,1668.43,1765.56z"/>
		<path class="st2" d="M857.78,1759.45c-17.06,1.54-28.85-6.13-37.2-20.34c-1.92-3.26-3.63-6.29-1.03-10.1
			c2.47-3.62,5.67-5.75,9.99-5.39c3.28,0.27,6.62,0.95,9.74,2.03c10.05,3.47,20.05,7.07,29.97,10.89c3.38,1.3,6.84,2.96,9.53,5.3
			c2.28,1.99,4.9,5.22,4.86,7.85c-0.07,4.24-3.82,6.9-8.08,7.58C869.67,1758.22,863.71,1758.74,857.78,1759.45z"/>
		<path class="st2" d="M1010.91,1918.53c-0.06,8.83-7.32,14.26-15.25,10.89c-7.6-3.23-15.14-6.77-22.25-10.96
			c-8.27-4.88-11.04-11.74-8.36-17.92c4.13-9.52,11.89-13.22,21.83-10.39C1000.75,1894.09,1011,1906.19,1010.91,1918.53z"/>
		<path class="st2" d="M1016.17,1781.2c10.82,0.51,20.83,3.86,30.05,9.28c9.35,5.5,10.17,12.47,2.36,20.07
			c-3,2.92-6.76,5.24-10.51,7.17c-5.48,2.81-11.02,2.47-15.48-2.22c-5.45-5.74-10.83-11.58-15.83-17.7
			c-2.45-2.99-4.69-6.56-2.21-10.87C1007.02,1782.64,1010.47,1780.86,1016.17,1781.2z"/>
		<path class="st2" d="M954.69,1791.5c-14.68-0.08-25.25-7.07-32.49-19.42c-4.35-7.42-1.89-14.05,6.41-15.98
			c4.03-0.94,8.96-1.24,12.66,0.23c7.91,3.14,15.58,7.17,22.78,11.74c4.4,2.79,8.21,7.13,6.1,13.36
			C968.08,1787.49,961.27,1791.84,954.69,1791.5z"/>
		<path class="st2" d="M1733.21,1786.09c-9.71-0.33-19-9.25-19.64-16.83c-0.49-5.86,5.09-12.37,12.93-14.36
			c4.79-1.21,9.77-1.75,14.69-2.38c5.48-0.7,9.77,1.89,12.71,6.11c3.03,4.35,0.12,8.45-2.26,11.91c-2.8,4.07-6.02,8.04-9.78,11.19
			C1738.99,1784.15,1734.99,1785.24,1733.21,1786.09z"/>
		<path class="st3" d="M916.68,1867.1c2.23,0.47,4.91,0.71,7.35,1.6c4.72,1.72,7.77,6.19,6.98,9.62c-0.88,3.82-7.19,8.61-11.33,7.8
			c-4.15-0.81-8.26-2.3-12.09-4.11c-2.96-1.4-5.91-3.68-4.99-7.67c0.91-3.95,3.95-6.02,7.77-6.78
			C912.29,1867.17,914.31,1867.26,916.68,1867.1z"/>
		<path class="st3" d="M757.53,1699.27c7.15-0.11,16.34,6.8,17.3,12.2c0.3,1.65-0.4,4.63-1.52,5.17c-2.76,1.34-6.49,2.89-9,2.02
			c-3.89-1.36-7.55-4.24-10.42-7.32c-1.66-1.79-2.78-5.69-1.95-7.76C752.86,1701.33,756.32,1700.13,757.53,1699.27z"/>
		<path class="st3" d="M866.6,1849.11c-0.69,5.11-2.98,9.11-6.7,8.12c-3.98-1.06-7.48-4.66-10.56-7.77
			c-0.71-0.72,0.58-4.52,1.95-5.9c1.29-1.29,4.49-2.33,5.83-1.6C860.71,1843.92,863.76,1846.88,866.6,1849.11z"/>
		<path class="st0" d="M1295.61,1999.99c4.36,0.07,8.71,0.14,13.06,0.21C1304.3,2000.14,1299.95,2000.06,1295.61,1999.99z"/>
		<path class="st0" d="M1283.29,1999.62c0.56,0.06,1.13,0.12,1.69,0.18C1284.41,1999.74,1283.85,1999.68,1283.29,1999.62z"/>
		<path class="st0" d="M1904.61,466.43c8.73,1.14,23.01,2.37,37.03,5c24.81,4.65,49.75,9.03,74.11,15.53
			c50.45,13.45,87.34,44.07,109.24,91.77c9.84,21.43,18.46,43.42,27.99,65c3.89,8.8,8.65,17.22,13.16,25.73
			c3.95,7.46,1.09,12.63-7.48,13.71c-13.43,1.69-25.58-3.18-37.82-7.32c-6.26-2.12-12.42-4.82-18.17-8.05
			c-7.79-4.38-15.49-9.07-22.64-14.43c-18.63-13.96-36.52-28.95-55.5-42.39c-18.2-12.89-37.82-23.82-59.5-29.7
			c-24.35-6.6-48.96-12.31-73.62-17.66c-13.51-2.93-27.23-1.11-40.52,2.3c-27.39,7.04-54.26,15.7-79.88,27.85
			c-13.02,6.18-24.29,14.92-34.73,24.73c-12.84,12.06-25.4,24.53-40.73,33.45c-10.98,6.38-23.55,6.06-35.77,6.24
			c-3.72,0.06-5.96-2.75-5.91-6.69c0.02-1.98,0.21-4.01,0.67-5.93c7.8-32.31,18.91-63.11,41.7-88.3
			c15.08-16.67,32.5-30.86,52.79-40.26c30.73-14.23,62.08-27.15,93.49-39.85C1861.82,469.37,1879.18,466.85,1904.61,466.43z"/>
	</g>
</g>
</svg>
