<svg xmlns="http://www.w3.org/2000/svg" viewBox="0 0 2639.18 2640.19">
    <defs>
        <style>.cls-1{fill:#cc0013;}.cls-2{fill:#200b04;}.cls-3{fill:transparent;}</style>
    </defs>
    <title>RED</title>
    <g id="RED">
        <g id="C8564r.tif">
            <path class="cls-1"
                  d="M1246.78,14.6h143.9c1.87.59,3.6,1.43,5.68,1.52,34.45,1.53,68.66,5.36,102.82,10a1255.72,1255.72,0,0,1,160.88,32.6,1310.18,1310.18,0,0,1,444.88,217.53c20.3,15.24,40,31.31,59.49,47.6,9.59,8,19.87,15.44,27.65,25.48a4.2,4.2,0,0,0,4.19,3.16l-.21-.17,2.21,2.2-.2-.2,2.2,2.2-.2-.2,2.2,2.2-.2-.21,2.2,2.2-.16-.21c.56,4.46,4.25,6.64,7,9.35,44.6,43.5,86.64,89.34,124.19,139.09,10.95,14.51,22.76,28.66,29.9,45.77,1.45,3.48,4.35,6,7.34,8,7.81,5.13,12.17,12.85,17.27,20.29,12.5,18.27,20,40.05,38.1,54.46,2.74,2.18,4.17,6,6.36,8.9,6.35,8.5,10.66,18.41,18,26.23l-.3-.38a7.53,7.53,0,0,0,2.22,4.41l-.08-.69a8.94,8.94,0,0,0,4.1,6.67,24.45,24.45,0,0,1,3.12,3.75q24.13,44.58,45.48,90.59c4.95,10.73,10.86,21.15,13.51,32.86-1.63.85-3.18.36-4.8-.13a328.88,328.88,0,0,1-50.66-20.64c-31.59-15.72-63.8-29.68-98-38.81-8.66-2.31-17.23-5-25.94-7-3.34-.78-7.69-2.3-10,1.61-2.47,4.1,1.28,6.63,3.69,9.28,5,5.52,11.46,9,18,12.25,10.74,5.26,21.77,10,32.27,15.67,21.31,11.57,42.33,23.65,64.8,32.94,8.89,3.67,17.69,7.61,26.7,11,4.84,1.81,6.92.29,6.7-3.73-.47-8.74-.39-8.85,7.82-7.85,2,.24,3.88.93,5.84,1.15,10.34,1.12,19.36,6.94,29.64,8.22,6,12.2,11.33,24.69,14.48,38-3,0-6.46.36-8.48-2-4.45-5.18-10.81-4.58-16.41-6.08-6.5-1.73-11.58,1.23-15.7,6.18-1.91,2.3-2.4,4.66-.75,7.28,7.79,12.32,13.45,25.84,21.84,37.86,14.24,20.37,28.27,40.89,40.55,62.56,7.81,13.8,16.1,27.33,24.18,41l-.32-.25,1.68,4a50,50,0,0,1,2,5.6c9,38.49,16.53,77.28,22,116.44,3.44,24.61,7,49.24,8,74.12-.82-1.42-1.7-2.81-2.48-4.25-20.4-37.71-39-76.45-68.43-108.61-20.67-22.57-45.49-37.51-74.42-46.27a52.82,52.82,0,0,0-9.81-1.68,5.54,5.54,0,0,0-5.79,3.08c-1.15,2.31-.48,4.51,1.17,6.46,3.06,3.64,7.21,5.9,11,8.51,17,11.53,31.35,25.82,43.93,41.84,22.81,29,38.93,61.84,53,95.78,19,45.72,32.49,92.9,37.78,142.17,3,28.07,6.76,56.06,8.88,84.24.62,8.19.39,16.61,2.87,24.64a39.92,39.92,0,0,1,.14,6c-3.57,28.61-7.18,57.24-12.25,85.63A1305.77,1305.77,0,0,1,2387.37,2071a1333.4,1333.4,0,0,1-130.69,158.08c-26.53,27.56-54.53,53.61-83.46,78.64a1296,1296,0,0,1-245.75,167.68A1260.36,1260.36,0,0,1,1769,2545.8a1362.49,1362.49,0,0,1-138.13,42.11q-64.92,15.91-131.05,25.22c-34.45,4.89-69.1,8-103.83,10.36-8.43.56-17.15-1.51-25.32,2.11H1266.77c-.63-1.44-1.86-1.64-3.24-1.64-27.91-.11-55.61-3.13-83.34-5.89-39.66-4-79-10.17-118-18a1306.35,1306.35,0,0,1-303-100.58A1310.26,1310.26,0,0,1,409.9,2257.19c-21.58-20.76-42.07-42.59-62.12-64.86A1279.81,1279.81,0,0,1,230.68,2041,1295.59,1295.59,0,0,1,94.42,1771.94a1315.28,1315.28,0,0,1-42.93-140.07,1242.61,1242.61,0,0,1-25.17-131.1c-5.61-42-11.06-84.16-10.85-126.74.16-33,0-66,.06-99,0-3.61-.72-7.35,1.09-10.8-1.21-5.25,2-9.66,2.94-14.48,5.29-26.4,11.32-52.63,17.75-78.78,10-40.65,24.69-79.31,46-115.45,15.25-25.83,32.37-50.38,49.78-74.74,15.53-21.73,32.74-41.94,53.16-59.31,11.15-9.48,22-19.29,33-29,1.48-1.31,3.41-2.72,2.65-4.94-.91-2.68-3.56-3-5.87-2.53a54.83,54.83,0,0,0-9.6,2.57,102,102,0,0,0-19.38,10.23c-25.64,16.65-47,38.09-67.36,60.56-7.83,8.63-15.46,17.5-24.7,24.65-7.08,5.47-14.62,2-15.81-6.87a46.08,46.08,0,0,1-.08-5c-.18-11.33,4.16-21.47,8.53-31.54,6-13.81,15.06-25.83,23-38.53a257,257,0,0,1,55.92-63.26c27.49-22.49,57-41.44,92.13-50.15,5.13-1.27,10-3.67,15-5.45a21,21,0,0,0,8.21-5.52c4-4.24,2.73-8.93-3.12-10.14-4.25-.89-8.58-.09-12.84.88a238.32,238.32,0,0,0-60.61,22.57c-29,15.66-57.7,31.77-86.59,47.58-4.28,2.34-8.36,5.75-13.87,4.45-.13-3.48,1.66-6.4,2.86-9.47,9.45-24.14,19.9-47.87,31-71.28,37.39-78.62,81.74-153.06,133.94-222.78C317,479.39,365.6,424,419.43,373.2c26.11-24.65,53-48.4,80.9-70.94A1305,1305,0,0,1,882.45,88.69a1329.7,1329.7,0,0,1,180.38-49.9c56.3-11.31,113.23-18.27,170.47-22.75C1237.8,15.68,1242.57,17.59,1246.78,14.6ZM493.25,1829.65A94.88,94.88,0,0,0,479,1816.32a62.37,62.37,0,0,1-15.79-17.85c-8-13.84-6.77-31,17-31,35.59,0,71.16-.14,106.64,3.81,33.19,3.7,65.7,10.27,97.18,21.4,29.79,10.53,59,22.48,88,35.21,44.79,19.7,89.83,38.84,135.53,56.36,9.27,3.56,15.78,9.43,19.7,18.56a190.07,190.07,0,0,1,8.15,23.56c5.25,18.57,8.76,37.63,15.45,55.78,5.18,14,10.75,28,16.36,41.84a39.27,39.27,0,0,0,13.29,17.2,399.24,399.24,0,0,0,84.32,47.16,16,16,0,0,0,2.82,1c3,.62,6.07,1.08,8.21-1.83s1.19-5.68-.68-8.28c-3.29-4.61-6.71-9.12-9.92-13.78-9-13-16.23-27.06-17.9-42.9-1.57-14.87-1-29.94.63-44.87,1.46-13.24,3.24-26.47,8.89-38.74,4.84-10.52,12.07-18,24.26-20a125.41,125.41,0,0,1,16.83-1.68c25.71-.72,51.07,2.67,76.46,6.11,35.3,4.79,70.24,11.3,104.61,20.67q32.73,8.92,65.3,18.46a67.38,67.38,0,0,0,47.69-3.06c16.16-7.1,32.08-14.67,47.94-22.41,23.38-11.4,47.24-21.43,73-26.46,16.68-3.26,33.57-4.54,50.37-6.75,5.09-.67,10-.19,14.15,3.3,1.78,1.51,3.9,3.24,2.84,5.85-2.17,5.34.45,9.8,2.28,14.32,8.69,21.39,14.86,43.27,17,66.46,1.15,12.46-.27,23.8-5.49,34.88a233.71,233.71,0,0,1-35.07,54.39c-2.2,2.52-5,4.82-2.56,8.62,2.13,3.3,5.07,3.43,8.75,2.69a168.48,168.48,0,0,1,18.75-2.49c3.63-.31,7.68-.14,9,4.4,1.18,4.14-2,5.92-4.91,7.66-2,1.2-4,2.33-6.07,3.46-9.61,5.33-19.42,10.33-28.79,16-25.35,15.43-52.73,25.22-81.79,30.71-34.36,6.5-69.16,9.22-103.94,11.41-34.2,2.16-68.49,3.08-102.75,4.07-32.28.94-64.43-1.22-96.51-5.18-42.22-5.22-83.1-15.31-121.85-33-29.73-13.54-57.58-30.18-80.53-54-4.62-4.78-8.8-10-13.26-14.93-1.75-1.94-3.58-4.44-6.67-3.23-3.59,1.41-4.77,4.6-4.21,8.19a49,49,0,0,0,5.37,16c8.5,15.65,19.5,29.53,31.76,42.17,31.3,32.27,63.27,63.86,100.61,89.41,30.7,21,63,38.59,99.11,48.41,49.75,13.52,100.67,18.2,151.94,19.46,23.76.59,46.94-4.42,69.68-11.12,40.65-12,79.81-27.76,118-46,26.57-12.67,51.54-27.57,73.44-47.63,17.72-16.23,34.1-33.68,50.44-51.21,6.81-7.3,13.3-14.86,19.57-22.64,8.34-10.36,10.09-22.24,8.65-34.87-1-8.85-6.39-11.33-13.77-6.64-5.06,3.22-9.94,6.72-15.1,9.74-3.18,1.86-7.35,3.49-10.13.32-2.25-2.56.89-5.47,2.23-8a34.84,34.84,0,0,1,2.06-3.42,112.4,112.4,0,0,0,18.3-49.17c2.89-22.32-.86-43.6-15.49-61.2-12-14.47-24-29.44-41.18-38.58-2.81-1.49-3.5-3.65-3.28-6.59.24-3.23,2.33-4.62,5-5.47a23.14,23.14,0,0,1,3.93-.6c16.46-2.16,33-3.88,49.48-5.64,42.33-4.52,83-15.3,122.82-29.76,71.62-26,142.4-54.3,215-77.75,46.54-15,92.64-31.38,140.62-41.61,24.39-5.19,48.66-7,73.08-.93,11.28,2.8,22.84,4.93,33.06,10.91,10.46,6.11,10.81,15.45.31,21.58-23,13.42-45.9,27.08-71.22,35.89a21.43,21.43,0,0,0-4.55,2c-2.5,1.61-5.9,3.43-5.31,6.58.71,3.82,4.13,5.87,8.17,6.11a28.43,28.43,0,0,0,6-.09c5.91-.93,11.83-1.85,17.66-3.14,18.5-4.1,37.13-7.72,54.36-16.24,5.48-2.71,9.88.34,10.33,6.39a20.22,20.22,0,0,1-1.37,7.81,78.08,78.08,0,0,1-9,18.91q-15.72,23.71-31.65,47.29c-2.43,3.62-4.76,7.33-5.93,11.5-1.42,5.08,1.79,8.47,7,8,2.45-.21,4.36-1.54,6.36-2.72,8-4.74,16-9.61,24.08-14.21,28.88-16.39,45.06-41.87,51.68-73.65a266.11,266.11,0,0,0,4.73-75.36c-1.84-23.57-6.75-46-16.78-67.35-5-10.59-12.2-19.91-17.37-30.33-11.87-23.94-29.09-43.62-47.59-62.5-14-14.3-29.86-26.52-44.41-40.19-4.7-4.42-10.56-7-16.56-9-8.2-2.74-16.53-5.09-24.82-7.58a24.22,24.22,0,0,0-10.89-.69c-7.08,1.15-8.79,5.79-4.42,11.36,3,3.83,7.27,5.78,11.58,7.56a117.84,117.84,0,0,1,19.55,10c33.8,22,58.6,51.94,76.83,87.58,4.2,8.21.79,13.71-8.4,13.74-11.65,0-23.3-.37-35-.35-35.71.07-70,7.63-103.09,20.65-29,11.4-55.4,27.52-81.11,44.88-29.8,20.11-59.42,40.53-91.48,57-19.58,10.07-39.55,19.21-61.22,23.83-34.76,7.41-69.47,15.18-104.82,19.34-25.27,3-50.43,2.42-75.22-4.07-36.2-9.48-69.7-26-103.77-40.86-8.66-3.78-16.64-9.39-25.52-13.14-3.74-1.59-8-1.12-11.39-3.16-13.15-7.91-26.39-7.17-40-1.41-7.65,3.23-15.4,6.49-23.42,8.54-18.11,4.64-31.27,15.74-42,30.33-3,4-5.82,8.13-8.38,12.42-10.92,18.29-21.84,36.58-32.45,55.06A33.12,33.12,0,0,1,1363,1876.5c-4.09,2.2-8.31,4.17-12.47,6.24-4.36,2.18-8.28,1.65-12-1.59-3.87-3.37-6.26-7.67-8.54-12.17-8.73-17.23-17.32-34.54-27.56-51-8.34-13.37-17.83-25.74-31.69-34-25.34-15.16-53.54-17.47-81.94-17.12-16.42.2-31.85,6.41-46.66,13.5-27.43,13.12-53,29.42-77.66,47-11.57,8.23-23.74,14.48-37.86,17.1-15.38,2.86-30.87,4.5-46.41,6.24-42.67,4.77-83.55-.38-122.82-18.15-16.7-7.55-32.92-16-49.41-24-8.1-3.91-16.26-7.61-25.08-9.67a50.76,50.76,0,0,1-17.25-7.63c-25-17.12-50.53-33.43-76.77-48.61-22.2-12.85-44.81-24.88-68.46-34.92-37.26-15.83-75.66-22.63-116-15.69-22.89,3.93-44.5,11.09-64.18,23.64a55,55,0,0,0-23.48,62.65c3.56,12.17,11.65,21,21.31,28.22,13.11,9.85,27.95,16.75,43.13,22.83C484.52,1830.73,488,1832.21,493.25,1829.65Zm216.53-1537c-11.66-.19-31.61-.48-51.51,1.89-20.19,2.41-40.32,5.31-59.17,13.14-34.77,14.43-70,27.56-106.28,37.59a31.93,31.93,0,0,0-15.75,10.13c-10.48,12.06-20.43,24.6-32.61,35.09-1.79,1.55-3.31,3.43-2.44,6.08,1,3.1,3.61,3.66,6.4,3.67,7,0,13.94.36,20.83-1.49,12.53-3.36,25.15-6.38,37.72-9.57,20.95-5.33,41.76-11.32,62.88-15.84,20.44-4.37,41.15-7.59,61.84-10.68,28.3-4.22,56.7-7.32,85.43-6.29,5.69.21,11.21,1.32,16.84,1.71,29.41,2,57.71,9,85.41,18.95,20.16,7.25,38.67,17.72,57.65,27.35,30.6,15.51,60.67,32,89.76,50.12,20.07,12.53,39,26.61,54.66,44.73,11.11,12.82,23,25,34.75,37.21,2.46,2.54,5.06,7.65,9.78,4.37,4.49-3.12,2.25-7.75.8-11.83-.33-.94-.79-1.84-1.14-2.77q-7.52-20.12-15-40.22c-.94-2.5-2-5-2-7.68.1-4.75,3.56-7.3,8.09-5.81a18.39,18.39,0,0,1,4.32,2.45c16,10.78,32.65,20.68,47.91,32.54,20.21,15.71,40.95,30.89,57,51.19,9.94,12.55,19.48,25.34,22.13,41.86,1.93,12.09,0,23.94-2.09,35.69-5.21,29.34-15.24,57.21-27.41,84.27-7.08,15.76-13.78,31.89-23.86,46-12.55,17.61-25.13,35.31-39.06,51.82-17.61,20.86-33.59,43-51.76,63.42-20.17,22.65-40.78,44.72-65.51,62.7-20.48,14.88-40.77,30-62.49,43-8,4.83-14,11-15.25,20.93s4,17.92,13.89,19.4a52.3,52.3,0,0,0,15.94-.26c21.91-3.5,42.53-11,62-21.38,27.82-14.82,52.54-33.9,74.92-56,17.52-17.33,34.23-35.45,50.47-53.94,20-22.76,39.38-46.08,54.63-72.47a51.4,51.4,0,0,1,6.41-8.88c6.78-7.43,12-7.7,19.86-1.37,7.14,5.78,10.33,13.76,12,22.41,2.44,12.42,4.29,24.94,4.34,37.63a45.69,45.69,0,0,0,1.57,11.83c1.52,5.59,6.06,10.55,9.75,9.89,5-.9,7.81-4.79,9.63-9.25a13.42,13.42,0,0,0,.75-4.9c0-5.67.9-11.27,1.32-16.89.66-8.92,1.12-17.93-1.17-26.82-2.84-11.1-7.74-21.31-13.64-31-4.45-7.26-11.7-11.57-19.38-15.22-7.23-3.43-9.92-8.35-7.71-14,8.11-20.59,12.4-42,15.41-63.86a344.88,344.88,0,0,0,2.19-75.73c-2.19-26.13-4.34-52.33-7.43-78.38-4.19-35.36-18.66-65.64-47-88.44-46.25-37.16-95.17-70.54-144.93-102.74a36.1,36.1,0,0,1-5.4-4.39c-2.66-2.59-5.5-5.46-3.89-9.54s4.76-7.26,9.49-7.93a60,60,0,0,1,7-.24c19.45-.48,38.46,3.4,57.34,7,50.13,9.51,100.84,12.4,151.6,15.08,16.58.87,33.19,1.34,49.8,1.66,27.94.54,55.84,2.33,83.81,2.33,31.87,0,63.71-1.56,95.54-1.87,28.55-.28,56.17-5.18,83.78-11.07,26-5.55,51.36-13.92,76.94-21.24,15.22-4.35,30.49-6.77,46.27-5.84,8.58.51,14.75,6,13.21,12.77-2.77,12.17-6.94,23.37-19.86,29.29-21.78,10-43.16,20.85-64.72,31.34-32,15.59-64.12,31.07-92.66,52.86-26.93,20.57-48.73,45.3-62.4,76.53-16,36.54-20.14,74.87-15.72,114.27,2.87,25.59,9.64,50.21,18.76,74.24,9.57,25.2,19.66,50.22,28.48,75.67,14.08,40.6,36.06,76.48,64.72,108,36.25,39.92,79.45,70.79,128.58,93.11,14,6.37,28.65,10.61,44.4,9.93,13-.56,19.86-10.18,15.34-22.45-1.14-3.11-3.1-5.91-4.26-9-1.23-3.28.39-5.11,3.79-5.24,4.2-.16,7.71,1.88,11.17,3.87,33.52,19.26,68.91,33.23,107.54,37.94,15.52,1.89,31.14,3.65,46.78,2.23a422.49,422.49,0,0,0,65.81-11c61.39-15.62,116-42.6,157.68-92a241.58,241.58,0,0,0,52.17-106.56c6.93-32.24,10-64.94,6.77-98.14-2.43-24.91-6.2-49.5-12.86-73.58A335.6,335.6,0,0,0,2122,549.21a241,241,0,0,0-32.68-41.47c-20.5-21.2-46.28-34.92-72.91-46.19-30-12.72-61.42-21.94-94-26.13-10.53-1.36-21.19-2-31.81-2.4-6.61-.28-13.05,2.22-19.81,1.74-13.33-.93-26.57,1.15-39.55,3.42-43.52,7.62-83.57,24.29-120.3,48.86-6.91,4.63-13.33,10.08-20.57,14.07-9,5-15.85,11.9-22.24,19.68a383.69,383.69,0,0,0-35.39,50.75c-10,17.27-19.66,34.82-25.87,53.94-10.52,32.32-11.88,66-13.68,99.47-1.4,26,2.29,51.84,5.86,77.52,3.36,24.22,10.46,47.33,23.71,68.35a299.44,299.44,0,0,0,44.67,54.84c3.09,3,6.38,5.88,8.41,9.82.78,1.5,1.54,3,0,4.49-1.1,1.1-2.49.8-3.71.3-3.7-1.49-7.7-2.57-11-4.74-19.7-13-39.79-25.55-57.56-41.27-26-23-48.37-49.49-70.1-76.48-9-11.16-17.52-22.77-23.4-35.89-11.57-25.81-22.33-51.95-33.08-78.11-16.87-41.06-20.94-83.64-18.49-127.31.54-9.67,4-18.34,11.8-24.48,23.29-18.31,46.6-36.62,71.7-52.45,12.43-7.84,25.39-14.58,40-17.66,3.85-.81,7.16-1.19,10,2,3,3.37,1.66,6.77.29,10.24-4,10.23-8.06,20.44-12,30.71-6.52,17.11-12.92,34.27-19.4,51.4-2.65,7-3.12,14.26-2.69,21.64.22,3.7,2.09,6.59,5.53,7.52,3.21.87,5.74-1.48,7.52-3.92a55.45,55.45,0,0,0,4.4-7.82c6.72-13.4,13.58-26.73,20-40.26a116.79,116.79,0,0,1,23.92-33c14-13.8,28.4-27.16,43.53-39.72,24.9-20.67,51.11-39.55,79.27-55.49,36.53-20.68,74.45-38.71,112.34-56.7,17.42-8.27,35.66-14.68,54.13-20.43,32.3-10.06,65.7-9.66,98.86-11.13,20.57-.92,41.22-.93,61.83,1.09,12.33,1.22,24.4,2.87,35.94,7.63,6.46,2.67,13,5,19.69,7.2,6.84,2.24,10.74,1.27,13.5-2.73,2.61-3.76,2-8.32-2.24-13.72a74.5,74.5,0,0,0-13.55-13.24c-39.68-30-85-45.5-134.14-48.3-33.83-1.94-67.88-2.28-101.74,1.56-25.54,2.89-50.66,7.54-74.6,17.28a374.63,374.63,0,0,0-45.73,22.35c-8.66,5-17.52,9.77-27.43,11.75-8.48,1.68-16.94,2.95-24.79,7.12-4.79,2.55-7.62.51-8.2-4.77a20.57,20.57,0,0,1,1.25-8.83c1.45-4.42,2.64-8.93,4-13.39,1.61-5.38,0-9.65-3.92-13.56-4.88-4.93-10.87-5.9-17.39-6a406.43,406.43,0,0,0-61.66,4c-25.35,3.38-50.77,6.24-76.15,9.44-23.07,2.9-46.08,6.34-69.19,8.86-31.35,3.42-62.58,8.17-94.2,8.94-23.6.58-47.21,2.52-70.67-1.57-7.3-1.27-14.78-2.14-21.84-.71-9,1.81-17.86,1.62-26.81,1.35-20-.61-39.91-1.38-59.87-2.08-12.56-.43-25.34,1.65-37.55-3.27-1.46-.58-3.29-.3-5-.3-22-.09-43.66-4.17-65.31-7.58-23.63-3.72-47.12-8.29-70.73-12.13-35.24-5.72-72.68,19.73-70.51,52.71.51,7.77-6.57,11.49-13.75,8.69-3.1-1.21-6.17-2.5-9.18-3.93C907,336,875.44,322.73,843.61,310c-12-4.81-24.12-9.48-37-11.68C777.26,293.3,747.73,292.17,709.78,292.63Zm317.64,1157.12c17.65,0,35.31.18,53-.07,12.06-.17,22.09,3.81,30.29,12.68,5.88,6.35,11.86,12.63,18,18.72,20.64,20.4,43.79,37.88,65.8,56.69,22.61,19.33,48.1,31.93,78.12,34.5,7.27.62,14.47,2.06,21.72,2.93,3.65.44,5.29,2.24,5.18,5.89-.12,3.92-2.61,4.92-5.93,5.23a45.09,45.09,0,0,1-15.87-.86,40.44,40.44,0,0,0-7.76-1.68c-8.5-.52-13.89,5.64-10.61,13.36,5.81,13.64,14.88,25,30.24,28a78.63,78.63,0,0,0,31.78-.5c18.58-4,25.11-17.92,16.59-35-2.41-4.82-1.26-8,3.66-10.41,2.81-1.4,5.78-1.39,8.78-1.38,12,0,23.9-.58,35.86-1.74,26.72-2.59,50-12.66,70.86-29.36,15-12,26.5-27.07,38.52-41.74,20-24.37,42.5-45.83,69.5-62.4,15-9.22,29.77-11.56,46.16-2.86,20.6,10.94,42.79,13.77,65.87,9.8,18.12-3.1,33.3-10.9,44.75-25.67a101.57,101.57,0,0,0,18.91-38.18c2.14-8.71,9.49-12.35,16.56-4.46,11.17,12.46,25.24,21.45,40.11,29.31,27.62,14.59,57.09,23.93,87.23,31.14,59.84,14.31,120.12,26.71,179.73,42,43.19,11.1,86.22,22.79,128.7,36.3,33.61,10.69,67.1,22,98.7,38,15.17,7.65,30.06,15.9,41.67,28.79,12.7,14.1,25.11,28.44,36.22,43.83,16.59,23,32.13,46.63,42.39,73.28,5.92,15.39,9.77,31.31,7.42,47.85-3.69,26-5.05,52.24-6.95,78.41-.36,4.88-1.41,11,4.77,12.8,5.49,1.61,8-3.83,10.56-7.47,6.15-8.72,10.76-18.39,16.2-27.54,14.9-25,19.3-52.42,16.89-80.8-2.71-31.77-6.32-63.39-15.74-94.25-9.22-30.19-23.05-57.44-44.41-80.58-30.73-33.31-68.66-56.5-108.75-76.72-30.31-15.29-63-20.69-96-25.23-41.15-5.65-82.28-11.45-123.44-17-36.88-5-73.81-9.54-110.62-15-51.34-7.66-102.4-16.46-152.61-29.87a115.19,115.19,0,0,1-42.57-21.15c-4.94-3.92-10-7.91-15.46-11-10.74-6-19-14.47-26.62-23.81a71.06,71.06,0,0,0-12.67-12.68,88.16,88.16,0,0,1-26.78-31.76c-6.44-12.78-13-25.52-20.81-37.55C1653,1232.88,1639.4,1217,1621,1206c-14.63-8.74-29.58-9.62-44.27-.22-9.94,6.37-17.09,15.75-24.51,24.69-3.77,4.55-3.29,9.76,0,14.82,6.51,10.08,16.82,13.18,27.49,7.31,11.18-6.15,22.65-11.18,35.31-13.32,8.89-1.5,14.22,1.84,15.41,10.76a69,69,0,0,0,3.32,14.55c6,16.68,13.76,32.45,24.65,46.61,10.15,13.22,20.49,26.23,32.49,37.85,4.07,3.94,7.9,8.15,9.72,13.73,8.78,26.93-.17,55.32-28.9,68.17-3.65,1.63-7.33,3.13-11.43,3.36-8.87.48-13.86-4-13.94-12.84a33.23,33.23,0,0,1,.22-4c1-8.93-2.33-16.3-8.29-22.69-6.68-7.17-14.34-12.71-23.8-15.88-10.49-3.51-12.93-8.12-11.05-19,1.29-7.54,2.85-15,4.13-22.56a34,34,0,0,0,.54-7.92c-.22-3.41-2.73-5.15-5.72-6.22-2.69-1-4.59.57-6,2.39-9.71,12.15-16.17,25.21-11.28,41.38,2.56,8.49,1,12.85-6.7,16.09-21.84,9.23-39.93,23.84-57.19,39.59-31,28.26-60.55,58-92.52,85.28-27.35,23.3-58.8,34.57-94,36.28-21.06,1-41.59-4.08-62.23-7.65a179.65,179.65,0,0,1-54.51-18.69c-29-15.53-53.8-36.76-78.45-58.14-17.6-15.27-34.16-31.73-52.42-46.25-22.41-17.82-47.48-27.73-76.69-25.74-10.35.71-19.53,3.71-27.65,10.06-3.93,3.08-7.67,6.42-11.72,9.33-8.81,6.33-14.74,5.47-21.26-3.12a22.91,22.91,0,0,1-4.17-7.89c-5-19.69-5.24-38.87,6.86-56.55,20.71-30.26,42.79-59.45,67.2-86.82,10.67-12,22.25-23,36.17-31.19,19.76-11.67,34.86-10,51.59,5.64,4.16,3.9,8.52,7.56,13.81,9.72,6.07,2.47,11.52-1.89,10.57-8.46a26.21,26.21,0,0,0-6.56-14.35,205.22,205.22,0,0,0-16.49-16c-7.77-6.62-16.68-8.25-27-6.74-25.3,3.68-47.66,13.87-68.9,27.61-12.29,8-20.81,17.93-25.21,32.12A110.9,110.9,0,0,1,957,1299.62c-4.62,4.33-9.16,8.75-13.48,13.37-12.81,13.69-23.89,28.59-31.81,45.72-7.54,16.3-8.69,32.38-.66,49.07a138.31,138.31,0,0,0,18,28.68c8.64,10.4,20.4,15.72,33.56,14.6C984.19,1449.23,1005.8,1450,1027.42,1449.75Zm484.85-144.55c.2-26.1-2.38-44.21-7-61.93-8.49-32.9-23.78-62-49.47-85-4.52-4-9-8.48-9.21-14.9-.46-17.09-6.62-32.42-13.5-47.65-10.55-23.35-21-46.75-32.56-69.62a40.39,40.39,0,0,0-11.12-13.95c-3.76-2.93-7.14-2.42-10.68.81-4.37,4-4,9-3.49,13.91,2.46,24.17,5.87,48.2,12.55,71.62,1.74,6.1,1.62,11.42-1.8,17.11-4.35,7.23-4,7.67,2.25,13.47,5.89,5.44,11.86,10.75,15.09,18.36a50,50,0,0,0,18.25,22.08c17,11.4,24,28.31,26.7,47.17,4.07,28.62,7.22,57.33,4.8,86.44-3.15,37.88-18.27,69.61-48.43,92.62-41.16,31.4-87.35,45.51-139.59,36.63-31.52-5.35-59.83-17.38-85.07-36.83-3.15-2.43-5.74-5.61-9-7.91-5.08-3.63-10.07-1.09-10.42,5.1-.25,4.4,1.13,8.54,2.5,12.67a226.75,226.75,0,0,0,24.42,51.26c13.55,21.13,31.33,37.88,54.1,48.91,16.71,8.09,34.43,11.4,52.91,13,30.35,2.65,58.91-2.79,86.21-15.61,38.88-18.25,67.9-48.6,96.32-79.59,4.07-4.44,6.84-9.78,9.67-15.09C1505.27,1373.63,1511,1336.07,1512.27,1305.2Zm-465-582.48c.49-23.83-2.58-50.57-7.68-77.1a334.86,334.86,0,0,0-37.38-101.74,213.63,213.63,0,0,0-62.88-69.8c-28.24-20.16-59.87-33.22-92.67-43.65a312.8,312.8,0,0,0-115.06-14.14c-30.17,1.87-59.49,8-87.3,19.44-57.58,23.7-102.36,47.78-135.11,106.17-.81,1.45-1.82,2.78-2.69,4.21-14.94,24.56-28.23,49.84-34,78.39-2.56,12.73-4.14,25.55-5.48,38.48-2.92,28.19-4.64,56.33-1.54,84.6.8,7.27,1.48,14.56,1.79,21.86s-2.54,11.34-9.73,12.6a23.61,23.61,0,0,0-10.6,5.06c-9.72,7.42-17.28,16.48-22.06,27.84-3.95,9.38-10.89,14.74-21.25,15.71-6.3.59-12.47,1.29-18.83,0a25.29,25.29,0,0,0-15.64,1.72c-20,8.94-32.1,24.34-37.19,45.38-4,16.66-1.68,33,3.05,49.21a29.31,29.31,0,0,0,12.31,16.42c10.2,6.9,21.78,9.55,33.69,11.54,15.27,2.55,29.13-.61,41.56-9.66,12.22-8.91,19.11-21,20.59-36.16,1-10.67,5-13.14,15.23-9.86,1.58.51,3.15,1.09,4.75,1.53,15.86,4.31,31.93,7.6,48.12,2.6,9.49-2.94,16.22-.88,23.14,6.23,33.11,34,71.27,61,115.09,79.53a265.07,265.07,0,0,0,84.9,20.82,276.67,276.67,0,0,0,80.36-5.88c43.56-9.8,85-24.3,122.2-49.78,35.13-24.06,62.41-54.79,81.23-92.9C1039.23,818.73,1047.76,773.28,1047.25,722.72ZM892.6,1375.59c-.56-3.37-2.31-5.33-5.92-5.41s-6.24,2.09-9,3.84c-11.86,7.41-23.56,15.06-35.55,22.25A250.78,250.78,0,0,1,788.32,1420c-27.08,8.57-55.05,12.72-83.16,15.81-40.34,4.44-80.88,6.14-121.4,7.91-32.24,1.4-64.52,2-96.79,2.43a418.34,418.34,0,0,0-85,10.07,349.43,349.43,0,0,0-98.26,38.22c-33,18.84-58.79,45.53-81.69,75.33-13,16.9-25.71,34-34.85,53.43-1.42,3-3,6-3.35,9.36a7.38,7.38,0,0,0,3.79,7.56c2.85,1.78,5.07,0,7.23-1.58,3-2.19,4.92-5.4,6.93-8.45,16.91-25.62,38.54-46.66,63.27-64.55,18.52-13.4,38.34-23.79,61.75-26.19,15.84-1.62,31.57-4.38,47.45-6,34.37-3.5,68.66-7.95,103.07-11,32.82-2.92,65.35-7.72,97.72-13.59,47.16-8.54,93.59-20.25,139.7-33.26,47.22-13.31,92.47-31.64,136.66-52.77,19.11-9.13,30.61-25,39.68-43.29C891.65,1378.24,892.05,1377,892.6,1375.59Zm703.83,1170a22.76,22.76,0,0,0,3-.17c2.28-.43,4.56-.92,6.81-1.47,35-8.56,66.65-24.73,97.49-42.73,44.3-25.86,85.26-56.45,125.48-88.15a770.46,770.46,0,0,0,147.87-154.65,1071.23,1071.23,0,0,0,75.86-120.86,390.75,390.75,0,0,0,26.48-60,128,128,0,0,0,3.21-12.54,3.48,3.48,0,0,0-2-4.15,3.58,3.58,0,0,0-4.53.89,61.25,61.25,0,0,0-5.47,7.1c-13.34,21.49-26.51,43.08-39.9,64.55-14.61,23.42-28.77,47.1-47.39,67.81-17.78,19.79-34.77,40.29-51.94,60.61-25.59,30.28-51.72,60.09-80.94,86.93-36,33.08-72.53,65.64-108.72,98.53-12.11,11-24.9,21-39.11,29.18-13.83,8-27.39,16.45-41.11,24.63-12,7.16-24,14.48-37.66,18.11-11.52,3.06-21.05,9.74-30.69,16.28-2.21,1.5-4.74,3-4,6.25C1590.16,2545.5,1593.33,2545.62,1596.43,2545.58ZM63.84,1474.45c-1,19.25.24,38.54,2.26,57.71,1.19,11.21.71,22.62,3.66,33.65,1.3,4.89,3,9.6,6.39,13.38,3.57,4,8.34,3.08,10.17-1.93.77-2.1.66-4.57.75-6.88.26-6.32,0-12.69.67-19,2.81-26.11,3.79-52.35,5.15-78.54,1.17-22.58,2.08-45.19,5.15-67.58a702.21,702.21,0,0,1,19.35-91.62c15.33-55.5,36.81-108.35,67.19-157.34,25.62-41.31,52.64-81.66,83.61-119.24q8.56-10.38,17.05-20.84c1.77-2.19,2.85-4.59,1.14-7.3s-4.37-2.79-7.09-2.32a26,26,0,0,0-9.09,3.94c-14.62,9-26.27,21.33-38.31,33.28-13,13-23.26,28.2-34.68,42.47s-23.6,27.94-33.83,43.2c-17.46,26-32.18,53.62-47.4,81a278.36,278.36,0,0,0-32.4,93.82c-4.24,27.58-8,55.25-12.57,82.77C66.18,1416,62.21,1444.94,63.84,1474.45ZM1883,2411.76a22.2,22.2,0,0,0,12.38-3.4c6.83-4.13,13.48-8.58,19.95-13.26,17.49-12.64,34.4-26,51.42-39.31,31.77-24.79,63.26-49.84,91.14-79.1,21.82-22.89,42.47-46.83,62.94-70.93,17.47-20.55,34.68-41.32,50.43-63.21,20-27.85,37.36-57.49,55.51-86.58,8.25-13.2,16.09-26.63,20.68-41.63,1-3.2,3.87-7-.37-10-4.58-3.2-6.71,1.16-8.85,3.69-5.58,6.6-11.05,13.32-16.08,20.34-24.8,34.65-49.48,69.37-73.36,104.66a336.15,336.15,0,0,1-41,50.12c-53.76,53.6-106.18,108.57-162.58,159.49-20,18.09-40.44,35.62-62.6,51.06a40.79,40.79,0,0,0-8.21,7.22c-2.74,3.27-1.6,6.08,1.2,8.69C1877.73,2411.66,1880.33,2411.8,1883,2411.76Zm-608.2,189.31c3.86-.36,8.11.6,8.7-3.93s-3.67-4.91-6.75-5.83c-4.45-1.34-9-2.53-13.47-3.65-37.74-9.41-75.81-17.78-112.43-31C1099.26,2538.05,1047.8,2519,997.5,2497c-21.68-9.47-42.32-20.85-61.31-35.2-24-18.16-44.52-40-65.59-61.24-10.07-10.17-20.27-20.2-30.5-30.2a47.31,47.31,0,0,0-14.09-9.3c-2.85-1.25-5.81-1.79-8.44.52-2.9,2.55-3.07,5.89-1.78,9.16a43.1,43.1,0,0,0,4.26,7.87c12.51,19,28,35.47,44.78,50.73,21.94,20,46.08,37.09,69.68,55,44.19,33.46,92.25,59.09,145.28,75.62,45.46,14.16,91.69,24.84,138.47,33.43C1237.23,2596.83,1256.42,2598.4,1274.82,2601.07Zm84-1819c0,6,0,11.36,0,16.68-.09,12-.75,24,.7,35.91,2.69,22.12,7.51,43.88,11.89,65.7,2.21,11,4.58,22.2,10.62,32,1.55,2.53,3,5.55,6.69,5s5.8-3.07,6.77-6.54a29,29,0,0,0,.89-4.89c1-10.92,2.45-21.81,2.15-32.83-.43-16.32,1.91-32.47,3.13-48.69s5.11-32.2,4.71-48.59c-.32-13-1.07-25.94-1.11-38.85-.15-42.26-3.33-84.46-2.55-126.73a37.69,37.69,0,0,0-.23-8c-1.1-5.53-5.92-7.39-10.49-4-4,3-7,7-9.75,11.24-10.4,15.74-13.82,33.94-16.74,51.84C1360.06,714.92,1357,748.73,1358.84,782.06ZM363.58,1803.88c-.5,5.53.91,15.45,2.09,25.35a239.35,239.35,0,0,0,14.93,59.88c1.46,3.7,3,7.47,6.06,10.24,2.53,2.3,5.29,1.37,5.84-1.94a13.93,13.93,0,0,0-.08-4c-2.21-16.45-4.82-32.87-6.57-49.37-1.44-13.58-1.91-27.29-.07-40.89a329,329,0,0,1,13.65-60.24c7.91-23.7,15.69-47.58,30.57-68a349.19,349.19,0,0,1,39.8-46c18.12-17.48,37.86-32.43,61.73-41.46,14-5.3,27.71-11.37,41.45-17.33,4.87-2.1,9.76-4.47,13.1-8.88,1.78-2.36,3.87-4.89,1.95-8.13a8.82,8.82,0,0,0-7.36-4.5,25.93,25.93,0,0,0-5.88.85,316.78,316.78,0,0,0-86.66,29.44c-28.84,14.87-54.17,34.21-72.71,61.06-15.4,22.29-25.9,47.24-35.14,72.66A267.53,267.53,0,0,0,363.58,1803.88Zm902-439.9h-21c-3.33,0-6.66,0-10,.13a6.86,6.86,0,0,0-6.2,4.35c-1.47,3.18,1,5,3,6.67a42.19,42.19,0,0,0,14.84,8c7,2.25,13.54,5.44,20.23,8.43a93.78,93.78,0,0,0,49.71,7.76c27.5-3.26,51.51-15.38,73.3-31.82,16.56-12.5,26.55-29,29.64-50.15,3.14-21.52,3.49-43,3.73-64.66.25-22.07-7.51-41.66-17.41-60.72a15.78,15.78,0,0,0-2.09-3.38c-3.78-4.16-8.89-3.12-11,2.22-1.23,3.22-.62,6.52-.49,9.86.75,20,4.72,39.62,5.11,59.6,1,50.5-31.9,86.44-75.14,98.15C1303.31,1363.47,1284.55,1364.79,1265.53,1364Zm457.81,608.65c.89-23.25-28.56-49.76-51.58-46.49-6.31.89-9.8,6-7.75,12.16,1.67,5,4.11,9.77,6.16,14.67,6.36,15.2,10.88,30.62,6.7,47.37a133,133,0,0,0-3.31,18.57c-.54,5.39.31,10.89,5.74,13.83,5.69,3.09,9.23-1.31,13-4.5a12.51,12.51,0,0,0,1.37-1.45,172.77,172.77,0,0,0,23.4-33.34C1720.46,1987,1722.92,1980.08,1723.34,1972.63Zm-238.46,416.7a169.92,169.92,0,0,0-7.87-44,30.52,30.52,0,0,0-9.77-14.77c-9.86-8-20.69-14.49-33.12-17.72-9-2.34-18.24-4-27.59-2.55-9.16,1.44-12,8.28-6.63,15.82a65.63,65.63,0,0,0,7.82,9,138.74,138.74,0,0,0,27,20.27c16.49,9.62,28.1,23.06,34,41.31a30.61,30.61,0,0,0,2.94,6.3c1.39,2.27,3.13,4.65,6.22,4.17a7.05,7.05,0,0,0,6-5.95A113.76,113.76,0,0,0,1484.88,2389.33Zm-188.13-703.68c19.25-.86,33.23-10.15,41.79-27.41,4-8.17-.63-15.41-9.78-15.87a15.74,15.74,0,0,0-5,.41c-17.37,5-34.14,2.27-50.84-3.38-8.18-2.76-16.6-4.82-25-7-3.61-.93-7.39-1.1-9.93,2.53s-1.24,7,.67,10.29c7.41,12.86,16.7,24.08,29.42,32C1276.8,1682.62,1286.44,1685,1296.75,1685.65ZM704.74,1846c-1.33,0-2.67-.07-4,0-3,.19-6.67-.27-7.7,3.19-1.06,3.62,2.45,5,5,6.49,9.18,5.22,16.05,12.77,22.22,21.17a112.66,112.66,0,0,1,10.28,17.08c3.52,7.17,6.79,14.47,10.48,21.55,3.47,6.66,8.1,8.72,13.75,5.16,8.4-5.28,17.38-9.86,24.28-17.35,7.92-8.6,7.53-14.53-2.15-21.21-11.5-7.93-23-15.86-34.9-23.2C730.61,1851.86,718.59,1846.12,704.74,1846Zm863.6,498.74c0-9.88-3.56-16.92-8.9-23.06-11.32-13-26.08-20.15-42.66-23.81-5.15-1.13-10.25-2-15.68-.43s-10.43,3.77-11.59,9.57,3.88,8.81,7.78,11.67a66.87,66.87,0,0,0,17.51,9.34,49.37,49.37,0,0,1,28.56,24.85,40.5,40.5,0,0,0,5.58,8.2c5.42,6.11,10.91,5.57,15.1-1.59A29.78,29.78,0,0,0,1568.34,2344.72Zm164.32-393.15.36,0c0,3.32-.24,6.66,0,10,1,11.83,9.39,20.67,20.69,22,10,1.21,16.59-3.64,18.39-13.63q2.11-11.73,4-23.49c1-6.15.11-12-3.83-17a56,56,0,0,0-14.51-13.51c-11.26-6.9-21.2-2.34-23,10.85C1733.67,1935,1733.35,1943.32,1732.66,1951.57Zm-168.18-619.29a132.78,132.78,0,0,0-4.33-23.15c-1.06-3.81-3.38-6.65-7.61-6.76-4-.11-5.72,2.93-6.86,6.19s-2,6.36-3,9.53c-4.57,14.68-3.91,30.32-8.23,45-1.14,3.88-1.35,7.23,2.52,9.59s6.39-.44,8.89-2.42C1558.67,1360.19,1561.33,1345.35,1564.48,1332.28Zm237.16,576.06c.7,2.84,1.49,6.74,2.63,10.53,1.63,5.36,2.83,11.52,9.41,12.89,7.27,1.53,10.19-5,14.15-9.15,1.52-1.58,2.09-4.07,3.06-6.16a8.17,8.17,0,0,0-.46-7.64c-3.47-6.46-8.69-10.92-15.86-12.53S1801.34,1900.05,1801.64,1908.34Zm-210.3,402.84c6.23-.19,11.17-3.95,12.73-9.08,1.34-4.42-.43-8.83-4.84-12.06-6.17-4.5-19.46-2-23.29,4.42-2.13,3.57-1.69,7,1.16,10A22.14,22.14,0,0,0,1591.34,2311.18Z"/>
            <path class="cls-2"
                  d="M2619.57,1208.15c2.82,17.06,2.06,34.31,2.75,51.48.11,2.86-1.06,6,1.47,8.49v104c-3.28,8.14-1.54,16.74-1.81,25.07a549.75,549.75,0,0,1-4.63,56.91c-2.48-8-2.25-16.45-2.87-24.64-2.12-28.18-5.86-56.17-8.88-84.24-5.29-49.27-18.78-96.45-37.78-142.17-14.11-33.94-30.23-66.74-53-95.78-12.58-16-27-30.31-43.93-41.84-3.83-2.61-8-4.87-11-8.51-1.65-2-2.32-4.15-1.17-6.46a5.54,5.54,0,0,1,5.79-3.08,52.82,52.82,0,0,1,9.81,1.68c28.93,8.76,53.75,23.7,74.42,46.27,29.47,32.16,48,70.9,68.43,108.61C2617.87,1205.34,2618.75,1206.73,2619.57,1208.15Z"/>
            <path class="cls-2"
                  d="M493.25,1829.65c-5.22,2.56-8.73,1.08-12.07-.26-15.18-6.08-30-13-43.13-22.83-9.66-7.26-17.75-16-21.31-28.22a55,55,0,0,1,23.48-62.65c19.68-12.55,41.29-19.71,64.18-23.64,40.36-6.94,78.76-.14,116,15.69,23.65,10,46.26,22.07,68.46,34.92,26.24,15.18,51.76,31.49,76.77,48.61a50.76,50.76,0,0,0,17.25,7.63c8.82,2.06,17,5.76,25.08,9.67,16.49,8,32.71,16.46,49.41,24,39.27,17.77,80.15,22.92,122.82,18.15,15.54-1.74,31-3.38,46.41-6.24,14.12-2.62,26.29-8.87,37.86-17.1,24.7-17.59,50.23-33.89,77.66-47,14.81-7.09,30.24-13.3,46.66-13.5,28.4-.35,56.6,2,81.94,17.12,13.86,8.29,23.35,20.66,31.69,34,10.24,16.41,18.83,33.72,27.56,51,2.28,4.5,4.67,8.8,8.54,12.17,3.7,3.24,7.62,3.77,12,1.59,4.16-2.07,8.38-4,12.47-6.24a33.12,33.12,0,0,0,13.34-13.06c10.61-18.48,21.53-36.77,32.45-55.06,2.56-4.29,5.42-8.4,8.38-12.42,10.76-14.59,23.92-25.69,42-30.33,8-2.05,15.77-5.31,23.42-8.54,13.65-5.76,26.89-6.5,40,1.41,3.39,2,7.65,1.57,11.39,3.16,8.88,3.75,16.86,9.36,25.52,13.14,34.07,14.87,67.57,31.38,103.77,40.86,24.79,6.49,50,7.06,75.22,4.07,35.35-4.16,70.06-11.93,104.82-19.34,21.67-4.62,41.64-13.76,61.22-23.83,32.06-16.5,61.68-36.92,91.48-57,25.71-17.36,52.1-33.48,81.11-44.88,33.14-13,67.38-20.58,103.09-20.65,11.66,0,23.31.39,35,.35,9.19,0,12.6-5.53,8.4-13.74-18.23-35.64-43-65.57-76.83-87.58a117.84,117.84,0,0,0-19.55-10c-4.31-1.78-8.57-3.73-11.58-7.56-4.37-5.57-2.66-10.21,4.42-11.36a24.22,24.22,0,0,1,10.89.69c8.29,2.49,16.62,4.84,24.82,7.58,6,2,11.86,4.6,16.56,9,14.55,13.67,30.4,25.89,44.41,40.19,18.5,18.88,35.72,38.56,47.59,62.5,5.17,10.42,12.39,19.74,17.37,30.33,10,21.35,14.94,43.78,16.78,67.35a266.11,266.11,0,0,1-4.73,75.36c-6.62,31.78-22.8,57.26-51.68,73.65-8.11,4.6-16.06,9.47-24.08,14.21-2,1.18-3.91,2.51-6.36,2.72-5.23.43-8.44-3-7-8,1.17-4.17,3.5-7.88,5.93-11.5q15.87-23.61,31.65-47.29a78.08,78.08,0,0,0,9-18.91,20.22,20.22,0,0,0,1.37-7.81c-.45-6-4.85-9.1-10.33-6.39-17.23,8.52-35.86,12.14-54.36,16.24-5.83,1.29-11.75,2.21-17.66,3.14a28.43,28.43,0,0,1-6,.09c-4-.24-7.46-2.29-8.17-6.11-.59-3.15,2.81-5,5.31-6.58a21.43,21.43,0,0,1,4.55-2c25.32-8.81,48.23-22.47,71.22-35.89,10.5-6.13,10.15-15.47-.31-21.58-10.22-6-21.78-8.11-33.06-10.91-24.42-6.07-48.69-4.26-73.08.93-48,10.23-94.08,26.57-140.62,41.61-72.57,23.45-143.35,51.76-215,77.75-39.85,14.46-80.49,25.24-122.82,29.76-16.49,1.76-33,3.48-49.48,5.64a23.14,23.14,0,0,0-3.93.6c-2.66.85-4.75,2.24-5,5.47-.22,2.94.47,5.1,3.28,6.59,17.18,9.14,29.14,24.11,41.18,38.58,14.63,17.6,18.38,38.88,15.49,61.2a112.4,112.4,0,0,1-18.3,49.17,34.84,34.84,0,0,0-2.06,3.42c-1.34,2.57-4.48,5.48-2.23,8,2.78,3.17,7,1.54,10.13-.32,5.16-3,10-6.52,15.1-9.74,7.38-4.69,12.77-2.21,13.77,6.64,1.44,12.63-.31,24.51-8.65,34.87-6.27,7.78-12.76,15.34-19.57,22.64-16.34,17.53-32.72,35-50.44,51.21-21.9,20.06-46.87,35-73.44,47.63-38.23,18.21-77.39,34-118,46-22.74,6.7-45.92,11.71-69.68,11.12-51.27-1.26-102.19-5.94-151.94-19.46-36.13-9.82-68.41-27.41-99.11-48.41C1042,2189.54,1010,2158,978.74,2125.68c-12.26-12.64-23.26-26.52-31.76-42.17a49,49,0,0,1-5.37-16c-.56-3.59.62-6.78,4.21-8.19,3.09-1.21,4.92,1.29,6.67,3.23,4.46,4.94,8.64,10.15,13.26,14.93,23,23.78,50.8,40.42,80.53,54,38.75,17.66,79.63,27.75,121.85,33,32.08,4,64.23,6.12,96.51,5.18,34.26-1,68.55-1.91,102.75-4.07,34.78-2.19,69.58-4.91,103.94-11.41,29.06-5.49,56.44-15.28,81.79-30.71,9.37-5.71,19.18-10.71,28.79-16,2-1.13,4.07-2.26,6.07-3.46,2.89-1.74,6.09-3.52,4.91-7.66-1.29-4.54-5.34-4.71-9-4.4a168.48,168.48,0,0,0-18.75,2.49c-3.68.74-6.62.61-8.75-2.69-2.46-3.8.36-6.1,2.56-8.62a233.71,233.71,0,0,0,35.07-54.39c5.22-11.08,6.64-22.42,5.49-34.88-2.14-23.19-8.31-45.07-17-66.46-1.83-4.52-4.45-9-2.28-14.32,1.06-2.61-1.06-4.34-2.84-5.85-4.14-3.49-9.06-4-14.15-3.3-16.8,2.21-33.69,3.49-50.37,6.75-25.75,5-49.61,15.06-73,26.46-15.86,7.74-31.78,15.31-47.94,22.41a67.38,67.38,0,0,1-47.69,3.06q-32.57-9.51-65.3-18.46c-34.37-9.37-69.31-15.88-104.61-20.67-25.39-3.44-50.75-6.83-76.46-6.11a125.41,125.41,0,0,0-16.83,1.68c-12.19,2-19.42,9.48-24.26,20-5.65,12.27-7.43,25.5-8.89,38.74-1.65,14.93-2.2,30-.63,44.87,1.67,15.84,8.9,29.87,17.9,42.9,3.21,4.66,6.63,9.17,9.92,13.78,1.87,2.6,2.81,5.41.68,8.28s-5.21,2.45-8.21,1.83a16,16,0,0,1-2.82-1,399.24,399.24,0,0,1-84.32-47.16,39.27,39.27,0,0,1-13.29-17.2c-5.61-13.89-11.18-27.79-16.36-41.84-6.69-18.15-10.2-37.21-15.45-55.78a190.07,190.07,0,0,0-8.15-23.56c-3.92-9.13-10.43-15-19.7-18.56-45.7-17.52-90.74-36.66-135.53-56.36-28.94-12.73-58.16-24.68-88-35.21-31.48-11.13-64-17.7-97.18-21.4-35.48-3.95-71.05-3.81-106.64-3.81-23.77,0-25,17.11-17,31A62.37,62.37,0,0,0,479,1816.32,94.88,94.88,0,0,1,493.25,1829.65Z"/>
            <path class="cls-2"
                  d="M709.78,292.63c38-.46,67.48.67,96.79,5.67,12.92,2.2,25,6.87,37,11.68C875.44,322.73,907,336,938,350.8c3,1.43,6.08,2.72,9.18,3.93,7.18,2.8,14.26-.92,13.75-8.69-2.17-33,35.27-58.43,70.51-52.71,23.61,3.84,47.1,8.41,70.73,12.13,21.65,3.41,43.26,7.49,65.31,7.58,1.67,0,3.5-.28,5,.3,12.21,4.92,25,2.84,37.55,3.27,20,.7,39.91,1.47,59.87,2.08,9,.27,17.82.46,26.81-1.35,7.06-1.43,14.54-.56,21.84.71,23.46,4.09,47.07,2.15,70.67,1.57,31.62-.77,62.85-5.52,94.2-8.94,23.11-2.52,46.12-6,69.19-8.86,25.38-3.2,50.8-6.06,76.15-9.44a406.43,406.43,0,0,1,61.66-4c6.52.13,12.51,1.1,17.39,6,3.87,3.91,5.53,8.18,3.92,13.56-1.35,4.46-2.54,9-4,13.39a20.57,20.57,0,0,0-1.25,8.83c.58,5.28,3.41,7.32,8.2,4.77,7.85-4.17,16.31-5.44,24.79-7.12,9.91-2,18.77-6.77,27.43-11.75a374.63,374.63,0,0,1,45.73-22.35c23.94-9.74,49.06-14.39,74.6-17.28,33.86-3.84,67.91-3.5,101.74-1.56,49.15,2.8,94.46,18.25,134.14,48.3a74.5,74.5,0,0,1,13.55,13.24c4.26,5.4,4.85,10,2.24,13.72-2.76,4-6.66,5-13.5,2.73-6.64-2.17-13.23-4.53-19.69-7.2-11.54-4.76-23.61-6.41-35.94-7.63-20.61-2-41.26-2-61.83-1.09-33.16,1.47-66.56,1.07-98.86,11.13-18.47,5.75-36.71,12.16-54.13,20.43-37.89,18-75.81,36-112.34,56.7-28.16,15.94-54.37,34.82-79.27,55.49-15.13,12.56-29.53,25.92-43.53,39.72a116.79,116.79,0,0,0-23.92,33c-6.44,13.53-13.3,26.86-20,40.26a55.45,55.45,0,0,1-4.4,7.82c-1.78,2.44-4.31,4.79-7.52,3.92-3.44-.93-5.31-3.82-5.53-7.52-.43-7.38,0-14.64,2.69-21.64,6.48-17.13,12.88-34.29,19.4-51.4,3.91-10.27,7.94-20.48,12-30.71,1.37-3.47,2.72-6.87-.29-10.24-2.87-3.21-6.18-2.83-10-2-14.6,3.08-27.56,9.82-40,17.66-25.1,15.83-48.41,34.14-71.7,52.45-7.82,6.14-11.26,14.81-11.8,24.48-2.45,43.67,1.62,86.25,18.49,127.31,10.75,26.16,21.51,52.3,33.08,78.11,5.88,13.12,14.41,24.73,23.4,35.89,21.73,27,44.06,53.44,70.1,76.48,17.77,15.72,37.86,28.25,57.56,41.27,3.28,2.17,7.28,3.25,11,4.74,1.22.5,2.61.8,3.71-.3,1.49-1.47.73-3,0-4.49-2-3.94-5.32-6.81-8.41-9.82a299.44,299.44,0,0,1-44.67-54.84c-13.25-21-20.35-44.13-23.71-68.35-3.57-25.68-7.26-51.49-5.86-77.52,1.8-33.5,3.16-67.15,13.68-99.47,6.21-19.12,15.83-36.67,25.87-53.94a383.69,383.69,0,0,1,35.39-50.75c6.39-7.78,13.24-14.72,22.24-19.68,7.24-4,13.66-9.44,20.57-14.07,36.73-24.57,76.78-41.24,120.3-48.86,13-2.27,26.22-4.35,39.55-3.42,6.76.48,13.2-2,19.81-1.74,10.62.44,21.28,1,31.81,2.4,32.55,4.19,64,13.41,94,26.13,26.63,11.27,52.41,25,72.91,46.19A241,241,0,0,1,2122,549.21,335.6,335.6,0,0,1,2159.46,636c6.66,24.08,10.43,48.67,12.86,73.58,3.23,33.2.16,65.9-6.77,98.14a241.58,241.58,0,0,1-52.17,106.56c-41.71,49.44-96.29,76.42-157.68,92a422.49,422.49,0,0,1-65.81,11c-15.64,1.42-31.26-.34-46.78-2.23-38.63-4.71-74-18.68-107.54-37.94-3.46-2-7-4-11.17-3.87-3.4.13-5,2-3.79,5.24,1.16,3.1,3.12,5.9,4.26,9,4.52,12.27-2.3,21.89-15.34,22.45-15.75.68-30.39-3.56-44.4-9.93C1616,977.78,1572.8,946.91,1536.55,907c-28.66-31.55-50.64-67.43-64.72-108-8.82-25.45-18.91-50.47-28.48-75.67-9.12-24-15.89-48.65-18.76-74.24-4.42-39.4-.27-77.73,15.72-114.27,13.67-31.23,35.47-56,62.4-76.53,28.54-21.79,60.62-37.27,92.66-52.86,21.56-10.49,42.94-21.35,64.72-31.34,12.92-5.92,17.09-17.12,19.86-29.29,1.54-6.74-4.63-12.26-13.21-12.77-15.78-.93-31,1.49-46.27,5.84-25.58,7.32-50.89,15.69-76.94,21.24-27.61,5.89-55.23,10.79-83.78,11.07-31.83.31-63.67,1.86-95.54,1.87-28,0-55.87-1.79-83.81-2.33-16.61-.32-33.22-.79-49.8-1.66-50.76-2.68-101.47-5.57-151.6-15.08-18.88-3.59-37.89-7.47-57.34-7a60,60,0,0,0-7,.24c-4.73.67-7.84,3.75-9.49,7.93s1.23,6.95,3.89,9.54a36.1,36.1,0,0,0,5.4,4.39c49.76,32.2,98.68,65.58,144.93,102.74,28.37,22.8,42.84,53.08,47,88.44,3.09,26,5.24,52.25,7.43,78.38a344.88,344.88,0,0,1-2.19,75.73c-3,21.86-7.3,43.27-15.41,63.86-2.21,5.64.48,10.56,7.71,14,7.68,3.65,14.93,8,19.38,15.22,5.9,9.64,10.8,19.85,13.64,31,2.29,8.89,1.83,17.9,1.17,26.82-.42,5.62-1.28,11.22-1.32,16.89a13.42,13.42,0,0,1-.75,4.9c-1.82,4.46-4.61,8.35-9.63,9.25-3.69.66-8.23-4.3-9.75-9.89a45.69,45.69,0,0,1-1.57-11.83c-.05-12.69-1.9-25.21-4.34-37.63-1.7-8.65-4.89-16.63-12-22.41-7.82-6.33-13.08-6.06-19.86,1.37a51.4,51.4,0,0,0-6.41,8.88c-15.25,26.39-34.63,49.71-54.63,72.47-16.24,18.49-33,36.61-50.47,53.94-22.38,22.15-47.1,41.23-74.92,56-19.48,10.38-40.1,17.88-62,21.38a52.3,52.3,0,0,1-15.94.26c-9.87-1.48-15.13-9.43-13.89-19.4s7.21-16.1,15.25-20.93c21.72-13.05,42-28.14,62.49-43,24.73-18,45.34-40.05,65.51-62.7,18.17-20.4,34.15-42.56,51.76-63.42,13.93-16.51,26.51-34.21,39.06-51.82,10.08-14.15,16.78-30.28,23.86-46,12.17-27.06,22.2-54.93,27.41-84.27,2.09-11.75,4-23.6,2.09-35.69-2.65-16.52-12.19-29.31-22.13-41.86-16.08-20.3-36.82-35.48-57-51.19-15.26-11.86-31.9-21.76-47.91-32.54a18.39,18.39,0,0,0-4.32-2.45c-4.53-1.49-8,1.06-8.09,5.81,0,2.72,1.05,5.18,2,7.68q7.56,20.1,15,40.22c.35.93.81,1.83,1.14,2.77,1.45,4.08,3.69,8.71-.8,11.83-4.72,3.28-7.32-1.83-9.78-4.37-11.8-12.19-23.64-24.39-34.75-37.21-15.68-18.12-34.59-32.2-54.66-44.73-29.09-18.16-59.16-34.61-89.76-50.12-19-9.63-37.49-20.1-57.65-27.35-27.7-10-56-16.91-85.41-18.95-5.63-.39-11.15-1.5-16.84-1.71-28.73-1-57.13,2.07-85.43,6.29-20.69,3.09-41.4,6.31-61.84,10.68-21.12,4.52-41.93,10.51-62.88,15.84-12.57,3.19-25.19,6.21-37.72,9.57-6.89,1.85-13.85,1.52-20.83,1.49-2.79,0-5.39-.57-6.4-3.67-.87-2.65.65-4.53,2.44-6.08,12.18-10.49,22.13-23,32.61-35.09a31.93,31.93,0,0,1,15.75-10.13c36.32-10,71.51-23.16,106.28-37.59,18.85-7.83,39-10.73,59.17-13.14C678.17,292.15,698.12,292.44,709.78,292.63ZM2160.64,745.41c.38-37.69-3.65-67.36-10.79-96.55-9.18-37.48-23.61-72.72-46.41-104.23-20.61-28.48-47.26-49.32-79-64.16-44.88-21-91.63-33.89-141.55-33.88-41.29,0-80.65,9.2-118.07,26-48.61,21.76-90.87,51.5-117.36,99.58-1.28,2.33-2.82,4.52-4.17,6.81-12.73,21.57-24.12,43.7-29.19,68.55-10.43,51.14-10.56,102.48-3.12,154,4.69,32.46,18,61,38.75,86.29,30.39,37.11,66.58,66.91,109.53,88.33,38.12,19,78.26,29.35,121.13,28.55a285.45,285.45,0,0,0,54.38-6.45c40.63-8.65,79.56-21.75,114.65-44.59,42.83-27.87,74.53-65,92.81-113.07C2154.85,807.46,2160.58,773.16,2160.64,745.41Z"/>
            <path class="cls-2"
                  d="M1027.42,1449.75c-21.62.29-43.23-.52-64.87,1.31-13.16,1.12-24.92-4.2-33.56-14.6a138.31,138.31,0,0,1-18-28.68c-8-16.69-6.88-32.77.66-49.07,7.92-17.13,19-32,31.81-45.72,4.32-4.62,8.86-9,13.48-13.37a110.9,110.9,0,0,0,30.54-48.52c4.4-14.19,12.92-24.16,25.21-32.12,21.24-13.74,43.6-23.93,68.9-27.61,10.34-1.51,19.25.12,27,6.74a205.22,205.22,0,0,1,16.49,16,26.21,26.21,0,0,1,6.56,14.35c1,6.57-4.5,10.93-10.57,8.46-5.29-2.16-9.65-5.82-13.81-9.72-16.73-15.67-31.83-17.31-51.59-5.64-13.92,8.22-25.5,19.21-36.17,31.19-24.41,27.37-46.49,56.56-67.2,86.82-12.1,17.68-11.88,36.86-6.86,56.55a22.91,22.91,0,0,0,4.17,7.89c6.52,8.59,12.45,9.45,21.26,3.12,4.05-2.91,7.79-6.25,11.72-9.33,8.12-6.35,17.3-9.35,27.65-10.06,29.21-2,54.28,7.92,76.69,25.74,18.26,14.52,34.82,31,52.42,46.25,24.65,21.38,49.42,42.61,78.45,58.14a179.65,179.65,0,0,0,54.51,18.69c20.64,3.57,41.17,8.67,62.23,7.65,35.18-1.71,66.63-13,94-36.28,32-27.25,61.53-57,92.52-85.28,17.26-15.75,35.35-30.36,57.19-39.59,7.66-3.24,9.26-7.6,6.7-16.09-4.89-16.17,1.57-29.23,11.28-41.38,1.46-1.82,3.36-3.36,6-2.39,3,1.07,5.5,2.81,5.72,6.22a34,34,0,0,1-.54,7.92c-1.28,7.53-2.84,15-4.13,22.56-1.88,10.91.56,15.52,11.05,19,9.46,3.17,17.12,8.71,23.8,15.88,6,6.39,9.25,13.76,8.29,22.69a33.23,33.23,0,0,0-.22,4c.08,8.81,5.07,13.32,13.94,12.84,4.1-.23,7.78-1.73,11.43-3.36,28.73-12.85,37.68-41.24,28.9-68.17-1.82-5.58-5.65-9.79-9.72-13.73-12-11.62-22.34-24.63-32.49-37.85-10.89-14.16-18.6-29.93-24.65-46.61a69,69,0,0,1-3.32-14.55c-1.19-8.92-6.52-12.26-15.41-10.76-12.66,2.14-24.13,7.17-35.31,13.32-10.67,5.87-21,2.77-27.49-7.31-3.27-5.06-3.75-10.27,0-14.82,7.42-8.94,14.57-18.32,24.51-24.69,14.69-9.4,29.64-8.52,44.27.22,18.44,11,32,26.9,43.54,44.67,7.8,12,14.37,24.77,20.81,37.55a88.16,88.16,0,0,0,26.78,31.76,71.06,71.06,0,0,1,12.67,12.68c7.59,9.34,15.88,17.85,26.62,23.81,5.5,3,10.52,7,15.46,11a115.19,115.19,0,0,0,42.57,21.15c50.21,13.41,101.27,22.21,152.61,29.87,36.81,5.5,73.74,10.09,110.62,15,41.16,5.52,82.29,11.32,123.44,17,33,4.54,65.72,9.94,96,25.23,40.09,20.22,78,43.41,108.75,76.72,21.36,23.14,35.19,50.39,44.41,80.58,9.42,30.86,13,62.48,15.74,94.25,2.41,28.38-2,55.75-16.89,80.8-5.44,9.15-10,18.82-16.2,27.54-2.58,3.64-5.07,9.08-10.56,7.47-6.18-1.81-5.13-7.92-4.77-12.8,1.9-26.17,3.26-52.38,6.95-78.41,2.35-16.54-1.5-32.46-7.42-47.85-10.26-26.65-25.8-50.29-42.39-73.28-11.11-15.39-23.52-29.73-36.22-43.83-11.61-12.89-26.5-21.14-41.67-28.79-31.6-16-65.09-27.26-98.7-38-42.48-13.51-85.51-25.2-128.7-36.3-59.61-15.32-119.89-27.72-179.73-42-30.14-7.21-59.61-16.55-87.23-31.14-14.87-7.86-28.94-16.85-40.11-29.31-7.07-7.89-14.42-4.25-16.56,4.46A101.57,101.57,0,0,1,1721.9,1424c-11.45,14.77-26.63,22.57-44.75,25.67-23.08,4-45.27,1.14-65.87-9.8-16.39-8.7-31.13-6.36-46.16,2.86-27,16.57-49.53,38-69.5,62.4-12,14.67-23.56,29.74-38.52,41.74-20.81,16.7-44.14,26.77-70.86,29.36-12,1.16-23.88,1.77-35.86,1.74-3,0-6,0-8.78,1.38-4.92,2.45-6.07,5.59-3.66,10.41,8.52,17,2,30.94-16.59,35a78.63,78.63,0,0,1-31.78.5c-15.36-3-24.43-14.41-30.24-28-3.28-7.72,2.11-13.88,10.61-13.36a40.44,40.44,0,0,1,7.76,1.68,45.09,45.09,0,0,0,15.87.86c3.32-.31,5.81-1.31,5.93-5.23.11-3.65-1.53-5.45-5.18-5.89-7.25-.87-14.45-2.31-21.72-2.93-30-2.57-55.51-15.17-78.12-34.5-22-18.81-45.16-36.29-65.8-56.69-6.15-6.09-12.13-12.37-18-18.72-8.2-8.87-18.23-12.85-30.29-12.68C1062.73,1449.93,1045.07,1449.75,1027.42,1449.75Z"/>
            <path class="cls-2"
                  d="M1512.27,1305.2c-1.31,30.87-7,68.43-25.49,103.07-2.83,5.31-5.6,10.65-9.67,15.09-28.42,31-57.44,61.34-96.32,79.59-27.3,12.82-55.86,18.26-86.21,15.61-18.48-1.61-36.2-4.92-52.91-13-22.77-11-40.55-27.78-54.1-48.91a226.75,226.75,0,0,1-24.42-51.26c-1.37-4.13-2.75-8.27-2.5-12.67.35-6.19,5.34-8.73,10.42-5.1,3.23,2.3,5.82,5.48,9,7.91,25.24,19.45,53.55,31.48,85.07,36.83,52.24,8.88,98.43-5.23,139.59-36.63,30.16-23,45.28-54.74,48.43-92.62,2.42-29.11-.73-57.82-4.8-86.44-2.69-18.86-9.74-35.77-26.7-47.17a50,50,0,0,1-18.25-22.08c-3.23-7.61-9.2-12.92-15.09-18.36-6.28-5.8-6.6-6.24-2.25-13.47,3.42-5.69,3.54-11,1.8-17.11-6.68-23.42-10.09-47.45-12.55-71.62-.51-4.91-.88-9.93,3.49-13.91,3.54-3.23,6.92-3.74,10.68-.81a40.39,40.39,0,0,1,11.12,13.95c11.55,22.87,22,46.27,32.56,69.62,6.88,15.23,13,30.56,13.5,47.65.18,6.42,4.69,10.86,9.21,14.9,25.69,23,41,52.12,49.47,85C1509.89,1261,1512.47,1279.1,1512.27,1305.2Z"/>
            <path class="cls-2"
                  d="M1047.25,722.72c.51,50.56-8,96-29.07,138.64-18.82,38.11-46.1,68.84-81.23,92.9-37.22,25.48-78.64,40-122.2,49.78a276.67,276.67,0,0,1-80.36,5.88,265.07,265.07,0,0,1-84.9-20.82c-43.82-18.56-82-45.5-115.09-79.53-6.92-7.11-13.65-9.17-23.14-6.23-16.19,5-32.26,1.71-48.12-2.6-1.6-.44-3.17-1-4.75-1.53-10.24-3.28-14.19-.81-15.23,9.86-1.48,15.16-8.37,27.25-20.59,36.16-12.43,9-26.29,12.21-41.56,9.66-11.91-2-23.49-4.64-33.69-11.54A29.31,29.31,0,0,1,335,926.93c-4.73-16.17-7.09-32.55-3.05-49.21,5.09-21,17.2-36.44,37.19-45.38a25.29,25.29,0,0,1,15.64-1.72c6.36,1.32,12.53.62,18.83,0,10.36-1,17.3-6.33,21.25-15.71,4.78-11.36,12.34-20.42,22.06-27.84a23.61,23.61,0,0,1,10.6-5.06c7.19-1.26,10.05-5.17,9.73-12.6s-1-14.59-1.79-21.86c-3.1-28.27-1.38-56.41,1.54-84.6,1.34-12.93,2.92-25.75,5.48-38.48,5.76-28.55,19.05-53.83,34-78.39.87-1.43,1.88-2.76,2.69-4.21,32.75-58.39,77.53-82.47,135.11-106.17,27.81-11.45,57.13-17.57,87.3-19.44a312.8,312.8,0,0,1,115.06,14.14c32.8,10.43,64.43,23.49,92.67,43.65a213.63,213.63,0,0,1,62.88,69.8,334.86,334.86,0,0,1,37.38,101.74C1044.67,672.15,1047.74,698.89,1047.25,722.72ZM476.69,711.2a460.28,460.28,0,0,0,6.67,82.54c2.25,12.62,6.4,24.3,13.7,35a193.86,193.86,0,0,1,19.46,36,74.33,74.33,0,0,0,13.17,21c36.1,41.28,79,73.1,130,93.75C695.08,993.85,732,1000.43,770,997.6c35-2.61,68.93-10.91,101.64-23.69,79.74-31.15,132.73-86.66,153.88-170.64,8.85-35.15,10.93-70.81,8-107-3-37.46-10.88-73.66-24.72-108.52C994.6,552,974.38,520.22,945,494.85c-17.31-14.94-37.38-25.45-57.94-35-37.76-17.56-77.31-29-119-31.07-73.4-3.66-139.23,17.91-197.83,61.88-9.27,7-19,13.45-26.24,22.91a426.47,426.47,0,0,0-40.35,63c-8.6,16.6-15.82,33.7-19.47,52.21C478.78,656,476.83,683.52,476.69,711.2Zm-117,180.16c-.34,16.72,5.56,25.9,17.81,30,13.16,4.42,24.63.28,32.75-11.87a50.62,50.62,0,0,0,5.64-12.65c5.77-17.56-10.82-33.54-26.33-32.36a92.87,92.87,0,0,0-14.71,2.42c-8.21,2-13.32,7-14.06,15.83C360.49,886.35,359.88,890,359.7,891.36Z"/>
            <path class="cls-2"
                  d="M892.6,1375.59c-.55,1.38-1,2.65-1.54,3.83-9.07,18.24-20.57,34.16-39.68,43.29-44.19,21.13-89.44,39.46-136.66,52.77-46.11,13-92.54,24.72-139.7,33.26-32.37,5.87-64.9,10.67-97.72,13.59-34.41,3.07-68.7,7.52-103.07,11-15.88,1.61-31.61,4.37-47.45,6-23.41,2.4-43.23,12.79-61.75,26.19-24.73,17.89-46.36,38.93-63.27,64.55-2,3.05-3.9,6.26-6.93,8.45-2.16,1.56-4.38,3.36-7.23,1.58a7.38,7.38,0,0,1-3.79-7.56c.39-3.38,1.93-6.35,3.35-9.36,9.14-19.42,21.85-36.53,34.85-53.43,22.9-29.8,48.73-56.49,81.69-75.33A349.43,349.43,0,0,1,402,1456.21a418.34,418.34,0,0,1,85-10.07c32.27-.46,64.55-1,96.79-2.43,40.52-1.77,81.06-3.47,121.4-7.91,28.11-3.09,56.08-7.24,83.16-15.81a250.78,250.78,0,0,0,53.77-23.72c12-7.19,23.69-14.84,35.55-22.25,2.8-1.75,5.45-3.91,9-3.84S892,1372.22,892.6,1375.59Z"/>
            <path class="cls-2"
                  d="M1596.43,2545.57c-3.1,0-6.27-.07-7.19-3.8-.79-3.22,1.74-4.75,4-6.25,9.64-6.54,19.17-13.22,30.69-16.28,13.68-3.63,25.65-10.95,37.66-18.11,13.72-8.18,27.28-16.64,41.11-24.63,14.21-8.2,27-18.18,39.11-29.18,36.19-32.89,72.7-65.45,108.72-98.53,29.22-26.84,55.35-56.65,80.94-86.93,17.17-20.32,34.16-40.82,51.94-60.61,18.62-20.71,32.78-44.39,47.39-67.81,13.39-21.47,26.56-43.06,39.9-64.55a61.25,61.25,0,0,1,5.47-7.1,3.58,3.58,0,0,1,4.53-.89,3.48,3.48,0,0,1,2,4.15,128,128,0,0,1-3.21,12.54,390.75,390.75,0,0,1-26.48,60,1071.23,1071.23,0,0,1-75.86,120.86,770.46,770.46,0,0,1-147.87,154.65c-40.22,31.7-81.18,62.29-125.48,88.15-30.84,18-62.5,34.17-97.49,42.73-2.25.55-4.53,1-6.81,1.47A21.16,21.16,0,0,1,1596.43,2545.57Z"/>
            <path class="cls-2"
                  d="M63.84,1474.45c-1.63-29.51,2.34-58.44,7.17-87.37,4.61-27.52,8.33-55.19,12.57-82.77a278.36,278.36,0,0,1,32.4-93.82c15.22-27.34,29.94-54.93,47.4-81,10.23-15.26,22.41-28.92,33.83-43.2s21.63-29.52,34.68-42.47c12-11.95,23.69-24.31,38.31-33.28a26,26,0,0,1,9.09-3.94c2.72-.47,5.4-.37,7.09,2.32s.63,5.11-1.14,7.3q-8.5,10.44-17.05,20.84c-31,37.58-58,77.93-83.61,119.24-30.38,49-51.86,101.84-67.19,157.34A702.21,702.21,0,0,0,98,1405.3c-3.07,22.39-4,45-5.15,67.58-1.36,26.19-2.34,52.43-5.15,78.54-.68,6.27-.41,12.64-.67,19-.09,2.31,0,4.78-.75,6.88-1.83,5-6.6,5.9-10.17,1.93-3.41-3.78-5.09-8.49-6.39-13.38-3-11-2.47-22.44-3.66-33.65C64.08,1513,62.85,1493.7,63.84,1474.45Z"/>
            <path class="cls-2"
                  d="M16.62,1264.28c-2.4-15.57-.2-31,1-46.53a1315.75,1315.75,0,0,1,35.84-218.7A1236.52,1236.52,0,0,1,101,850.16c1.08-2.76,2.56-5.37,3.86-8,5.51,1.3,9.59-2.11,13.87-4.45,28.89-15.81,57.62-31.92,86.59-47.58a238.32,238.32,0,0,1,60.61-22.57c4.26-1,8.59-1.77,12.84-.88,5.85,1.21,7.16,5.9,3.12,10.14a21,21,0,0,1-8.21,5.52c-5,1.78-9.86,4.18-15,5.45-35.09,8.71-64.64,27.66-92.13,50.15a257,257,0,0,0-55.92,63.26c-7.92,12.7-17,24.72-23,38.53-4.37,10.07-8.71,20.21-8.53,31.54a46.08,46.08,0,0,0,.08,5c1.19,8.88,8.73,12.34,15.81,6.87,9.24-7.15,16.87-16,24.7-24.65,20.39-22.47,41.72-43.91,67.36-60.56a102,102,0,0,1,19.38-10.23,54.83,54.83,0,0,1,9.6-2.57c2.31-.42,5-.15,5.87,2.53.76,2.22-1.17,3.63-2.65,4.94-11,9.68-21.83,19.49-33,29-20.42,17.37-37.63,37.58-53.16,59.31-17.41,24.36-34.53,48.91-49.78,74.74-21.33,36.14-36,74.8-46,115.45-6.43,26.15-12.46,52.38-17.75,78.78C18.59,1254.62,15.41,1259,16.62,1264.28Z"/>
            <path class="cls-2"
                  d="M1883,2411.76c-2.69,0-5.29-.1-7.45-2.12-2.8-2.61-3.94-5.42-1.2-8.69a40.79,40.79,0,0,1,8.21-7.22c22.16-15.44,42.58-33,62.6-51.06,56.4-50.92,108.82-105.89,162.58-159.49a336.15,336.15,0,0,0,41-50.12c23.88-35.29,48.56-70,73.36-104.66,5-7,10.5-13.74,16.08-20.34,2.14-2.53,4.27-6.89,8.85-3.69,4.24,3,1.35,6.77.37,10-4.59,15-12.43,28.43-20.68,41.63-18.15,29.09-35.47,58.73-55.51,86.58-15.75,21.89-33,42.66-50.43,63.21-20.47,24.1-41.12,48-62.94,70.93-27.88,29.26-59.37,54.31-91.14,79.1-17,13.27-33.93,26.67-51.42,39.31-6.47,4.68-13.12,9.13-19.95,13.26A22.2,22.2,0,0,1,1883,2411.76Z"/>
            <path class="cls-2"
                  d="M1274.82,2601.07c-18.4-2.67-37.59-4.24-56.56-7.73-46.78-8.59-93-19.27-138.47-33.43-53-16.53-101.09-42.16-145.28-75.62-23.6-17.87-47.74-35-69.68-55-16.79-15.26-32.27-31.69-44.78-50.73a43.1,43.1,0,0,1-4.26-7.87c-1.29-3.27-1.12-6.61,1.78-9.16,2.63-2.31,5.59-1.77,8.44-.52a47.31,47.31,0,0,1,14.09,9.3c10.23,10,20.43,20,30.5,30.2,21.07,21.26,41.57,43.08,65.59,61.24,19,14.35,39.63,25.73,61.31,35.2,50.3,22,101.76,41.06,153.37,59.68,36.62,13.21,74.69,21.58,112.43,31,4.51,1.12,9,2.31,13.47,3.65,3.08.92,7.33,1.36,6.75,5.83S1278.68,2600.71,1274.82,2601.07Z"/>
            <path class="cls-2"
                  d="M1358.84,782.06c-1.84-33.33,1.22-67.14,6.67-100.62,2.92-17.9,6.34-36.1,16.74-51.84,2.78-4.21,5.72-8.25,9.75-11.24,4.57-3.4,9.39-1.54,10.49,4a37.69,37.69,0,0,1,.23,8c-.78,42.27,2.4,84.47,2.55,126.73,0,12.91.79,25.89,1.11,38.85.4,16.39-3.5,32.35-4.71,48.59s-3.56,32.37-3.13,48.69c.3,11-1.13,21.91-2.15,32.83a29,29,0,0,1-.89,4.89c-1,3.47-3.13,6-6.77,6.54s-5.14-2.5-6.69-5c-6-9.85-8.41-21-10.62-32-4.38-21.82-9.2-43.58-11.89-65.7-1.45-11.92-.79-23.93-.7-35.91C1358.87,793.42,1358.84,788.09,1358.84,782.06Z"/>
            <path class="cls-2"
                  d="M363.58,1803.88a267.53,267.53,0,0,1,16.7-91.31c9.24-25.42,19.74-50.37,35.14-72.66,18.54-26.85,43.87-46.19,72.71-61.06a316.78,316.78,0,0,1,86.66-29.44,25.93,25.93,0,0,1,5.88-.85,8.82,8.82,0,0,1,7.36,4.5c1.92,3.24-.17,5.77-1.95,8.13-3.34,4.41-8.23,6.78-13.1,8.88-13.74,6-27.45,12-41.45,17.33-23.87,9-43.61,24-61.73,41.46a349.19,349.19,0,0,0-39.8,46c-14.88,20.46-22.66,44.34-30.57,68a329,329,0,0,0-13.65,60.24c-1.84,13.6-1.37,27.31.07,40.89,1.75,16.5,4.36,32.92,6.57,49.37a13.93,13.93,0,0,1,.08,4c-.55,3.31-3.31,4.24-5.84,1.94-3-2.77-4.6-6.54-6.06-10.24a239.35,239.35,0,0,1-14.93-59.88C364.49,1819.33,363.08,1809.41,363.58,1803.88Z"/>
            <path class="cls-2"
                  d="M1265.53,1364c19,.81,37.78-.51,56.32-5.53,43.24-11.71,76.13-47.65,75.14-98.15-.39-20-4.36-39.65-5.11-59.6-.13-3.34-.74-6.64.49-9.86,2.06-5.34,7.17-6.38,11-2.22a15.78,15.78,0,0,1,2.09,3.38c9.9,19.06,17.66,38.65,17.41,60.72-.24,21.62-.59,43.14-3.73,64.66-3.09,21.13-13.08,37.65-29.64,50.15-21.79,16.44-45.8,28.56-73.3,31.82a93.78,93.78,0,0,1-49.71-7.76c-6.69-3-13.23-6.18-20.23-8.43a42.19,42.19,0,0,1-14.84-8c-1.95-1.68-4.45-3.49-3-6.67a6.86,6.86,0,0,1,6.2-4.35c3.32-.12,6.65-.12,10-.13Z"/>
            <path class="cls-2"
                  d="M2521.62,811.92a30.26,30.26,0,0,1,4.84,11.59c-10.28-1.28-19.3-7.1-29.64-8.22-2-.22-3.88-.91-5.84-1.15-8.21-1-8.29-.89-7.82,7.85.22,4-1.86,5.54-6.7,3.73-9-3.38-17.81-7.32-26.7-11-22.47-9.29-43.49-21.37-64.8-32.94-10.5-5.7-21.53-10.41-32.27-15.67-6.57-3.23-13-6.73-18-12.25-2.41-2.65-6.16-5.18-3.69-9.28,2.34-3.91,6.69-2.39,10-1.61,8.71,2.06,17.28,4.72,25.94,7,34.17,9.13,66.38,23.09,98,38.81a328.88,328.88,0,0,0,50.66,20.64c1.62.49,3.17,1,4.8.13l-.14.2C2519.9,811,2520.52,811.62,2521.62,811.92Z"/>
            <path class="cls-2"
                  d="M1723.34,1972.63c-.42,7.45-2.88,14.33-6.3,20.82a172.77,172.77,0,0,1-23.4,33.34,12.51,12.51,0,0,1-1.37,1.45c-3.74,3.19-7.28,7.59-13,4.5-5.43-2.94-6.28-8.44-5.74-13.83a133,133,0,0,1,3.31-18.57c4.18-16.75-.34-32.17-6.7-47.37-2.05-4.9-4.49-9.66-6.16-14.67-2-6.17,1.44-11.27,7.75-12.16C1694.78,1922.87,1724.23,1949.38,1723.34,1972.63Z"/>
            <path class="cls-2"
                  d="M2540.94,861.5c8.2,16.36,13,34,18.91,51.2,9.51,27.91,17.36,56.33,24.86,84.84.93,3.53,1.8,7.05,1.46,10.75-8.08-13.65-16.37-27.18-24.18-41-12.28-21.67-26.31-42.19-40.55-62.56-8.39-12-14.05-25.54-21.84-37.86-1.65-2.62-1.16-5,.75-7.28,4.12-5,9.2-7.91,15.7-6.18,5.6,1.5,12,.9,16.41,6.08C2534.48,861.86,2537.93,861.52,2540.94,861.5Z"/>
            <path class="cls-2"
                  d="M1484.88,2389.33a113.76,113.76,0,0,1-.94,11.86,7.05,7.05,0,0,1-6,5.95c-3.09.48-4.83-1.9-6.22-4.17a30.61,30.61,0,0,1-2.94-6.3c-5.94-18.25-17.55-31.69-34-41.31a138.74,138.74,0,0,1-27-20.27,65.63,65.63,0,0,1-7.82-9c-5.34-7.54-2.53-14.38,6.63-15.82,9.35-1.47,18.56.21,27.59,2.55,12.43,3.23,23.26,9.7,33.12,17.72a30.52,30.52,0,0,1,9.77,14.77A169.92,169.92,0,0,1,1484.88,2389.33Z"/>
            <path class="cls-2"
                  d="M1296.75,1685.65c-10.31-.61-20-3-28.59-8.39-12.72-7.92-22-19.14-29.42-32-1.91-3.31-3.16-6.73-.67-10.29s6.32-3.46,9.93-2.53c8.37,2.14,16.79,4.2,25,7,16.7,5.65,33.47,8.37,50.84,3.38a15.74,15.74,0,0,1,5-.41c9.15.46,13.83,7.7,9.78,15.87C1330,1675.5,1316,1684.79,1296.75,1685.65Z"/>
            <path class="cls-2"
                  d="M704.74,1846c13.85.14,25.87,5.88,37.25,12.9,11.88,7.34,23.4,15.27,34.9,23.2,9.68,6.68,10.07,12.61,2.15,21.21-6.9,7.49-15.88,12.07-24.28,17.35-5.65,3.56-10.28,1.5-13.75-5.16-3.69-7.08-7-14.38-10.48-21.55a112.66,112.66,0,0,0-10.28-17.08c-6.17-8.4-13-15.95-22.22-21.17-2.53-1.45-6-2.87-5-6.49,1-3.46,4.75-3,7.7-3.19C702.07,1845.91,703.41,1846,704.74,1846Z"/>
            <path class="cls-2"
                  d="M1568.34,2344.72a29.78,29.78,0,0,1-4.3,14.74c-4.19,7.16-9.68,7.7-15.1,1.59a40.5,40.5,0,0,1-5.58-8.2A49.37,49.37,0,0,0,1514.8,2328a66.87,66.87,0,0,1-17.51-9.34c-3.9-2.86-8.94-5.87-7.78-11.67s6.13-8,11.59-9.57,10.53-.7,15.68.43c16.58,3.66,31.34,10.78,42.66,23.81C1564.78,2327.8,1568.37,2334.84,1568.34,2344.72Z"/>
            <path class="cls-2"
                  d="M1732.66,1951.57c.69-8.25,1-16.56,2.15-24.75,1.83-13.19,11.77-17.75,23-10.85a56,56,0,0,1,14.51,13.51c3.94,5,4.82,10.84,3.83,17q-1.9,11.76-4,23.49c-1.8,10-8.4,14.84-18.39,13.63-11.3-1.36-19.69-10.2-20.69-22-.28-3.3,0-6.64,0-10Z"/>
            <path class="cls-2"
                  d="M2204.11,360.28c9.34,5.38,16.1,13.78,23.65,21.1a1302.79,1302.79,0,0,1,136.71,155.25q31.05,41.48,58.61,85.38c9.45,15.13,18.43,30.55,27.66,45.81.86,1.44,1.86,2.75,1.58,4.56-7.35-7.82-11.66-17.73-18-26.23-2.19-2.93-3.62-6.72-6.36-8.9-18.11-14.41-25.6-36.19-38.1-54.46-5.1-7.44-9.46-15.16-17.27-20.29-3-2-5.89-4.53-7.34-8-7.14-17.11-18.95-31.26-29.9-45.77-37.55-49.75-79.59-95.59-124.19-139.09C2208.36,366.92,2204.67,364.74,2204.11,360.28Z"/>
            <path class="cls-2"
                  d="M1564.48,1332.28c-3.15,13.07-5.81,27.91-18.57,38-2.5,2-5.15,4.7-8.89,2.42s-3.66-5.71-2.52-9.59c4.32-14.71,3.66-30.35,8.23-45,1-3.17,1.85-6.39,3-9.53s2.86-6.3,6.86-6.19c4.23.11,6.55,3,7.61,6.76A132.78,132.78,0,0,1,1564.48,1332.28Z"/>
            <path class="cls-2"
                  d="M1801.64,1908.34c-.3-8.29,5.78-13.66,12.93-12.06s12.39,6.07,15.86,12.53a8.17,8.17,0,0,1,.46,7.64c-1,2.09-1.54,4.58-3.06,6.16-4,4.14-6.88,10.68-14.15,9.15-6.58-1.37-7.78-7.53-9.41-12.89C1803.13,1915.08,1802.34,1911.18,1801.64,1908.34Z"/>
            <path class="cls-2"
                  d="M1591.34,2311.18a22.14,22.14,0,0,1-14.24-6.68c-2.85-3-3.29-6.47-1.16-10,3.83-6.45,17.12-8.92,23.29-4.42,4.41,3.23,6.18,7.64,4.84,12.06C1602.51,2307.23,1597.57,2311,1591.34,2311.18Z"/>
            <path class="cls-2" d="M2454.16,675.72c2.72,1.39,3.51,4,4.1,6.66A8.91,8.91,0,0,1,2454.16,675.72Z"/>
            <path class="cls-2" d="M2452,672c2.05.81,2.69,2.33,2.23,4.41A7.49,7.49,0,0,1,2452,672Z"/>
            <path class="cls-2" d="M2585.85,1008c2.14.64,1.62,2.42,1.68,4Z"/>
            <path class="cls-2" d="M2192.08,349.31c1.68.67,3.48,1.19,4.19,3.16A4.2,4.2,0,0,1,2192.08,349.31Z"/>
            <path class="cls-2" d="M2202.07,358.29a2.42,2.42,0,0,1,2.2,2.2Z"/>
            <path class="cls-2" d="M2200.07,356.3a2.4,2.4,0,0,1,2.2,2.2Z"/>
            <path class="cls-2" d="M2198.07,354.3a2.42,2.42,0,0,1,2.2,2.2Z"/>
            <path class="cls-2" d="M2196.06,352.3a2.43,2.43,0,0,1,2.21,2.2Z"/>
            <path class="cls-1"
                  d="M2521.62,811.92c-1.1-.3-1.72-.91-1.39-2.13C2522,809.66,2521.73,810.83,2521.62,811.92Z"/>
            <path class="cls-3"
                  d="M2160.64,745.41c-.06,27.75-5.79,62.05-18.36,95.1-18.28,48.06-50,85.2-92.81,113.07-35.09,22.84-74,35.94-114.65,44.59a285.45,285.45,0,0,1-54.38,6.45c-42.87.8-83-9.53-121.13-28.55-43-21.42-79.14-51.22-109.53-88.33-20.73-25.33-34.06-53.83-38.75-86.29-7.44-51.49-7.31-102.83,3.12-154,5.07-24.85,16.46-47,29.19-68.55,1.35-2.29,2.89-4.48,4.17-6.81,26.49-48.08,68.75-77.82,117.36-99.58,37.42-16.75,76.78-25.94,118.07-26,49.92,0,96.67,12.86,141.55,33.88,31.69,14.84,58.34,35.68,79,64.16,22.8,31.51,37.23,66.75,46.41,104.23C2157,678.05,2161,707.72,2160.64,745.41ZM1881.19,602.12c-8.35-.35-17.53,1-26.6,3.36C1779.1,624.85,1737.16,718,1791,792.15c36,49.65,110.57,62.55,162,19.2,35.31-29.76,48.84-68.43,41-113.54C1983.7,639.22,1933,601.4,1881.19,602.12Zm-232.82,110c0,10.32-.3,20.66.06,31a223.93,223.93,0,0,0,8.21,54.14c4.16,14.49,9.87,28.28,20.08,39.75a42.11,42.11,0,0,0,10.66,8.94,5.5,5.5,0,0,0,6.55-.41c2.2-1.81,3.59-4,2.49-7-.82-2.17-1.81-4.29-2.78-6.4-18.79-40.63-24.2-82.56-13.2-126.39,8.53-34,18.67-67.5,36.29-97.92,23.94-41.32,53.5-77.92,94.59-103.78,3.25-2,6.1-4.36,4.67-8.82s-5.22-4.71-9-4.6a57.14,57.14,0,0,0-23.09,5.68,176.26,176.26,0,0,0-25.75,15.21c-33.58,23.7-61,53.39-84.63,86.83-13.74,19.47-21.14,41.19-23.51,64.92C1648.42,679.53,1648.33,695.8,1648.37,712.1Z"/>
            <path class="cls-3"
                  d="M476.69,711.2c.14-27.68,2.09-55.18,7.47-82.42,3.65-18.51,10.87-35.61,19.47-52.21a426.47,426.47,0,0,1,40.35-63c7.25-9.46,17-16,26.24-22.91,58.6-44,124.43-65.54,197.83-61.88,41.7,2.07,81.25,13.51,119,31.07,20.56,9.55,40.63,20.06,57.94,35,29.38,25.37,49.6,57.14,63.8,92.91,13.84,34.86,21.69,71.06,24.72,108.52,2.94,36.18.86,71.84-8,107-21.15,84-74.14,139.49-153.88,170.64C838.94,986.69,805,995,770,997.6c-38,2.83-74.93-3.75-110.34-18.1-50.95-20.65-93.88-52.47-130-93.75a74.33,74.33,0,0,1-13.17-21,193.86,193.86,0,0,0-19.46-36c-7.3-10.71-11.45-22.39-13.7-35A460.28,460.28,0,0,1,476.69,711.2Zm374.64-4.81c-.34-26.12-9.87-54.23-30-78.5-43.57-52.44-119.46-52.46-162.55-.06-41.76,50.76-35.23,132,14.09,175.49,43.88,38.69,106.66,35.94,146.23-6.87C841.05,772.66,851.09,744,851.33,706.39ZM506.81,720.87a209.5,209.5,0,0,0,2.73,40.81c2.92,17.48,7.38,34.5,17.14,49.65,4.56,7.06,10,13.34,17.06,18,2.6,1.69,5.35,2.85,8.24.47s4.1-5.08,2.4-8.77c-1.53-3.32-2.9-6.72-4.16-10.16-11.56-31.42-16.86-63.53-11.34-97,4-24.52,12.29-47.56,22.17-70.22,21.84-50,53-93,95.41-127.5,19.93-16.22,40.59-31.33,64.88-40.59,3.7-1.41,6.71-3.19,6.08-7.82-.57-4.15-3.65-5-7.18-5.53a63,63,0,0,0-13.87-.65c-12.53.82-24.09,4.91-35.34,9.94C622.9,493,582,524.36,546.91,563.57c-15.69,17.56-25.24,38.08-29.77,61.15C510.9,656.48,507.85,688.57,506.81,720.87Z"/>
            <path class="cls-3"
                  d="M359.7,891.36c.18-1.4.79-5,1.1-8.63.74-8.83,5.85-13.84,14.06-15.83a92.87,92.87,0,0,1,14.71-2.42c15.51-1.18,32.1,14.8,26.33,32.36a50.62,50.62,0,0,1-5.64,12.65c-8.12,12.15-19.59,16.29-32.75,11.87C365.26,917.26,359.36,908.08,359.7,891.36Z"/>
            <path class="cls-2"
                  d="M1881.19,602.12c51.85-.72,102.51,37.1,112.74,95.69,7.88,45.11-5.65,83.78-41,113.54-51.44,43.35-126,30.45-162-19.2-53.8-74.12-11.86-167.3,63.63-186.67C1863.66,603.15,1872.84,601.77,1881.19,602.12Z"/>
            <path class="cls-2"
                  d="M1648.37,712.1c0-16.3.05-32.57,1.68-48.85,2.37-23.73,9.77-45.45,23.51-64.92,23.58-33.44,51-63.13,84.63-86.83a176.26,176.26,0,0,1,25.75-15.21,57.14,57.14,0,0,1,23.09-5.68c3.74-.11,7.54.14,9,4.6s-1.42,6.77-4.67,8.82c-41.09,25.86-70.65,62.46-94.59,103.78-17.62,30.42-27.76,63.91-36.29,97.92-11,43.83-5.59,85.76,13.2,126.39,1,2.11,2,4.23,2.78,6.4,1.1,3-.29,5.16-2.49,7a5.5,5.5,0,0,1-6.55.41,42.11,42.11,0,0,1-10.66-8.94c-10.21-11.47-15.92-25.26-20.08-39.75a223.93,223.93,0,0,1-8.21-54.14C1648.07,732.76,1648.37,722.42,1648.37,712.1Z"/>
            <path class="cls-2"
                  d="M851.33,706.39c-.24,37.56-10.28,66.27-32.27,90.06-39.57,42.81-102.35,45.56-146.23,6.87C623.51,759.83,617,678.59,658.74,627.83c43.09-52.4,119-52.38,162.55.06C841.46,652.16,851,680.27,851.33,706.39Z"/>
            <path class="cls-2"
                  d="M506.81,720.87c1-32.3,4.09-64.39,10.33-96.15,4.53-23.07,14.08-43.59,29.77-61.15C582,524.36,622.9,493,671,471.44c11.25-5,22.81-9.12,35.34-9.94a63,63,0,0,1,13.87.65c3.53.55,6.61,1.38,7.18,5.53.63,4.63-2.38,6.41-6.08,7.82-24.29,9.26-45,24.37-64.88,40.59-42.43,34.52-73.57,77.49-95.41,127.5-9.88,22.66-18.14,45.7-22.17,70.22-5.52,33.49-.22,65.6,11.34,97,1.26,3.44,2.63,6.84,4.16,10.16,1.7,3.69.45,6.41-2.4,8.77s-5.64,1.22-8.24-.47c-7.11-4.62-12.5-10.9-17.06-18-9.76-15.15-14.22-32.17-17.14-49.65A209.5,209.5,0,0,1,506.81,720.87Z"/>
        </g>
    </g>
</svg>