<svg xmlns="http://www.w3.org/2000/svg" xmlns:xlink="http://www.w3.org/1999/xlink" id="Layer_1" x="0" y="0" version="1.1" viewBox="0 0 24 24" xml:space="preserve"><style type="text/css">.st0{fill:none;stroke:#3a3a3a;stroke-linecap:round;stroke-linejoin:round}.st1{display:none}.st2{display:inline;fill:#3a3a3a}.st3{fill:none;stroke:#3a3a3a;stroke-linejoin:round}</style><path d="M1.4000000000000004,12A10.6,10.6 0,1,1 22.6,12A10.6,10.6 0,1,1 1.4000000000000004,12" class="st0 loGRgogD_0"/><g class="st1"><path d="M14.3,3.5l-1,0.8l3.9,5.2l1-0.8L14.3,3.5L14.3,3.5z M11.9,5.6l-0.8,1l0,0l5,4.2l0.8-1L11.9,5.6L11.9,5.6z M9.9,8.3L9.4,9.5l5.9,2.8l0.5-1.2L9.9,8.3L9.9,8.3z M9.4,9.5L9.4,9.5L9.4,9.5L9.4,9.5L9.4,9.5z M8.8,11.3l-0.3,1.3l6.4,1.3 l0.3-1.3L8.8,11.3L8.8,11.3z M17.6,12.9h-1.3v3.9H7.1v-3.9H5.8v5.2h11.8V12.9L17.6,12.9z M15,14.2H8.4v1.3l0,0H15V14.2L15,14.2z" class="st2 loGRgogD_1"/></g><g><path d="M6.5,12.9L6.5,18.1" class="st3 loGRgogD_2"/><path d="M16.9,12.9L16.9,18.1" class="st3 loGRgogD_3"/><path d="M16.9,17.6L6.4,17.6" class="st3 loGRgogD_4"/><path d="M8.4,14.9L15,14.9" class="st3 loGRgogD_5"/><path d="M8.6,12L15.1,13.4" class="st3 loGRgogD_6"/><path d="M9.6,8.9L15.5,11.8" class="st3 loGRgogD_7"/><path d="M11.5,6.1L16.4,10.3" class="st3 loGRgogD_8"/><path d="M13.8,3.9L17.7,9.1" class="st3 loGRgogD_9"/></g><style data-made-with="vivus-instant">@keyframes loGRgogD_fade{0%,93.54838709677419%{stroke-opacity:1}}.loGRgogD_0{stroke-dasharray:67 69;stroke-dashoffset:68}.loGRgogD_0,.loGRgogD_1,.loGRgogD_2,.loGRgogD_3,.loGRgogD_4{animation:loGRgogD_draw 2000ms ease-out 0ms forwards}.loGRgogD_1{stroke-dasharray:121 123;stroke-dashoffset:122}.loGRgogD_2,.loGRgogD_3{stroke-dasharray:6 8;stroke-dashoffset:7}.loGRgogD_4{stroke-dasharray:11 13;stroke-dashoffset:12}.loGRgogD_5,.loGRgogD_6,.loGRgogD_7,.loGRgogD_8,.loGRgogD_9{stroke-dasharray:7 9;stroke-dashoffset:8;animation:loGRgogD_draw 2000ms ease-out 0ms forwards}</style></svg>