<?xml version="1.0" encoding="utf-8"?>
<!-- Generator: Adobe Illustrator 22.0.0, SVG Export Plug-In . SVG Version: 6.00 Build 0)  -->
<svg version="1.1" id="Layer_1" xmlns="http://www.w3.org/2000/svg" xmlns:xlink="http://www.w3.org/1999/xlink" x="0px" y="0px"
	 viewBox="0 0 24 24" style="enable-background:new 0 0 24 24;" xml:space="preserve">
<style type="text/css">
	.st0{fill:none;stroke:#000000;stroke-linecap:round;stroke-linejoin:round;}
	.st1{display:none;}
	.st2{display:inline;fill:none;stroke:#000000;stroke-linecap:round;stroke-linejoin:round;}
	.st3{display:none;fill:none;stroke:#000000;stroke-linecap:round;stroke-linejoin:round;}
</style>
<path id="twitter" class="st0" d="M18.8,6.5c-0.6,0.4-1.2,0.7-1.9,0.9c-1-1.2-2.7-1.3-3.9-0.3c-0.6,0.5-1,1.3-1,2.1v0.6
	c-2.2,0.1-4.3-1-5.6-2.8c0,0-2.5,5.6,3.1,8c-1.3,0.9-2.8,1.3-4.3,1.2c5.6,3.1,12.3,0,12.3-7.1c0-0.2,0-0.3,0-0.5
	C18.1,8.1,18.6,7.3,18.8,6.5z"/>
<circle class="st0" cx="12" cy="12" r="10.6"/>
<g id="mail" class="st1">
	<path class="st2" d="M6.7,6.7h10.6c0.7,0,1.3,0.6,1.3,1.3V16c0,0.7-0.6,1.3-1.3,1.3H6.7c-0.7,0-1.3-0.6-1.3-1.3V8
		C5.4,7.3,6,6.7,6.7,6.7z"/>
	<polyline class="st2" points="18.6,8.1 12,12.7 5.4,8.1 	"/>
</g>
<path class="st3" d="M10.3,16.8c-3.2,1-3.2-1.6-4.4-1.9 M14.7,18.7v-2.5c0-0.6-0.2-1.2-0.6-1.7c2-0.2,4.1-1,4.1-4.4
	c0-0.9-0.3-1.7-1-2.4c0.3-0.8,0.3-1.6-0.1-2.4c0,0-0.7-0.2-2.5,0.9c-1.5-0.4-3-0.4-4.4,0C8.5,5.1,7.8,5.3,7.8,5.3
	C7.4,6.1,7.4,7,7.7,7.7c-0.6,0.6-1,1.5-1,2.4c0,3.4,2.1,4.2,4.1,4.4c-0.4,0.4-0.6,1-0.6,1.6v2.5"/>
</svg>
