<svg xmlns="http://www.w3.org/2000/svg" viewBox="0 0 24 24" enable-background="new 0 0 24 24"><style type="text/css">.st0{display:none;fill:none;stroke:#000000;stroke-linecap:round;stroke-linejoin:round;} .st1{fill:none;stroke:#000000;stroke-linecap:round;stroke-linejoin:round;} .st2{display:none;} .st3{display:inline;fill:none;stroke:#000000;stroke-linecap:round;stroke-linejoin:round;}</style><circle cx="12" cy="12" r="10.6" class="st1"/><g id="mail" class="st2"><path d="M6.7 6.7h10.6c.7 0 1.3.6 1.3 1.3v8c0 .7-.6 1.3-1.3 1.3H6.7c-.7 0-1.3-.6-1.3-1.3V8c0-.7.6-1.3 1.3-1.3zM18.6 8.1L12 12.7 5.4 8.1" class="st3"/></g><path d="M10.3 16.8c-3.2 1-3.2-1.6-4.4-1.9m8.8 3.8v-2.5c0-.6-.2-1.2-.6-1.7 2-.2 4.1-1 4.1-4.4 0-.9-.3-1.7-1-2.4.3-.8.3-1.6-.1-2.4 0 0-.7-.2-2.5.9-1.5-.4-3-.4-4.4 0-1.7-1.1-2.4-.9-2.4-.9-.4.8-.4 1.7-.1 2.4-.6.6-1 1.5-1 2.4 0 3.4 2.1 4.2 4.1 4.4-.4.4-.6 1-.6 1.6v2.5" class="st1"/></svg>