<?xml version="1.0" encoding="utf-8"?>
<!-- Generator: Adobe Illustrator 22.0.0, SVG Export Plug-In . SVG Version: 6.00 Build 0)  -->
<svg version="1.1" id="Layer_1" xmlns="http://www.w3.org/2000/svg" xmlns:xlink="http://www.w3.org/1999/xlink" x="0px" y="0px"
	 viewBox="0 0 24 24" style="enable-background:new 0 0 24 24;" xml:space="preserve">
<style type="text/css">
	.st0{fill:none;stroke:#3A3A3A;stroke-linecap:round;stroke-linejoin:round;}
	.st1{display:none;}
	.st2{display:inline;fill:none;stroke:#000000;stroke-linecap:round;stroke-linejoin:round;}
	.st3{display:none;fill:none;stroke:#000000;stroke-linecap:round;stroke-linejoin:round;}
</style>
<circle class="st0" cx="12" cy="12" r="10.6"/>
<g id="mail" class="st1">
	<path class="st2" d="M6.7,6.7h10.6c0.7,0,1.3,0.6,1.3,1.3v8c0,0.7-0.6,1.3-1.3,1.3H6.7c-0.7,0-1.3-0.6-1.3-1.3V8
		C5.4,7.3,6,6.7,6.7,6.7z"/>
	<polyline class="st2" points="18.6,8.1 12,12.7 5.4,8.1 	"/>
</g>
<path class="st3" d="M10.3,16.8c-3.2,1-3.2-1.6-4.4-1.9 M14.7,18.7v-2.5c0-0.6-0.2-1.2-0.6-1.7c2-0.2,4.1-1,4.1-4.4
	c0-0.9-0.3-1.7-1-2.4c0.3-0.8,0.3-1.6-0.1-2.4c0,0-0.7-0.2-2.5,0.9c-1.5-0.4-3-0.4-4.4,0C8.5,5.1,7.8,5.3,7.8,5.3
	C7.4,6.1,7.4,7,7.7,7.7c-0.6,0.6-1,1.5-1,2.4c0,3.4,2.1,4.2,4.1,4.4c-0.4,0.4-0.6,1-0.6,1.6v2.5"/>
<path class="st0" d="M14.8,9.6c2,0,3.7,1.6,3.7,3.7v4.3H16v-4.3c0-0.7-0.5-1.2-1.2-1.2c-0.7,0-1.2,0.5-1.2,1.2v4.3h-2.4v-4.3
	C11.1,11.2,12.8,9.6,14.8,9.6L14.8,9.6z M6.2,10.2h2.4v7.3H6.2V10.2z M7.4,5.9c0.7,0,1.2,0.5,1.2,1.2c0,0.7-0.5,1.2-1.2,1.2
	c-0.7,0-1.2-0.5-1.2-1.2C6.2,6.4,6.8,5.9,7.4,5.9L7.4,5.9z"/>
</svg>
