<?xml version="1.0" encoding="utf-8"?>
<!-- Generator: Adobe Illustrator 22.0.0, SVG Export Plug-In . SVG Version: 6.00 Build 0)  -->
<svg version="1.1" id="Layer_1" xmlns="http://www.w3.org/2000/svg" xmlns:xlink="http://www.w3.org/1999/xlink" x="0px" y="0px"
	 viewBox="0 0 24 24" style="enable-background:new 0 0 24 24;" xml:space="preserve">
<style type="text/css">
	.st0{fill:none;stroke:#3A3A3A;stroke-linecap:round;stroke-linejoin:round;}
	.st1{display:none;}
	.st2{display:inline;fill:#3A3A3A;}
	.st3{fill:none;stroke:#3A3A3A;stroke-linejoin:round;}
</style>
<circle class="st0" cx="12" cy="12" r="10.6"/>
<g class="st1">
	<path class="st2" d="M14.3,3.5l-1,0.8l3.9,5.2l1-0.8L14.3,3.5L14.3,3.5z M11.9,5.6l-0.8,1l0,0l5,4.2l0.8-1L11.9,5.6L11.9,5.6z
		 M9.9,8.3L9.4,9.5l5.9,2.8l0.5-1.2L9.9,8.3L9.9,8.3z M9.4,9.5L9.4,9.5L9.4,9.5L9.4,9.5L9.4,9.5z M8.8,11.3l-0.3,1.3l6.4,1.3
		l0.3-1.3L8.8,11.3L8.8,11.3z M17.6,12.9h-1.3v3.9H7.1v-3.9H5.8v5.2h11.8V12.9L17.6,12.9z M15,14.2H8.4v1.3l0,0H15V14.2L15,14.2z"/>
</g>
<g>
	<line class="st3" x1="6.5" y1="12.9" x2="6.5" y2="18.1"/>
	<line class="st3" x1="16.9" y1="12.9" x2="16.9" y2="18.1"/>
	<line class="st3" x1="16.9" y1="17.6" x2="6.4" y2="17.6"/>
	<line class="st3" x1="8.4" y1="14.9" x2="15" y2="14.9"/>
	<line class="st3" x1="8.6" y1="12" x2="15.1" y2="13.4"/>
	<line class="st3" x1="9.6" y1="8.9" x2="15.5" y2="11.8"/>
	<line class="st3" x1="11.5" y1="6.1" x2="16.4" y2="10.3"/>
	<line class="st3" x1="13.8" y1="3.9" x2="17.7" y2="9.1"/>
</g>
</svg>
